<svg id="Capa_1" enable-background="new 0 0 511.997 511.997" height="512" viewBox="0 0 511.997 511.997" width="512" xmlns="http://www.w3.org/2000/svg"><g><g><path d="m101.101 268.158h65.423v188.03h-65.423z" fill="#dbedff"/><path d="m101.101 268.158h32.711v188.03h-32.711z" fill="#b5dcff"/><path d="m223.101 268.158h65.423v188.03h-65.423z" fill="#dbedff"/><path d="m223.101 268.158h32.711v188.03h-32.711z" fill="#b5dcff"/><path d="m345.101 268.158h65.423v188.03h-65.423z" fill="#dbedff"/><path d="m345.101 268.158h32.711v188.03h-32.711z" fill="#b5dcff"/><path d="m44.357 268.158h-25.992c-1.812 0-3.518-.445-5.027-1.218v171.452c0 9.829 7.968 17.796 17.796 17.796h13.222v-188.03z" fill="#3f6d8e"/><path d="m493.26 268.158h-25.992v188.03h13.222c9.829 0 17.796-7.968 17.796-17.796v-171.451c-1.509.773-3.214 1.217-5.026 1.217z" fill="#477b9e"/><path d="m42.313 268.158h61v188.03h-61z" fill="#dbedff"/><path d="m42.313 268.158h30.5v188.03h-30.5z" fill="#b5dcff"/><path d="m164.312 268.158h61v188.03h-61z" fill="#dbedff"/><path d="m164.312 268.158h30.5v188.03h-30.5z" fill="#b5dcff"/><path d="m286.312 268.158h61v188.03h-61z" fill="#dbedff"/><path d="m286.312 268.158h30.5v188.03h-30.5z" fill="#b5dcff"/><path d="m408.312 268.158h61v188.03h-61z" fill="#dbedff"/><path d="m408.312 268.158h30.5v188.03h-30.5z" fill="#b5dcff"/><path d="m144.664 268.158v91.409c0 5.425 4.397 9.822 9.822 9.822h19.653c5.424 0 9.822-4.397 9.822-9.822v-91.409z" fill="#477b9e"/><path d="m164.313 359.567v-91.409h-19.649v91.409c0 5.424 4.397 9.822 9.822 9.822h19.648c-5.424 0-9.821-4.398-9.821-9.822z" fill="#365e7d"/><path d="m205.664 268.158v91.409c0 5.425 4.397 9.822 9.822 9.822h19.653c5.424 0 9.822-4.397 9.822-9.822v-91.409z" fill="#477b9e"/><path d="m225.312 359.567v-91.409h-19.649v91.409c0 5.424 4.397 9.822 9.822 9.822h19.648c-5.423 0-9.821-4.398-9.821-9.822z" fill="#365e7d"/><path d="m83.664 268.158v91.409c0 5.425 4.397 9.822 9.822 9.822h19.653c5.424 0 9.822-4.397 9.822-9.822v-91.409z" fill="#477b9e"/><path d="m103.313 359.567v-91.409h-19.649v91.409c0 5.424 4.397 9.822 9.822 9.822h19.648c-5.424 0-9.821-4.398-9.821-9.822z" fill="#365e7d"/><path d="m266.664 268.158v91.409c0 5.425 4.397 9.822 9.822 9.822h19.653c5.424 0 9.822-4.397 9.822-9.822v-91.409z" fill="#477b9e"/><path d="m286.312 359.567v-91.409h-19.648v91.409c0 5.424 4.397 9.822 9.822 9.822h19.648c-5.424 0-9.822-4.398-9.822-9.822z" fill="#365e7d"/><path d="m388.663 268.158v91.409c0 5.425 4.397 9.822 9.822 9.822h19.653c5.424 0 9.822-4.397 9.822-9.822v-91.409z" fill="#477b9e"/><path d="m408.312 359.567v-91.409h-19.648v91.409c0 5.424 4.397 9.822 9.822 9.822h19.648c-5.425 0-9.822-4.398-9.822-9.822z" fill="#365e7d"/><path d="m327.664 268.158v91.409c0 5.425 4.397 9.822 9.822 9.822h19.653c5.424 0 9.822-4.397 9.822-9.822v-91.409z" fill="#477b9e"/><path d="m347.312 359.567v-91.409h-19.649v91.409c0 5.424 4.397 9.822 9.822 9.822h19.648c-5.423 0-9.821-4.398-9.821-9.822z" fill="#365e7d"/><path d="m7.314 239.873v20.234c0 6.103 4.948 11.051 11.051 11.051h474.895c6.103 0 11.051-4.948 11.051-11.051v-20.234z" fill="#f4dd45"/><path d="m452.769 55.118h-95.267c-28.466 0-51.542 23.076-51.542 51.542s-23.076 51.542-51.542 51.542h-193.117c-29.817 0-53.988 24.171-53.988 53.988v29.684h496.997v-135.214c.001-28.466-23.075-51.542-51.541-51.542z" fill="#477b9e"/><g fill="#3f6d8e"><path d="m126.8 158.202h-65.499c-29.817 0-53.988 24.171-53.988 53.988v29.684h65.499v-29.684c.001-29.817 24.172-53.988 53.988-53.988z"/><path d="m371.46 106.66c0-28.466 23.076-51.542 51.542-51.542h-65.499c-28.466 0-51.542 23.076-51.542 51.542s-23.076 51.542-51.542 51.542h65.499c28.466 0 51.542-23.076 51.542-51.542z"/></g></g><g><path d="m452.955 47.963h-95.267c-32.556 0-59.042 26.486-59.042 59.042 0 24.284-19.757 44.041-44.041 44.041h-72.606c-4.143 0-7.5 3.357-7.5 7.5s3.357 7.5 7.5 7.5h72.606c32.556 0 59.041-26.485 59.041-59.041 0-24.285 19.757-44.042 44.042-44.042h95.267c24.285 0 44.042 19.757 44.042 44.042v41.835c0 4.143 3.357 7.5 7.5 7.5s7.5-3.357 7.5-7.5v-41.835c0-32.555-26.486-59.042-59.042-59.042z"/><path d="m504.497 176.34c-4.143 0-7.5 3.357-7.5 7.5v50.878h-481.997v-22.184c0-25.634 20.854-46.488 46.487-46.488h85.512c4.143 0 7.5-3.357 7.5-7.5s-3.357-7.5-7.5-7.5h-85.512c-33.904 0-61.487 27.584-61.487 61.489v47.918c0 5.398 2.332 10.25 6.024 13.643v164.643c0 13.948 11.348 25.296 25.296 25.296h449.356c13.948 0 25.296-11.348 25.296-25.296v-164.644c3.692-3.393 6.024-8.245 6.024-13.643 0-26.632 0-49.43 0-76.612.001-4.142-3.356-7.5-7.499-7.5zm-7.5 73.378v10.734c0 1.401-.822 2.604-2.004 3.181-.2.098-.405.171-.613.229-.05.014-.098.035-.149.046-.257.06-.519.094-.785.094-4.501 0-470.388 0-474.896 0-.266 0-.528-.034-.785-.094-.051-.012-.099-.032-.149-.046-.208-.058-.414-.131-.613-.229-1.182-.577-2.004-1.78-2.004-3.181v-10.734zm-88.499 112.516h-9.826c-1.28 0-2.322-1.042-2.322-2.322v-80.908h24.297v80.908c0 1.28-1.042 2.322-2.322 2.322zm-61 0h-9.826c-1.28 0-2.322-1.042-2.322-2.322v-80.908h24.297v80.908c0 1.28-1.041 2.322-2.321 2.322zm-61 0h-9.826c-1.28 0-2.322-1.042-2.322-2.322v-80.908h24.297v80.908c0 1.28-1.041 2.322-2.321 2.322zm-60.999 0h-9.827c-1.28 0-2.322-1.042-2.322-2.322v-80.908h24.297v80.908c0 1.28-1.041 2.322-2.321 2.322zm-61 0h-9.827c-1.28 0-2.321-1.042-2.321-2.322v-80.908h24.297v80.908c0 1.28-1.042 2.322-2.322 2.322zm-61 0h-9.827c-1.28 0-2.321-1.042-2.321-2.322v-80.908h24.297v80.908c0 1.28-1.042 2.322-2.322 2.322zm-82.475 76.504v-159.735h13.975v170.03h-3.679c-5.676.001-10.296-4.618-10.296-10.295zm28.975-159.735h26.352v80.908c0 9.552 7.771 17.322 17.321 17.322h2.327v71.8h-46zm61 98.231h2.326c9.552 0 17.322-7.771 17.322-17.322v-80.908h6.703v80.908c0 9.552 7.771 17.322 17.321 17.322h2.327v71.8h-46v-71.8zm61 0h2.326c9.552 0 17.322-7.771 17.322-17.322v-80.908h6.702v80.908c0 9.552 7.771 17.322 17.322 17.322h2.327v71.8h-46v-71.8zm61 0h2.326c9.551 0 17.321-7.771 17.321-17.322v-80.908h6.703v80.908c0 9.552 7.771 17.322 17.322 17.322h2.326v71.8h-45.999v-71.8zm60.999 0h2.327c9.551 0 17.321-7.771 17.321-17.322v-80.908h6.703v80.908c0 9.552 7.771 17.322 17.322 17.322h2.326v71.8h-46v-71.8zm61 0h2.327c9.551 0 17.321-7.771 17.321-17.322v-80.908h6.703v80.908c0 9.552 7.771 17.322 17.322 17.322h2.326v71.8h-46v-71.8zm61 71.8v-71.8h2.326c9.552 0 17.322-7.771 17.322-17.322v-80.908h26.352v170.03zm74.975-10.296c0 5.677-4.619 10.296-10.296 10.296h-3.679v-170.03h13.975z"/></g></g></svg>