<svg xmlns="http://www.w3.org/2000/svg" width="202" height="276.362" viewBox="0 0 202 276.362">
  <g id="Group_1255" data-name="Group 1255" transform="translate(-109.531 -5.031)">
    <g id="Group_1243" data-name="Group 1243" transform="translate(115.848 63.493)">
      <g id="Group_1242" data-name="Group 1242">
        <g id="Group_1213" data-name="Group 1213" transform="translate(24.829 122.404)">
          <path id="Path_1064" data-name="Path 1064" d="M169.173,49.147l-.292,2.457a4.96,4.96,0,0,0-5.247,3.6s-1.138-.92-7.753,1.105c-5.46,1.38-10.637-2.2-16.344,3.981s-16.611,22.487-17.281,24.04c-2.593,1.171-4.852.9-5.045,3.994s2.527,2.1,3.546,1.73,8.813,2.506,12.33,4.926c10.144,6.94,13.945,5.1,11.147,1.155A75.665,75.665,0,0,0,151.2,89.74c3.357-3.529-2.921,2.046-5.912,14.06a198.965,198.965,0,0,1-8.254,25.593l79.206,8.772-2.625-31.645s1.085,1.939,3.04-.781,4.577-4.211,10.539-4.819,9.631,1.487,10.173-1.738-4.2-4.6-4.2-4.6-5.452-10.572-11.685-22.133-11.044-11.13-17.08-12.453a111.879,111.879,0,0,0-12.552-2.071s.329-5.415-6.319-4.339l.07-3.262Z" transform="translate(-116.833 -48.757)" fill="#efeaea"/>
          <path id="Path_1065" data-name="Path 1065" d="M169.173,49.147l-.292,2.457a4.96,4.96,0,0,0-5.247,3.6s-1.138-.92-7.753,1.105c-5.46,1.38-10.637-2.2-16.344,3.981s-16.611,22.487-17.281,24.04c-2.593,1.171-4.852.9-5.045,3.994s2.527,2.1,3.546,1.73,8.813,2.506,12.33,4.926c10.144,6.94,13.945,5.1,11.147,1.155A75.665,75.665,0,0,0,151.2,89.74c3.357-3.529-2.921,2.046-5.912,14.06a198.965,198.965,0,0,1-8.254,25.593l79.206,8.772-2.625-31.645s1.085,1.939,3.04-.781,4.577-4.211,10.539-4.819,9.631,1.487,10.173-1.738-4.2-4.6-4.2-4.6-5.452-10.572-11.685-22.133-11.044-11.13-17.08-12.453a111.879,111.879,0,0,0-12.552-2.071s.329-5.415-6.319-4.339l.07-3.262Z" transform="translate(-116.833 -48.757)" fill="#efeaea"/>
          <g id="Group_1206" data-name="Group 1206" transform="translate(0.68 6.55)">
            <path id="Path_1066" data-name="Path 1066" d="M163.086,52.7c-.041-.7-.062-1.36-.062-1.993-.781-.136-2.724-.136-7.256,1.233-5.427,1.364-10.592-2.182-16.27,3.928-5.678,6.126-16.517,22.228-17.191,23.764-2.568,1.155-4.815.879-5.021,3.944s2.523,2.083,3.542,1.717,8.772,2.473,12.281,4.865c10.079,6.878,13.883,5.066,11.093,1.159A74.549,74.549,0,0,0,151.121,85c3.353-3.488-2.9,2.03-5.867,13.9a193.894,193.894,0,0,1-8.2,25.3l17.141,1.9C150.821,95.89,164.553,62.692,163.086,52.7Z" transform="translate(-117.277 -50.646)" fill="#c6000f"/>
            <path id="Path_1067" data-name="Path 1067" d="M177.128,88.145s-5.407-10.469-11.591-21.911C159.362,54.77,154.576,55.214,148.6,53.9a110.6,110.6,0,0,0-12.453-2.058,5.7,5.7,0,0,0-.037-.7c-.247.9-.518,1.824-.8,2.806-2.009,6.751,12.014,19.993,2.934,74.884l22.125,2.453-2.625-31.32s1.072,1.911,3.02-.781,4.544-4.17,10.444-4.766,9.553,1.471,10.087-1.717S177.128,88.145,177.128,88.145Z" transform="translate(-61.85 -49.117)" fill="#c6000f"/>
          </g>
          <g id="Group_1207" data-name="Group 1207" transform="translate(0.367 0.39)" opacity="0.4" style="mix-blend-mode: multiply;isolation: isolate">
            <path id="Path_1068" data-name="Path 1068" d="M127,59.819c-.62.661-1.261,1.3-1.874,1.9-.062.612-.111,1.233-.148,1.853C127.35,59.043,129.166,57.551,127,59.819Z" transform="translate(-93.007 -19.226)" fill="#634d56"/>
            <path id="Path_1069" data-name="Path 1069" d="M138.659,56.354c1.993-.251,2.161,2.469,2.161,2.469s-.033-3.932,2.017-4.676-4.232,8.846,4.228,14.031,17.4-2.1,18.674-8.6c.608-3.127.957.111,1.672,2.408,1.307-2.794,8.217-3.2,13.949.189.123-.534,1.076-1.031,2.432-1.475-1.155-.238-2.33-.44-3.566-.711a111.879,111.879,0,0,0-12.552-2.071s.329-5.415-6.319-4.339l.07-3.262L145,49.147l-.292,2.457a4.96,4.96,0,0,0-5.247,3.6s-1.138-.92-7.753,1.105a23.162,23.162,0,0,1-6.73.2,17.092,17.092,0,0,1,5.419,3.3C131.111,57.919,136.67,56.608,138.659,56.354Z" transform="translate(-93.025 -49.147)" fill="#634d56"/>
            <path id="Path_1070" data-name="Path 1070" d="M155.5,52.845s-2.938,2.108-8.665,9.051-9.154,13.176-12.268,12.564c2.777,5.5-1.533,6.705-3.965,4.454-5.912-3.9-9.7-.916-9.17-3.312.588-2.884,7.2-2.835,7.2-2.835s-1.66-.444-6.089.025c-.09,0-.177,0-.271,0l-.016.037c-2.593,1.171-4.852.9-5.045,3.994s2.527,2.1,3.546,1.73,8.813,2.506,12.33,4.926c10.144,6.94,13.945,5.1,11.147,1.155,0,0,2.383-1.886,5.091-4.491A106.429,106.429,0,0,1,155.5,52.845Z" transform="translate(-117.2 -37.651)" fill="#634d56"/>
            <path id="Path_1071" data-name="Path 1071" d="M218.161,77.128s-4.425-8.587-9.873-18.764l-.012.041s6.118,12.535,7.371,18.6c4.717,1.545,5.255,5.3-1.7,3.973S201.27,86.6,201.164,83.39s9.746-5.732,9.746-5.732-5.953.526-8.028,1.508-4.273-3.213-12.807-24.405c6.664,22.446,2.991,43.165-8,47.023s-20.745.514-27.475-4.721-20-.193-20.42-9.1a81.325,81.325,0,0,1,0-11.923,46.694,46.694,0,0,0-3.891,10.309,198.965,198.965,0,0,1-8.254,25.593l79.206,8.772-2.625-31.645s1.085,1.939,3.04-.781,4.577-4.211,10.539-4.819,9.631,1.487,10.173-1.738S218.161,77.128,218.161,77.128Z" transform="translate(-102.196 -31.695)" fill="#634d56"/>
          </g>
          <path id="Path_1072" data-name="Path 1072" d="M136.783,129.988l.185-.448a196.143,196.143,0,0,0,8.242-25.535,46.514,46.514,0,0,1,4.75-11.923c-2.206,2.145-4.248,3.837-4.959,4.417.781,1.2.974,2.235.559,2.95-.3.481-.97,1-2.6.809-2.3-.271-5.785-1.943-9.791-4.692-3.118-2.132-9.618-4.622-11.632-4.865a.821.821,0,0,0-.382,0,5.583,5.583,0,0,1-2.4.448c-.822-.1-1.767-.62-1.635-2.547.16-2.58,1.693-3.069,3.46-3.644a17.263,17.263,0,0,0,1.68-.612c1.163-2.309,11.73-17.988,17.289-24.011,3.9-4.224,7.6-4.031,11.176-3.837a17.025,17.025,0,0,0,5.345-.255c4.782-1.463,6.816-1.417,7.609-1.224a5.3,5.3,0,0,1,5.152-3.5l.3-2.465,17.121,1.229-.074,3.176a8.983,8.983,0,0,1,2.165-.037,4.5,4.5,0,0,1,4.15,4.466,115.167,115.167,0,0,1,12.268,2.05c.694.152,1.368.275,2.03.4,5.206.99,9.7,1.841,15.288,12.227,5.785,10.736,10.962,20.732,11.615,22.01.855.288,4.848,1.771,4.3,4.963-.4,2.4-2.358,2.26-5.066,2.063a30.244,30.244,0,0,0-5.427-.021c-6.225.633-8.55,2.256-10.276,4.667-.834,1.155-1.652,1.685-2.436,1.6a1.484,1.484,0,0,1-.456-.14l2.593,31.168Zm15.7-41.358.205.016.164.394-.164.226a41.709,41.709,0,0,0-6.763,14.914,202.431,202.431,0,0,1-8.094,25.186l78.29,8.682-2.732-32.877.818,1.467a1.046,1.046,0,0,0,.67.477c.493.058,1.1-.394,1.746-1.3,2.194-3.04,5.119-4.384,10.8-4.963a31.314,31.314,0,0,1,5.559.021c2.843.2,4.014.21,4.294-1.454.489-2.864-3.891-4.179-3.932-4.187l-.152-.045-.074-.144c-.053-.094-5.518-10.695-11.681-22.137-5.419-10.07-9.762-10.9-14.771-11.845-.682-.127-1.368-.255-2.058-.411a111.432,111.432,0,0,0-12.523-2.071l-.353-.029.033-.349a3.821,3.821,0,0,0-3.509-4.051,8.748,8.748,0,0,0-2.4.086l-.431.078.078-3.361-15.74-1.126-.292,2.478-.362-.041a4.567,4.567,0,0,0-4.852,3.336l-.16.509-.419-.333a1.3,1.3,0,0,0-.444-.094c-.756-.09-2.675-.045-6.968,1.261a18.03,18.03,0,0,1-5.584.288c-3.566-.193-6.927-.378-10.609,3.6-5.7,6.2-16.611,22.552-17.215,23.933l-.053.131-.123.058a19.09,19.09,0,0,1-1.878.694c-1.763.575-2.823.912-2.962,2.991-.095,1.471.53,1.722.994,1.775a5.1,5.1,0,0,0,2.075-.4,1.438,1.438,0,0,1,.711-.041c2.128.255,8.7,2.765,11.952,5,5.28,3.611,8.2,4.417,9.47,4.565.97.115,1.631-.053,1.874-.456.292-.5.029-1.4-.707-2.441l-.21-.283.275-.218a75.4,75.4,0,0,0,6.931-6.352c.509-.526.789-.859.908-.978l.115-.144Z" transform="translate(-117.111 -49.052)" fill="#767678"/>
          <g id="Group_1209" data-name="Group 1209" transform="translate(51.6)">
            <g id="Group_1208" data-name="Group 1208">
              <path id="Path_1073" data-name="Path 1073" d="M145.766,59.217c.312-2.079.608-3.994.875-5.653-.053.012-.1.012-.152.021l.07-3.262-16.426-1.175-.095.805c.074,2.35.021,5.526-.279,9.824C129.734,66.173,144.69,66.227,145.766,59.217Z" transform="translate(-129.393 -48.757)" fill="#fecfa8"/>
              <path id="Path_1074" data-name="Path 1074" d="M135.837,65.092h0c-3.813-.452-6.175-2.383-6.167-5.025.259-3.87.357-7.157.279-9.816l.14-1.2,17.121,1.229-.074,3.2.14-.012v.452c-.263,1.664-.559,3.57-.875,5.654C145.759,63.736,140.529,65.651,135.837,65.092Zm-5.111-15.264-.053.464c.086,2.621-.012,5.933-.271,9.8-.008,2.662,2.847,3.965,5.526,4.281h0c4.248.5,9.183-1.233,9.758-4.91.275-1.894.551-3.64.8-5.189l-.016,0-.074-.4.07-2.917Z" transform="translate(-129.67 -49.052)" fill="#b75239"/>
            </g>
          </g>
          <g id="Group_1210" data-name="Group 1210" transform="translate(51.966 0.39)" opacity="0.7" style="mix-blend-mode: multiply;isolation: isolate">
            <path id="Path_1075" data-name="Path 1075" d="M145.766,59.217c.312-2.079.608-3.994.875-5.653-.053.012-.1.012-.152.021l.07-3.262-16.426-1.175-.095.805c.074,2.35.021,5.526-.279,9.824C129.734,66.173,144.69,66.227,145.766,59.217Z" transform="translate(-129.759 -49.147)" fill="#eec6ac"/>
          </g>
          <g id="Group_1211" data-name="Group 1211" transform="translate(52.118 0.39)" opacity="0.7" style="mix-blend-mode: multiply;isolation: isolate">
            <path id="Path_1076" data-name="Path 1076" d="M142.57,57.06c1.2-.288,2.383-.645,3.566-1.011.14-.875.267-1.705.39-2.486-.053.012-.1.012-.152.021l.07-3.262-16.426-1.175-.095.805c.045,1.857.033,4.24-.127,7.285C133.777,58.519,138.453,58.087,142.57,57.06Z" transform="translate(-129.796 -49.147)" fill="#eec6ac"/>
          </g>
          <g id="Group_1212" data-name="Group 1212" transform="translate(90.464 29.619)">
            <path id="Path_1077" data-name="Path 1077" d="M139.129,56.261c.292.85.559,1.709.838,2.551s.538,1.717.793,2.58l.785,2.56.748,2.572,1.483,5.156c.238.859.526,1.693.777,2.556.218.867.563,1.643.834,2.494l.066.2-.078.156-.419.879a4.534,4.534,0,0,0-.341.9,4.646,4.646,0,0,0-.255.937l-.07.481a3.216,3.216,0,0,0-.041.485l0,.481a1.77,1.77,0,0,0,.029.489,4.328,4.328,0,0,0,.189.961l.16.46a2.3,2.3,0,0,0,.226.436,1.932,1.932,0,0,0,.271.427l.316.382-.382-.337a2.324,2.324,0,0,1-.337-.378,2.818,2.818,0,0,1-.288-.431l-.234-.46a5.956,5.956,0,0,1-.329-.99,3.091,3.091,0,0,1-.082-.518l-.049-.522a2.806,2.806,0,0,1,0-.526l.041-.526a5.636,5.636,0,0,1,.2-1.031,5.37,5.37,0,0,1,.3-1l.382-.974,0,.353-.509-1.27c-.177-.423-.337-.85-.468-1.282-.292-.85-.563-1.709-.822-2.564q-.783-2.582-1.438-5.185c-.464-1.73-.855-3.48-1.257-5.226-.185-.871-.382-1.746-.538-2.63C139.449,58.032,139.265,57.153,139.129,56.261Z" transform="translate(-139.129 -56.261)" fill="#634d56" opacity="0.4" style="mix-blend-mode: multiply;isolation: isolate"/>
          </g>
          <path id="Path_1078" data-name="Path 1078" d="M134.734,54.221s3.028,8.977,12.482,8.041,11.381-7.018,11.685-8.69,1.816-.657,1.187,3.369.181,4.881,1.5,1.417,2.991-3.7,4.129,1.758,10.748,26.115-20.839,30.659C113.271,95.324,131.817,47.068,134.734,54.221Z" transform="translate(-87.365 -37.38)" fill="#ff494d" style="mix-blend-mode: color-dodge;isolation: isolate"/>
          <path id="Path_1079" data-name="Path 1079" d="M140.305,53.437s7.548,6.344,14.142,23.469C156.337,82.575,147.676,50.462,140.305,53.437Z" transform="translate(-45.009 -36.028)" fill="#ff000f"/>
          <path id="Path_1080" data-name="Path 1080" d="M138.835,52.143s-4.495-2.457-18.6,19.574C117.939,74.967,130.08,47.9,138.835,52.143Z" transform="translate(-108.279 -40.848)" fill="#ff000f"/>
          <path id="Path_1081" data-name="Path 1081" d="M118.807,59.2s6.2-1.179,9.647,2.112C131.178,62.591,125.66,55.2,118.807,59.2Z" transform="translate(-111.839 -21.234)" fill="#ff000f"/>
          <path id="Path_1082" data-name="Path 1082" d="M142.31,63.749s5.259-3.747,11.081-1.491C156.374,63.391,150.946,56.493,142.31,63.749Z" transform="translate(-38.776 -13.837)" fill="#ff000f"/>
          <path id="Path_1083" data-name="Path 1083" d="M130.279,53.7s5.136,4.306,13.612-1.089C142.141,57.074,133.816,59.038,130.279,53.7Z" transform="translate(-76.176 -37.998)" fill="#fbfafa"/>
        </g>
        <g id="Group_1233" data-name="Group 1233">
          <g id="Group_1214" data-name="Group 1214" transform="translate(20.243)">
            <path id="Path_1084" data-name="Path 1084" d="M151.751,138.155C123.3,126.306,121.618,108.2,124.519,92.578s-8.427-34.985-8.427-34.985c6-19.081,35.877-36.107,82.9-38.161s64.74,35.191,64.74,35.191a145.565,145.565,0,0,0-6.019,26.764s-1.278,14.68-2.178,23.822c-.953,9.688-14.5,25.342-41.214,33.2-7.285,2.876-15.777,6.787-26.147,6.442A114.473,114.473,0,0,1,151.751,138.155Z" transform="translate(-115.693 -18.981)" fill="#fecfa8"/>
            <path id="Path_1085" data-name="Path 1085" d="M176.729,144.659a116.2,116.2,0,0,1-24.8-5.871c-29.956-12.478-30.026-32.224-27.47-46,2.835-15.313-8.271-34.533-8.378-34.73L116,57.922l.053-.16c3.073-9.779,12.4-18.9,26.25-25.687,15.038-7.359,34.739-11.763,56.97-12.733a80.758,80.758,0,0,1,13.074.468c37.076,4.413,51.872,34.628,52.011,34.932l.074.136-.053.14a146.588,146.588,0,0,0-6,26.694c-.016.127-1.294,14.762-2.173,23.814-1.056,10.646-15.946,26-41.473,33.522-.7.275-1.434.571-2.186.871-6.87,2.765-14.664,5.9-24.077,5.575C183.952,145.35,180.332,145.091,176.729,144.659ZM116.788,57.831c1.023,1.812,11.143,20.219,8.382,35.092-5.169,27.918,11.722,38.806,27.027,45.17a113.921,113.921,0,0,0,24.623,5.83c3.579.436,7.178.694,11.664.842,9.269.308,16.981-2.794,23.777-5.526.76-.3,1.5-.6,2.231-.887,25.244-7.437,39.94-22.5,40.971-32.894.9-9.047,2.169-23.678,2.186-23.83a147.645,147.645,0,0,1,5.99-26.7c-1.1-2.169-15.954-30.174-51.379-34.4a80.841,80.841,0,0,0-12.963-.448C163.725,21.634,124.471,33.907,116.788,57.831Z" transform="translate(-115.995 -19.26)" fill="#b75239"/>
          </g>
          <g id="Group_1216" data-name="Group 1216" transform="translate(20.642 0.369)" opacity="0.7" style="mix-blend-mode: multiply;isolation: isolate">
            <path id="Path_1086" data-name="Path 1086" d="M263.728,54.623S246,17.378,198.988,19.432s-76.9,19.081-82.9,38.161c0,0,11.315,19.36,8.427,34.985s-1.216,33.728,27.232,45.577a114.473,114.473,0,0,0,36.419,6.7c10.37.345,18.863-3.566,26.147-6.442,26.71-7.86,40.261-23.514,41.214-33.2.9-9.142,2.178-23.822,2.178-23.822A145.565,145.565,0,0,1,263.728,54.623Zm-38.745,74C202,141.89,186.292,144.89,166.706,138.377c-41.744-12.273-39.8-28.74-38.49-42.845s.2-19.8.2-19.8c-1.426-6.085,1.007-8.575,1.007-8.575s.468,2.136,3.476,3.8c4.08-7.256,16.036-17.832,16.036-17.832s-.2,1.713-.292,5.534a52.062,52.062,0,0,0,13.02-7.5l-.719,3.053c13.591-.123,29.862-7.93,29.862-7.93l-2.334,4.589s15.942-1.923,22.951-9.783c4.4,10.962,15.892,16.5,15.892,16.5s-3.911-9.158,3.225-3.1c7.963,5.123,16.64,16.25,16.64,16.25s.518-1.335-.986-6.73c2.761,3.809,6.783,6.031,6.993,22.4C252.331,105.792,248.2,116.433,224.983,128.623Z" transform="translate(-116.092 -19.35)" fill="#eec6ac"/>
            <g id="Group_1215" data-name="Group 1215" transform="translate(11.613 21.739)">
              <path id="Path_1087" data-name="Path 1087" d="M237.41,47.563c1.5,5.395.986,6.73.986,6.73s-8.677-11.126-16.64-16.25c-7.137-6.06-3.225,3.1-3.225,3.1s-11.488-5.538-15.892-16.5c-7.009,7.86-22.951,9.783-22.951,9.783l2.334-4.589s-16.27,7.806-29.862,7.93l.719-3.053a52.062,52.062,0,0,1-13.02,7.5c.095-3.821.292-5.534.292-5.534s-11.956,10.576-16.036,17.832c-3.008-1.668-3.476-3.8-3.476-3.8s-2.432,2.49-1.007,8.575c0,0,1.113,5.695-.2,19.8s-3.254,30.572,38.49,42.845c19.586,6.512,35.293,3.513,58.277-9.754,23.218-12.19,27.347-22.832,28.206-42.208C244.193,53.595,240.171,51.372,237.41,47.563Z" transform="translate(-118.918 -24.641)" fill="none"/>
            </g>
          </g>
          <path id="Path_1088" data-name="Path 1088" d="M154,87.489s6.344-11.422,16.706-8.456a12.784,12.784,0,0,0-4.676-2.642s6.438-6.192,3.065-22.943c-1.467-5.74-4.474-7.49-4.474-7.49s-.23-1.068,3.008,1.75c-1.537-5.054-2.4-6.894-9.055-8.032,1.923-7.079,11.356-8.39,17.351-1.763-6.594-10.526-13.8-13.115-27.5-2.921-12.092,8.645-6.623,10.678-6.623,10.678-4.211,8.55-9.314,30.552,10.3,36.715C151.436,85.093,154,87.489,154,87.489Z" transform="translate(-27.626 9.61)" fill="#eec6ac" opacity="0.7" style="mix-blend-mode: multiply;isolation: isolate"/>
          <path id="Path_1089" data-name="Path 1089" d="M123.022,69.772s9.273.846,13.776,12.605a8.692,8.692,0,0,0-.74-5.045c4.072,1.783,16.714-3.229,16.426-18.924a15.234,15.234,0,0,1,1.245,5.37s2.662-17.942-4.125-26.32c-6.767-8.369-23.045-13.439-29.422,1.98,5.7-5.062,11.595-5.148,14.2-2.219,2.424,2.1-2.153,2.342-4.129,5.5a5.715,5.715,0,0,1,4.626-.752s-10.929,4.178-8.694,26.1A3.275,3.275,0,0,0,123.022,69.772Z" transform="translate(-82.733 12.54)" fill="#eec6ac" opacity="0.7" style="mix-blend-mode: multiply;isolation: isolate"/>
          <g id="Group_1217" data-name="Group 1217" transform="translate(44.497 55.354)">
            <path id="Path_1090" data-name="Path 1090" d="M124.334,40.649s-6.738,14.619,2.256,23.4c7.8,5.822,18.14-2.917,18.9-12.979C146.516,37.469,134.264,23.59,124.334,40.649Z" transform="translate(-121.86 -32.69)" fill="#fff"/>
            <path id="Path_1091" data-name="Path 1091" d="M124.371,40.692a27.785,27.785,0,0,0-1.052,2.938,27.481,27.481,0,0,0-.752,3.02,14.482,14.482,0,0,0-.263,1.537,14.047,14.047,0,0,0-.185,1.553c-.033.518-.111,1.031-.1,1.549l.012,1.557.127,1.545a13.113,13.113,0,0,0,.279,1.537l.144.76.234.731a12.614,12.614,0,0,0,.509,1.467l.653,1.389c.23.46.563.871.83,1.311l.423.633c.16.2.341.386.514.579l1.031,1.138-.016-.016a18.361,18.361,0,0,0,1.705.982,8.569,8.569,0,0,0,1.861.579c.316.045.641.119.953.16l.978,0,.493,0,.481-.082.961-.164a11.917,11.917,0,0,0,3.558-1.6c.271-.185.563-.353.826-.551l.752-.637a14.877,14.877,0,0,0,1.413-1.376c.46-.472.822-1.031,1.237-1.541.374-.538.7-1.113,1.056-1.668.292-.6.6-1.179.871-1.779.214-.629.5-1.228.661-1.865a17.453,17.453,0,0,0,.666-3.9,22.368,22.368,0,0,0-2.564-11.537,15.5,15.5,0,0,0-2.342-3.221,9.6,9.6,0,0,0-3.238-2.272,6.992,6.992,0,0,0-3.9-.464,8.81,8.81,0,0,0-3.636,1.611,15.092,15.092,0,0,0-2.88,2.8A27.9,27.9,0,0,0,124.371,40.692Zm0,0a28.4,28.4,0,0,1,2.272-3.336,15.213,15.213,0,0,1,2.868-2.831,8.961,8.961,0,0,1,3.653-1.664,7.2,7.2,0,0,1,4,.382,9.986,9.986,0,0,1,3.381,2.247,15.35,15.35,0,0,1,2.473,3.234,21.782,21.782,0,0,1,2.662,7.691,22.009,22.009,0,0,1,.2,4.092,18.6,18.6,0,0,1-.653,4.055c-.168.67-.452,1.3-.67,1.952-.271.633-.592,1.237-.888,1.857-.37.583-.723,1.171-1.122,1.73-.444.53-.818,1.109-1.307,1.59a14.294,14.294,0,0,1-1.483,1.426l-.793.657c-.284.2-.575.382-.867.571a12.631,12.631,0,0,1-3.763,1.648l-1.035.152-.509.074-.526,0-1.039-.029c-.341-.045-.67-.131-1.015-.193a8.794,8.794,0,0,1-1.948-.666,17.516,17.516,0,0,1-1.767-1.064l-.012-.008-.016-.012-1.031-1.2c-.164-.2-.341-.394-.5-.608l-.427-.666c-.263-.452-.583-.871-.814-1.348l-.633-1.438a12.673,12.673,0,0,1-.481-1.5l-.214-.752-.144-.772A13.463,13.463,0,0,1,122,54.419l-.107-1.57.016-1.57c0-.514.078-1.027.115-1.553s.115-1.035.2-1.549.16-1.031.283-1.541a28.551,28.551,0,0,1,.789-3.016A23.6,23.6,0,0,1,124.371,40.692Z" transform="translate(-121.898 -32.733)" fill="#b75239"/>
          </g>
          <g id="Group_1218" data-name="Group 1218" transform="translate(112.459 52.887)">
            <path id="Path_1092" data-name="Path 1092" d="M166.12,49.621s-.509-15.974-12.1-17.355S136.8,44.822,138.995,57.871c2.56,9.955,13.238,14.356,20.424,10S166.859,54.667,166.12,49.621Z" transform="translate(-138.165 -32.009)" fill="#fff"/>
            <path id="Path_1093" data-name="Path 1093" d="M166.394,49.745a28.636,28.636,0,0,0-1.344-7.03,18.4,18.4,0,0,0-3.361-6.274,11.1,11.1,0,0,0-5.953-3.64,12.97,12.97,0,0,0-3.509-.325,11.128,11.128,0,0,0-3.422.735,12.371,12.371,0,0,0-5.44,4.31,21.034,21.034,0,0,0-3.04,6.344,29.98,29.98,0,0,0-1.13,6.989,35.248,35.248,0,0,0,.407,7.083v-.029a15.53,15.53,0,0,0,6.459,9.2,14,14,0,0,0,5.3,2.157,11.952,11.952,0,0,0,10.658-3.168,13.685,13.685,0,0,0,3.25-4.8,19.674,19.674,0,0,0,1.307-5.69A26.577,26.577,0,0,0,166.394,49.745Zm0,0a26.4,26.4,0,0,1,.222,5.863,19.468,19.468,0,0,1-1.265,5.715,14.5,14.5,0,0,1-3.209,4.914,12.259,12.259,0,0,1-10.871,3.455,14.576,14.576,0,0,1-5.526-2.116,15.924,15.924,0,0,1-6.816-9.5v-.029a31.452,31.452,0,0,1,.772-14.376,20.626,20.626,0,0,1,3.221-6.5,12.816,12.816,0,0,1,5.732-4.359,11.726,11.726,0,0,1,3.558-.686,13.968,13.968,0,0,1,3.6.4,11.391,11.391,0,0,1,5.978,3.833,18.665,18.665,0,0,1,3.324,6.327A28.94,28.94,0,0,1,166.394,49.745Z" transform="translate(-138.439 -32.132)" fill="#b75239"/>
          </g>
          <g id="Group_1219" data-name="Group 1219" transform="translate(40.507 37.947)">
            <path id="Path_1094" data-name="Path 1094" d="M151.689,43.389a8.509,8.509,0,0,0-1.726-3.755,29.7,29.7,0,0,0-8.5-8.871,14.139,14.139,0,0,0-13.041-1.2,12.239,12.239,0,0,0-4.495,3.521,16.357,16.357,0,0,0-3,5.132c-.033.095.127.148.193.074l.049-.008a14.045,14.045,0,0,1,7-2.773,17.555,17.555,0,0,1,7.293,1.261,39.765,39.765,0,0,1,6.578,3.279c1.257.764,2.494,1.561,3.731,2.338a38.193,38.193,0,0,0,3.858,2.358.176.176,0,0,0,.119.078.441.441,0,0,0,.086.016c.119.049.23.111.353.152a.345.345,0,0,0,.431-.131A1.32,1.32,0,0,0,151.689,43.389Z" transform="translate(-120.927 -28.496)" fill="#fff682"/>
            <path id="Path_1095" data-name="Path 1095" d="M151.689,40.39a8.509,8.509,0,0,0-1.726-3.755,32.251,32.251,0,0,0-6.2-7.174c.92,1.228,2.042,2.358,2.954,3.612.74,1.007,1.631,2.321,1.512,3.533-.012.119-.148.177-.279.148-2.346-.641-3.973-2.235-5.916-3.431a23.742,23.742,0,0,0-7.909-3.143,17.652,17.652,0,0,0-8.242.279,16.856,16.856,0,0,0-3.542,1.82,14.125,14.125,0,0,0-1.405,2.938c-.033.095.127.148.193.074l.049-.008a14.045,14.045,0,0,1,7-2.773,17.555,17.555,0,0,1,7.293,1.261,39.765,39.765,0,0,1,6.578,3.279c1.257.764,2.494,1.561,3.731,2.338a38.193,38.193,0,0,0,3.858,2.358.176.176,0,0,0,.119.078.441.441,0,0,0,.086.016c.119.049.23.111.353.152a.345.345,0,0,0,.431-.131A1.32,1.32,0,0,0,151.689,40.39Z" transform="translate(-120.927 -25.497)" fill="#a45000" opacity="0.3" style="mix-blend-mode: multiply;isolation: isolate"/>
            <path id="Path_1096" data-name="Path 1096" d="M151.689,43.389a8.509,8.509,0,0,0-1.726-3.755,29.7,29.7,0,0,0-8.5-8.871,14.139,14.139,0,0,0-13.041-1.2,12.239,12.239,0,0,0-4.495,3.521,16.357,16.357,0,0,0-3,5.132c-.033.095.127.148.193.074l.049-.008a14.045,14.045,0,0,1,7-2.773,17.555,17.555,0,0,1,7.293,1.261,39.765,39.765,0,0,1,6.578,3.279c1.257.764,2.494,1.561,3.731,2.338a38.193,38.193,0,0,0,3.858,2.358.176.176,0,0,0,.119.078.441.441,0,0,0,.086.016c.119.049.23.111.353.152a.345.345,0,0,0,.431-.131A1.32,1.32,0,0,0,151.689,43.389Zm-1.479.966c-1.249-.916-2.732-1.693-4.055-2.523s-2.634-1.672-3.973-2.473a37.362,37.362,0,0,0-7.215-3.451c-4.659-1.606-10.263-1.438-13.485,1.919.855-1.2,1.553-2.5,2.445-3.694a13.26,13.26,0,0,1,3.953-3.591,13.047,13.047,0,0,1,12.211.168c3.735,1.972,6.381,5.251,8.632,8.341a18.425,18.425,0,0,1,1.734,2.823,4.6,4.6,0,0,1,.5,1.635C151,44.043,150.682,44.244,150.21,44.355Z" transform="translate(-120.927 -28.496)" fill="#935f21"/>
            <path id="Path_1097" data-name="Path 1097" d="M142.674,36.678a20.963,20.963,0,0,0-4.006-4.466,19.237,19.237,0,0,0-5.97-3.151c-3.965-1.068-8.62.271-10.444,2.436-.062.07-.012.16.066.115A15.59,15.59,0,0,1,133.2,30.076a15.786,15.786,0,0,1,5.111,2.432,25.146,25.146,0,0,1,4.232,4.232C142.6,36.81,142.732,36.752,142.674,36.678Z" transform="translate(-116.888 -27.907)" fill="#fff"/>
          </g>
          <g id="Group_1221" data-name="Group 1221" transform="translate(111.327 33.812)">
            <path id="Path_1098" data-name="Path 1098" d="M172.99,37.064a9.669,9.669,0,0,0-.67-.867,16.793,16.793,0,0,0-7.58-7.839c-3.447-1.557-7.416-.805-10.744.567-6.882,2.814-12.141,8.443-15.818,14.619a.1.1,0,0,0,.14.131,1.948,1.948,0,0,0,.205,1.4c.731,1.307,2.8,2.063,4.224,2.161,3.492.234,6.409-3.18,8.641-5.333,5.008-4.861,12.548-11.743,19.7-6.192.612.477,1.167,1.011,1.746,1.524C172.932,37.331,173.068,37.159,172.99,37.064Z" transform="translate(-138.164 -27.49)" fill="#fff682"/>
            <g id="Group_1220" data-name="Group 1220">
              <path id="Path_1099" data-name="Path 1099" d="M172.32,33.6a18.1,18.1,0,0,0-2.178-3.439,9.227,9.227,0,0,0-1.533-.916,9.96,9.96,0,0,0-5.4-.846c-4.183.538-7.876,2.983-11.1,5.485-2.1,1.631-4.006,3.5-6.184,5.017-1.179.822-4.244,3.02-5.391,1.031-.616-1.081.148-2.531.7-3.468a42.3,42.3,0,0,0-3.057,4.483.1.1,0,0,0,.14.131,1.948,1.948,0,0,0,.205,1.4c.731,1.307,2.8,2.063,4.224,2.161,3.492.234,6.409-3.18,8.641-5.333,5.008-4.861,12.548-11.743,19.7-6.192.612.477,1.167,1.011,1.746,1.524.1.094.238-.078.16-.173A9.669,9.669,0,0,0,172.32,33.6Z" transform="translate(-138.164 -24.894)" fill="#a45000" opacity="0.3" style="mix-blend-mode: multiply;isolation: isolate"/>
              <path id="Path_1100" data-name="Path 1100" d="M172.99,37.064a9.669,9.669,0,0,0-.67-.867,16.793,16.793,0,0,0-7.58-7.839c-3.447-1.557-7.416-.805-10.744.567-6.882,2.814-12.141,8.443-15.818,14.619a.1.1,0,0,0,.14.131,1.948,1.948,0,0,0,.205,1.4c.731,1.307,2.8,2.063,4.224,2.161,3.492.234,6.409-3.18,8.641-5.333,5.008-4.861,12.548-11.743,19.7-6.192.612.477,1.167,1.011,1.746,1.524C172.932,37.331,173.068,37.159,172.99,37.064Zm-9.811-3.772c-3.39.719-6.331,2.934-8.858,5.14-2.63,2.28-4.906,5.008-7.782,7.005a5.668,5.668,0,0,1-6,.633,3.058,3.058,0,0,1-1.837-1.791,2.363,2.363,0,0,1,.3-1.57c3.71-5.243,8.2-9.963,14.154-12.811,3.336-1.606,7.252-2.51,10.88-1.224,3.127,1.122,5.025,3.714,6.89,6.249A9.723,9.723,0,0,0,163.178,33.293Z" transform="translate(-138.164 -27.49)" fill="#935f21"/>
              <path id="Path_1101" data-name="Path 1101" d="M163.157,28.779c-3.9-2.391-9.881-.4-13.419,1.615a24.8,24.8,0,0,0-5.654,4.158,60.113,60.113,0,0,0-5.321,6.155c-.045.062,1.233-1.035,1.3-1.081a28.922,28.922,0,0,0,4.425-4.018,23.484,23.484,0,0,1,5.008-4.022,25.128,25.128,0,0,1,5.941-2.683,17.5,17.5,0,0,1,3.073-.583,11.306,11.306,0,0,1,6.89,2.108C165.5,30.509,163.268,28.837,163.157,28.779Z" transform="translate(-136.302 -26.875)" fill="#fff"/>
            </g>
          </g>
          <g id="Group_1222" data-name="Group 1222" transform="translate(68.154 100.283)">
            <path id="Path_1102" data-name="Path 1102" d="M175.144,48.73l.119-.144c.99-1.393-1.307-2.847-2.473-3.517a16.377,16.377,0,0,0-3.04-1.4,7.65,7.65,0,0,1,1.738,1.323c2.169,2.362-1.849,2.136-2.864,2.157-3.612.041-19.746.251-28.51,1.689-3.258.53-6.894,2.079-10.177.986a.156.156,0,0,1-.1-.193,7.634,7.634,0,0,1,1.187-1.865,10.146,10.146,0,0,0-2.252,1.578c-.645.6-1.331,1.434-1.048,2.317.657,2.034,5.871-1.639,10.083,2.794,4.277,4.507,6.126,9.117,13.185,8.846,13.706-.518,13.078-7.4,17.967-12.577C170.353,49.26,173.209,49.317,175.144,48.73Z" transform="translate(-127.656 -43.668)" fill="#eec6ac" opacity="0.7" style="mix-blend-mode: multiply;isolation: isolate"/>
            <path id="Path_1103" data-name="Path 1103" d="M150.808,44.93c.9-.037,1.82-.07,2.716-.1-1.307,1.537-2.56,3.275-4.589,4.15a16.307,16.307,0,0,1-3.427.9c-1.2.238-2.408.468-3.632.641a18.12,18.12,0,0,1-7.055-.058c-2.256-.633-3.2-2.642-4.109-4.339,1.45-.2,2.913-.362,4.368-.485C140.294,45.172,145.562,45.123,150.808,44.93Z" transform="translate(-118.153 -40.053)" fill="#fff"/>
            <path id="Path_1104" data-name="Path 1104" d="M150.808,44.93c.9-.037,1.82-.07,2.716-.1-1.307,1.537-2.56,3.275-4.589,4.15a16.307,16.307,0,0,1-3.427.9c-1.2.238-2.408.468-3.632.641a18.12,18.12,0,0,1-7.055-.058c-2.256-.633-3.2-2.642-4.109-4.339,1.45-.2,2.913-.362,4.368-.485C140.294,45.172,145.562,45.123,150.808,44.93Z" transform="translate(-118.153 -40.053)" fill="#fff"/>
            <path id="Path_1105" data-name="Path 1105" d="M158.387,52.3a12.48,12.48,0,0,1-3.911,3.616,18.166,18.166,0,0,1-6.105,1.824,14.915,14.915,0,0,1-6.475-.255,11.538,11.538,0,0,1-4.819-3.332c-1.253-1.319-2.326-2.753-3.628-4.043a13.031,13.031,0,0,0-4.158-2.7c.916-.173,1.82-.337,2.736-.5.957-.177,1.923-.325,2.9-.456a6.717,6.717,0,0,0,3.439,4.372c1.935.99,4.708.682,6.808.5a41.864,41.864,0,0,0,4.265-.657,25.137,25.137,0,0,0,3.587-.887c2.436-.892,3.817-2.921,5.345-4.667,1.261-.045,2.523-.094,3.784-.16.809-.045,1.627-.1,2.432-.214C161.826,46.789,160.343,49.645,158.387,52.3Z" transform="translate(-122.576 -40.351)" fill="#8f1f35"/>
            <path id="Path_1106" data-name="Path 1106" d="M142.271,46.575a17.273,17.273,0,0,0-7.391,1.984,7.922,7.922,0,0,0-2.946,2.691,8.2,8.2,0,0,0,1.742.772,14.915,14.915,0,0,0,6.475.255,18.166,18.166,0,0,0,6.105-1.824,12.348,12.348,0,0,0,3.759-3.406A27.972,27.972,0,0,0,142.271,46.575Z" transform="translate(-114.357 -34.89)" fill="#e2414f"/>
            <path id="Path_1107" data-name="Path 1107" d="M172.456,45.213a4.522,4.522,0,0,0-1.952-1.282c-.053-.021-.1.058-.041.074a3.892,3.892,0,0,1,1.212,1,3.341,3.341,0,0,1,.538.69c.123.205.033.263-.086.329l-.025,0c-3.722,1.138-7.827.982-11.73,1.15-4.635.205-9.261.255-13.879.546a106.23,106.23,0,0,0-13.148,1.709c-.571.107-4.778,1.179-4.869.316-.045-.411.386-.875.637-1.183a9.053,9.053,0,0,1,1.245-1.265c.078-.07-.037-.168-.123-.107a6.154,6.154,0,0,0-2.2,2.231c-.366.85.633,1.13,1.413,1.113a18.784,18.784,0,0,0,3.118-.468c.152-.025.312-.053.464-.09a26.054,26.054,0,0,1,4.778,3.41c1.475,1.344,2.568,2.962,3.944,4.38a10.28,10.28,0,0,0,4.384,2.74,15.607,15.607,0,0,0,6.229.271,21.111,21.111,0,0,0,5.892-1.574,11.823,11.823,0,0,0,4.092-3.242,47.788,47.788,0,0,0,3.106-4.511,17.338,17.338,0,0,1,3.981-4.322,12.373,12.373,0,0,0,2.539-.711.7.7,0,0,0,.785-.366C172.887,45.78,172.632,45.435,172.456,45.213Zm-13.074,2.523c.9-.037,1.82-.07,2.716-.1-1.307,1.537-2.56,3.275-4.589,4.15a16.307,16.307,0,0,1-3.427.9c-1.2.238-2.408.468-3.632.641a18.12,18.12,0,0,1-7.055-.058c-2.256-.633-3.2-2.642-4.109-4.339,1.45-.2,2.913-.362,4.368-.485C148.868,47.979,154.135,47.929,159.382,47.736Zm3.155,7.071a12.48,12.48,0,0,1-3.911,3.616,18.166,18.166,0,0,1-6.105,1.824,14.915,14.915,0,0,1-6.475-.255,11.538,11.538,0,0,1-4.819-3.332c-1.253-1.319-2.326-2.753-3.628-4.043a13.031,13.031,0,0,0-4.158-2.7c.916-.173,1.82-.337,2.736-.5.957-.177,1.923-.325,2.9-.456a6.717,6.717,0,0,0,3.439,4.372c1.935.99,4.708.682,6.808.5a41.864,41.864,0,0,0,4.265-.657,25.137,25.137,0,0,0,3.587-.887c2.436-.892,3.817-2.921,5.345-4.667,1.261-.045,2.523-.094,3.784-.16.809-.045,1.627-.1,2.432-.214C165.976,49.3,164.493,52.153,162.537,54.807Z" transform="translate(-126.726 -42.859)" fill="#b75439"/>
            <path id="Path_1108" data-name="Path 1108" d="M137.559,47.192c.3.518-.575,1.393-1.956,1.968s-2.745.62-3.036.1.575-1.393,1.956-1.968S137.263,46.67,137.559,47.192Z" transform="translate(-112.57 -33.83)" fill="#e2414f" style="mix-blend-mode: screen;isolation: isolate"/>
            <path id="Path_1109" data-name="Path 1109" d="M135.659,46.979c.119.292-.181.629-.637.756-.472.119-.937-.016-1.056-.308s.177-.637.637-.752S135.544,46.691,135.659,46.979Z" transform="translate(-108.114 -34.46)" fill="#e2414f" style="mix-blend-mode: screen;isolation: isolate"/>
          </g>
          <g id="Group_1223" data-name="Group 1223" transform="translate(77.382 80.459)">
            <path id="Path_1110" data-name="Path 1110" d="M133.354,56.531a44.639,44.639,0,0,0,4.236,2.449,9.8,9.8,0,0,0,4.725,1.648,5.614,5.614,0,0,0,4.281-2.49,16.71,16.71,0,0,0,3.135-5.341c-3.246.505-6.5,1.167-9.8.777-1.734-.21-4.343-.44-5.621-1.783-1.549-1.631.912-3.4,1.98-4.47,1.109-1.109,2.383-2.042,2.387-3.648a14.783,14.783,0,0,0-1.331-4.828c-.657,6.3-4.721,5.941-6.307,9.454C130.223,50.1,128.053,52.812,133.354,56.531Z" transform="translate(-129.902 -38.843)" fill="#eec6ac" opacity="0.7" style="mix-blend-mode: multiply;isolation: isolate"/>
            <path id="Path_1111" data-name="Path 1111" d="M130.7,41.756a4.6,4.6,0,0,0,1.261,3.579,11.272,11.272,0,0,0,5.193,3.049c3.521.871,5.937-1.261,7.753-3.854a33.542,33.542,0,0,1-9.557.078C133.767,44.328,131.475,43.26,130.7,41.756Z" transform="translate(-127.464 -29.788)" fill="#eec6ac" opacity="0.7" style="mix-blend-mode: multiply;isolation: isolate"/>
            <path id="Path_1112" data-name="Path 1112" d="M145.028,52.632c-2.5,1.344-5.074,2.8-8.016,1.878a11.36,11.36,0,0,1-5.193-3.106c-1.98-2.3,1.06-3.944,2.732-5.169a4.874,4.874,0,0,0,2.063-2.806c.308-1.4-.288-2.9-.6-4.236-.037-.107-.189-.094-.168.012.263,1.717.805,3.722-.292,5.255-.912,1.261-2.416,1.935-3.6,2.913a2.956,2.956,0,0,0-.288,4.774,12.1,12.1,0,0,0,5.481,3c2.917.756,5.666-.8,7.946-2.383C145.159,52.714,145.094,52.6,145.028,52.632Z" transform="translate(-127.767 -37.988)" fill="#b75439"/>
            <path id="Path_1113" data-name="Path 1113" d="M134.828,39.054c-.049-.107-.218-.049-.173.066.793,2.017,1.639,4.125.234,6.073-1.1,1.533-2.917,2.334-3.833,4.01-.045.082.082.144.14.082a15.1,15.1,0,0,1,2.687-2.194,7.574,7.574,0,0,0,1.98-2.313C136.89,42.875,135.736,40.751,134.828,39.054Z" transform="translate(-126.343 -38.363)" fill="#ffd3d1" opacity="0.4" style="mix-blend-mode: screen;isolation: isolate"/>
          </g>
          <g id="Group_1226" data-name="Group 1226" transform="translate(51.288 60.592)">
            <path id="Path_1114" data-name="Path 1114" d="M140.273,47.034c-.616,6.8-4.856,12.03-9.45,11.66S123,52.515,123.629,45.707s4.856-12.047,9.446-11.681S140.886,40.217,140.273,47.034Z" transform="translate(-123.551 -34.008)" fill="#7b92a6"/>
            <path id="Path_1115" data-name="Path 1115" d="M140.273,47.034c-.616,6.8-4.856,12.03-9.45,11.66S123,52.515,123.629,45.707s4.856-12.047,9.446-11.681S140.886,40.217,140.273,47.034Z" transform="translate(-123.551 -34.008)" fill="#9f693d"/>
            <path id="Path_1116" data-name="Path 1116" d="M136.784,44.761c-.468,5.206-3.7,9.187-7.211,8.912s-5.966-4.721-5.489-9.926,3.7-9.179,7.215-8.9S137.26,39.559,136.784,44.761Z" transform="translate(-122.078 -31.443)" fill="#ff9c05" opacity="0.6"/>
            <g id="Group_1224" data-name="Group 1224" transform="translate(3.602 4.896)" style="mix-blend-mode: multiply;isolation: isolate">
              <path id="Path_1117" data-name="Path 1117" d="M134.512,43.05c-.382,4.109-2.925,7.252-5.695,7.034s-4.721-3.731-4.343-7.839,2.925-7.26,5.7-7.034S134.882,38.937,134.512,43.05Z" transform="translate(-124.428 -35.199)" fill="#5e4627"/>
            </g>
            <g id="Group_1225" data-name="Group 1225" transform="translate(0 9.747)" style="mix-blend-mode: multiply;isolation: isolate">
              <path id="Path_1118" data-name="Path 1118" d="M123.925,36.38a15.253,15.253,0,0,0-.3,1.952c-.629,6.808,2.593,12.618,7.194,12.987s8.834-4.856,9.45-11.66c.058-.637.066-1.257.062-1.869C134.99,41.093,127.619,41.372,123.925,36.38Z" transform="translate(-123.551 -36.38)" fill="#9f693d"/>
            </g>
            <path id="Path_1119" data-name="Path 1119" d="M129.3,39.528c-.382,2.1-1.828,3.587-3.242,3.328s-2.247-2.19-1.869-4.281,1.837-3.591,3.254-3.328C128.84,35.518,129.682,37.437,129.3,39.528Z" transform="translate(-121.851 -30.249)" fill="#fff"/>
            <path id="Path_1120" data-name="Path 1120" d="M126.719,39.383c-.185,1-.883,1.717-1.557,1.59s-1.068-1.044-.887-2.038.875-1.705,1.545-1.582S126.888,38.389,126.719,39.383Z" transform="translate(-121.435 -23.65)" fill="#fff"/>
          </g>
          <g id="Group_1229" data-name="Group 1229" transform="translate(121.089 58.87)">
            <path id="Path_1121" data-name="Path 1121" d="M160.32,48.513c-.415,8-5.16,14.31-10.621,14.08s-9.548-6.9-9.129-14.91,5.156-14.31,10.613-14.089S160.735,40.505,160.32,48.513Z" transform="translate(-140.54 -33.589)" fill="#7b92a6"/>
            <path id="Path_1122" data-name="Path 1122" d="M160.32,48.513c-.415,8-5.16,14.31-10.621,14.08s-9.548-6.9-9.129-14.91,5.156-14.31,10.613-14.089S160.735,40.505,160.32,48.513Z" transform="translate(-140.54 -33.589)" fill="#9f693d"/>
            <path id="Path_1123" data-name="Path 1123" d="M156.2,45.942c-.316,6.105-3.936,10.921-8.106,10.744s-7.289-5.267-6.968-11.377,3.936-10.925,8.1-10.748S156.5,39.824,156.2,45.942Z" transform="translate(-138.788 -30.582)" fill="#ff9c05" opacity="0.6"/>
            <g id="Group_1227" data-name="Group 1227" transform="translate(4.249 5.734)" style="mix-blend-mode: multiply;isolation: isolate">
              <path id="Path_1124" data-name="Path 1124" d="M153.493,43.978c-.242,4.836-3.1,8.632-6.393,8.5s-5.752-4.162-5.51-8.99,3.1-8.636,6.4-8.5S153.74,39.154,153.493,43.978Z" transform="translate(-141.574 -34.984)" fill="#5e4627"/>
            </g>
            <g id="Group_1228" data-name="Group 1228" transform="translate(0 11.798)" style="mix-blend-mode: multiply;isolation: isolate">
              <path id="Path_1125" data-name="Path 1125" d="M140.828,36.46a21.546,21.546,0,0,0-.259,2.3c-.419,8.008,3.681,14.684,9.129,14.91S159.9,47.59,160.32,39.587c.037-.74.016-1.471-.016-2.194C154.144,41.5,145.434,42.146,140.828,36.46Z" transform="translate(-140.54 -36.46)" fill="#9f693d"/>
            </g>
            <path id="Path_1126" data-name="Path 1126" d="M147.3,40c-.357,2.478-2,4.277-3.677,4.035-1.693-.255-2.769-2.457-2.416-4.934.337-2.473,1.993-4.277,3.673-4.031S147.651,37.527,147.3,40Z" transform="translate(-138.669 -29.053)" fill="#fff"/>
            <path id="Path_1127" data-name="Path 1127" d="M144.3,39.9c-.156,1.179-.941,2.038-1.746,1.919s-1.311-1.167-1.15-2.35.949-2.038,1.754-1.919S144.463,38.725,144.3,39.9Z" transform="translate(-137.938 -21.295)" fill="#fff"/>
          </g>
          <path id="Path_1128" data-name="Path 1128" d="M121.19,39.4a11.934,11.934,0,0,1,2.284.571,18.614,18.614,0,0,1,2.231.966c.4.205.8.44,1.2.686.374.267.785.509,1.159.818a13.627,13.627,0,0,1,2.038,1.927c.144.173.292.341.427.505.127.181.242.353.353.526a7.6,7.6,0,0,1,.616.978c.173.32.32.6.444.863.1.275.189.514.263.711.144.382.21.612.21.612s-.123-.2-.333-.551c-.107-.177-.234-.39-.378-.641-.164-.23-.357-.481-.551-.772a8.8,8.8,0,0,0-.686-.871,17.6,17.6,0,0,0-1.8-1.832c-.32-.316-.69-.588-1.048-.879s-.744-.538-1.109-.8c-.382-.247-.752-.505-1.118-.719-.748-.436-1.446-.842-2.083-1.138C122.073,39.734,121.19,39.4,121.19,39.4Z" transform="translate(-79.602 43.338)" fill="#b75239"/>
          <path id="Path_1129" data-name="Path 1129" d="M141.946,48.721a13.258,13.258,0,0,1,1.216-2.21,17.519,17.519,0,0,1,1.6-2.05,10.7,10.7,0,0,1,1.031-1.039c.362-.357.781-.649,1.175-.978.431-.279.85-.567,1.294-.814a10.723,10.723,0,0,1,1.356-.616,6.964,6.964,0,0,1,1.339-.374,9.5,9.5,0,0,1,1.22-.177c.386,0,.727,0,1.039,0,.312.033.579.094.789.115.448.09.686.136.686.136s-.246,0-.694.008c-.214.012-.477,0-.781.016-.288.049-.625.1-.99.148a6.462,6.462,0,0,0-1.142.275,10.451,10.451,0,0,0-1.224.456,12.331,12.331,0,0,0-1.245.641c-.411.23-.822.518-1.216.789-.386.308-.793.571-1.138.9a11.212,11.212,0,0,0-1.044.961,23.776,23.776,0,0,0-1.734,1.849c-.464.575-.875,1.048-1.122,1.4C142.09,48.516,141.946,48.721,141.946,48.721Z" transform="translate(-15.079 46.639)" fill="#b75239"/>
          <path id="Path_1130" data-name="Path 1130" d="M138.237,48.438s.045-.546.214-1.483a28.919,28.919,0,0,1,1-3.825,22.688,22.688,0,0,1,2.441-5.041,18.664,18.664,0,0,1,1.989-2.5,14.541,14.541,0,0,1,2.576-2.075,11.777,11.777,0,0,1,3.04-1.311,13.341,13.341,0,0,1,3.155-.493c.514-.021,1.023.008,1.512.033s.982.123,1.442.185a12.015,12.015,0,0,1,1.348.279,11.823,11.823,0,0,1,1.228.333c.394.131.764.251,1.113.362.353.14.674.283.978.411a15.2,15.2,0,0,1,1.561.7l1.327.686s-.505-.2-1.372-.551c-.444-.193-.986-.382-1.611-.592s-1.323-.415-2.108-.612a7.854,7.854,0,0,0-1.216-.279,11.87,11.87,0,0,0-1.315-.21,17.776,17.776,0,0,0-2.872-.111,11.978,11.978,0,0,0-2.983.509,11.622,11.622,0,0,0-2.855,1.278,14.291,14.291,0,0,0-2.461,1.939,16.584,16.584,0,0,0-1.952,2.362,25.535,25.535,0,0,0-2.58,4.836,34.219,34.219,0,0,0-1.245,3.71C138.352,47.9,138.237,48.438,138.237,48.438Z" transform="translate(-26.609 19.424)" fill="#b75239"/>
          <path id="Path_1131" data-name="Path 1131" d="M124.177,32.776a5.236,5.236,0,0,1,.941-.292,10.917,10.917,0,0,1,1.122-.21,8.219,8.219,0,0,1,1.471-.09,11.893,11.893,0,0,1,1.767.152,8.948,8.948,0,0,1,1.9.559,9.717,9.717,0,0,1,1.882.986c.3.2.567.46.855.69a5.043,5.043,0,0,1,.805.76,13.534,13.534,0,0,1,2.326,3.6,14.69,14.69,0,0,1,.711,1.832c.152.6.308,1.167.452,1.693a8.264,8.264,0,0,1,.263,1.45c.066.44.115.814.16,1.126.066.629.107.986.107.986s-.09-.353-.255-.961c-.07-.308-.168-.674-.275-1.093a14.2,14.2,0,0,0-.394-1.4c-.173-.5-.362-1.044-.563-1.619-.181-.583-.526-1.126-.785-1.734a10.538,10.538,0,0,0-1.007-1.746,10.32,10.32,0,0,0-1.265-1.631,5.025,5.025,0,0,0-.744-.707c-.267-.226-.514-.468-.8-.666a10.446,10.446,0,0,0-1.726-.974,10.3,10.3,0,0,0-1.763-.625A12.569,12.569,0,0,0,127.7,32.6a12.105,12.105,0,0,0-2.556.029A7.062,7.062,0,0,0,124.177,32.776Z" transform="translate(-70.317 20.898)" fill="#b75239"/>
          <path id="Path_1132" data-name="Path 1132" d="M121.566,40.191c-2.063.509-2.436,2.169-.329,4.252,2.046,2.017,5.062,2.938,7.116,4.943,1.36,1.319,3.632,6.43,5.769,6.368,3.587-.107,2.819-5.916,2.1-7.893C134.2,42.311,127.466,38.745,121.566,40.191Z" transform="translate(-83.84 44.803)" fill="#ffd3d1" opacity="0.4" style="mix-blend-mode: screen;isolation: isolate"/>
          <path id="Path_1133" data-name="Path 1133" d="M162.513,42.012c2.178,1.081,2.178,3.016-.74,4.8-2.827,1.738-6.459,2-9.3,3.71-1.853,1.126-5.719,6.241-8.115,5.637-4.018-1.015-1.648-7.281-.329-9.3C147.751,41.211,156.235,38.939,162.513,42.012Z" transform="translate(-14.515 47.19)" fill="#ffd3d1" opacity="0.4" style="mix-blend-mode: screen;isolation: isolate"/>
          <g id="Group_1230" data-name="Group 1230" transform="translate(112.82 55.314)" style="mix-blend-mode: multiply;isolation: isolate">
            <path id="Path_1134" data-name="Path 1134" d="M163.852,38.426c9,25.124-10.477,30.774-18.185,22.437-9.844-11.862-.008-28.115-.008-28.115l-.037-.025c-5.752,4.31-8.2,14.1-6.627,23.436,2.56,9.955,13.238,14.356,20.424,10s7.441-13.205,6.7-18.251A27.97,27.97,0,0,0,163.852,38.426Z" transform="translate(-138.527 -32.723)" fill="#cecece"/>
          </g>
          <g id="Group_1231" data-name="Group 1231" transform="translate(44.546 59.299)" style="mix-blend-mode: multiply;isolation: isolate">
            <path id="Path_1135" data-name="Path 1135" d="M145.485,48.127a21.692,21.692,0,0,0-3.279-13.267c7.038,19.824-9.072,26.628-14.532,22.672-8.332-7.663-.456-23.838-.456-23.838l-.066.045a24.775,24.775,0,0,0-2.819,3.969s-6.738,14.619,2.256,23.4C134.388,66.928,144.729,58.189,145.485,48.127Z" transform="translate(-121.91 -33.693)" fill="#cecece"/>
          </g>
          <g id="Group_1232" data-name="Group 1232" transform="translate(0 12.843)">
            <path id="Path_1136" data-name="Path 1136" d="M111.068,29.308c.542-2.247.546-2.256.546-2.256A21.5,21.5,0,0,0,111.068,29.308Z" transform="translate(-111.068 -7.881)" fill="#a45000" opacity="0.3" style="mix-blend-mode: multiply;isolation: isolate"/>
            <path id="Path_1137" data-name="Path 1137" d="M141.5,22.99c.029-.205.037-.394.066-.6C141.565,22.386,141.528,22.6,141.5,22.99Z" transform="translate(-16.469 -22.386)" fill="#a45000" opacity="0.3" style="mix-blend-mode: multiply;isolation: isolate"/>
          </g>
        </g>
        <g id="Group_1234" data-name="Group 1234" transform="translate(36.263 174.053)">
          <path id="Path_1138" data-name="Path 1138" d="M208,66.686s2.892,11.036,4.93,17.56c-12.712-.489-27.631,2.477-38.851.115s-9.191-13.012-24.368-10.974c-14.7,3.246-23.67,10-23.579,12.449-4.68,3.924-7.913,7.515-5.111,9.77a2.452,2.452,0,0,0,3.349,1.935c-.826,1.57,1.976,2.675,7.248,1.376s12.5-3.127,18.9-1.081,10.633,1.915,17.462-.74c20.486,5,38.157,10.21,54.949,6.463,12.819-3.39,9.454-19.208,1.791-41.444C224.723,62.117,214.061,59.689,208,66.686Z" transform="translate(-119.619 -61.353)" fill="#fecfa8"/>
          <path id="Path_1139" data-name="Path 1139" d="M126.661,100.072a2.936,2.936,0,0,1-2.383-1.167,1.234,1.234,0,0,1-.14-.583,3.139,3.139,0,0,1-.871.033,2.9,2.9,0,0,1-2.3-2.276,2.8,2.8,0,0,1-1.076-2.161c-.025-1.935,1.824-4.335,6.163-7.987.279-3.1,10.124-9.6,23.847-12.634a23.274,23.274,0,0,1,5.863-.144c4.774.575,7.063,2.934,9.491,5.436,2.264,2.321,4.593,4.721,9.179,5.686,1.039.222,2.153.4,3.316.538,6.011.719,12.987.271,19.726-.168,5.082-.325,10.341-.67,15.231-.509-2.013-6.512-4.758-16.977-4.791-17.084l-.053-.189.127-.14c4.815-5.551,12.47-5.3,15.543-4.934a15.051,15.051,0,0,1,1.541.238l.2.049.066.193c5.805,16.845,8.916,29.517,5.185,36.53a10.8,10.8,0,0,1-7.231,5.391,64.135,64.135,0,0,1-21.739.686h0c-8.772-1.048-17.975-3.336-27.721-5.748-1.828-.456-3.681-.92-5.559-1.372-4.811,1.849-8.308,2.428-12.042,1.984a29.593,29.593,0,0,1-5.555-1.282,18.509,18.509,0,0,0-3.468-.74c-5.259-.625-10.674.707-15.034,1.775l-.2.058A15.477,15.477,0,0,1,126.661,100.072Zm-1.265-2.9-.427.814a.579.579,0,0,0-.037.583c.193.37.871.657,1.808.772a14.264,14.264,0,0,0,5.062-.509l.214-.049c4.4-1.085,9.885-2.441,15.288-1.791a20.253,20.253,0,0,1,3.607.768,28.669,28.669,0,0,0,5.419,1.253c3.628.427,7.05-.144,11.8-1.984l.111-.041.107.029c1.911.464,3.788.933,5.658,1.393,9.729,2.42,18.916,4.7,27.643,5.74a63.665,63.665,0,0,0,21.48-.666,10.114,10.114,0,0,0,6.759-5.029c3.6-6.755.538-19.171-5.156-35.749-.242-.041-.682-.123-1.282-.2-2.925-.341-10.181-.592-14.771,4.544.4,1.487,3.016,11.381,4.881,17.355l.156.5-.518-.025c-5-.189-10.428.156-15.67.5-6.771.44-13.78.887-19.857.164-1.187-.14-2.325-.333-3.377-.551-4.807-1.019-7.223-3.5-9.553-5.9s-4.548-4.676-9.055-5.214a22.146,22.146,0,0,0-5.649.144C135.417,77.253,126.7,84,126.784,86.09v.177l-.131.119c-2.823,2.362-6.052,5.358-6.027,7.523a2.124,2.124,0,0,0,.9,1.685l.107.082.029.131c.012.066.337,1.66,1.693,1.816a2.562,2.562,0,0,0,1.167-.152Z" transform="translate(-119.894 -61.623)" fill="#b75239"/>
        </g>
        <g id="Group_1236" data-name="Group 1236" transform="translate(37.668 192.131)">
          <path id="Path_1140" data-name="Path 1140" d="M142.606,67.467a9.552,9.552,0,0,1,1.623-.284,13.981,13.981,0,0,1,1.676-.074c.616-.012,1.274.074,1.919.127a9.91,9.91,0,0,1,.978.164c.316.053.625.136.92.205.6.177,1.142.394,1.611.579a5.713,5.713,0,0,1,.588.345c.173.115.32.214.436.292.234.16.378.271.378.271s-.164-.037-.46-.094c-.279-.058-.661-.173-1.118-.275-.481-.066-1.027-.173-1.606-.275-.3-.045-.6-.062-.912-.115s-.612-.115-.929-.131q-.968-.123-1.861-.234c-.592-.074-1.15-.152-1.635-.222C143.255,67.61,142.606,67.467,142.606,67.467Z" transform="translate(-50.696 -62.65)" fill="#b75239"/>
          <g id="Group_1235" data-name="Group 1235">
            <path id="Path_1141" data-name="Path 1141" d="M121.082,77.226a.586.586,0,0,1-.041-.279,1.483,1.483,0,0,1,.308-.756,4.687,4.687,0,0,1,.867-.937c.4-.292.863-.608,1.372-.912l1.734-.871c.641-.259,1.307-.522,2.009-.789,1.372-.518,2.872-1.023,4.351-1.549.76-.242,1.479-.538,2.2-.8.7-.288,1.471-.5,2.19-.727a14.448,14.448,0,0,1,2.169-.325c.661-.07,1.3-.136,1.886-.205a11.449,11.449,0,0,0,1.57-.23,9.453,9.453,0,0,0,1.2-.275c.329-.1.592-.16.768-.222l.263-.1a7.255,7.255,0,0,1-.966.505,8.511,8.511,0,0,1-1.183.44c-.23.078-.472.168-.731.255s-.551.111-.842.173c-.575.115-1.212.242-1.878.37-.333.07-.662.136-1,.2a5.251,5.251,0,0,0-1.031.255c-.674.242-1.356.477-2.1.768-.715.284-1.454.6-2.194.846-1.5.5-2.991.994-4.409,1.442-.686.234-1.372.431-2.009.633-.62.242-1.208.477-1.75.69-.509.263-.986.505-1.4.727a4.792,4.792,0,0,0-.945.748,1.61,1.61,0,0,0-.407.653A.574.574,0,0,0,121.082,77.226Z" transform="translate(-117.734 -59.115)" fill="#b75239"/>
            <path id="Path_1142" data-name="Path 1142" d="M120.236,77.927a.986.986,0,0,1,.058-.271,2.968,2.968,0,0,1,.362-.715,7.15,7.15,0,0,1,.768-.978,9.06,9.06,0,0,1,1.175-1.105,28.8,28.8,0,0,1,3.258-2.325c.612-.382,1.282-.793,1.956-1.13.69-.337,1.344-.74,2.071-1.044s1.442-.641,2.165-.9,1.442-.518,2.149-.707a20.25,20.25,0,0,1,2.046-.522c.653-.131,1.274-.267,1.853-.357,1.146-.205,2.12-.275,2.786-.366s1.06-.107,1.06-.107-.362.107-1.027.3c-.645.16-1.59.411-2.708.715-.559.127-1.155.32-1.783.5s-1.286.436-1.968.645-1.36.534-2.063.781c-.715.263-1.381.608-2.083.908-.707.275-1.385.67-2.058,1-.7.329-1.327.661-1.964,1.027s-1.249.661-1.8,1.027a16.367,16.367,0,0,0-1.553.99,14.078,14.078,0,0,0-1.249.945,6.258,6.258,0,0,0-.879.822,3.96,3.96,0,0,0-.46.612A.762.762,0,0,0,120.236,77.927Z" transform="translate(-120.236 -61.751)" fill="#b75239"/>
            <path id="Path_1143" data-name="Path 1143" d="M121.48,72.429s.251-.177.682-.456,1.076-.678,1.865-1.109,1.713-.9,2.74-1.356c.514-.222,1.056-.436,1.6-.649s1.134-.378,1.7-.575a15.245,15.245,0,0,1,1.763-.415c.275-.058.563-.115.842-.164s.559-.107.826-.152c.546-.094,1.085-.185,1.586-.271a12.746,12.746,0,0,0,1.364-.337c.419-.107.813-.214,1.15-.3.345-.119.637-.226.875-.312s.431-.156.559-.222c.131-.049.2-.082.2-.082a5.1,5.1,0,0,1-.674.473c-.226.131-.509.3-.822.485-.325.164-.711.325-1.126.5a9.914,9.914,0,0,1-1.38.505c-.493.127-1.007.259-1.553.4s-1.105.267-1.672.4a15.51,15.51,0,0,0-1.664.436c-.559.173-1.122.308-1.66.526-.538.185-1.089.374-1.6.555-1.031.386-2.005.748-2.819,1.064Z" transform="translate(-116.369 -66.023)" fill="#b75239"/>
          </g>
        </g>
        <g id="Group_1237" data-name="Group 1237" transform="translate(36.626 174.41)">
          <path id="Path_1144" data-name="Path 1144" d="M209.406,99.658c-20.346.033-40.063-9.446-42.939-5.851-3.694,4.232-15.781,2.79-19.989,1.06s-10.222,1.491-15.5,2.58-4.967-1.578.127-3.176,8.435-2.938,11.414-3.32c3-.382,6.488-2.917,6.488-2.917-5.222.612-11.311,2.346-11.866.8s-.411-2.753,7.182-4.8c-4.191.238-8.534,1.693-8.09.016s3.78-2.991,9.963-5.456c-3.739.542-9.1,2.362-9.15.637s2.194-1.956,11.779-4.252,16.463,5.892,19.808,8.756,4.824,2.79,24.319,1.664,24.816-.489,32.175,1.615c-3.262-3.579-6.759-3.02-7.905-7.827-1.561-9.532-.916-13.637,3.9-14.22,3.307-.394,5.933,5.05,7.235,8.468-1.027-3.542-2.251-7.326-3.632-11.315,0,0-10.662-2.428-16.718,4.569,0,0,2.892,11.036,4.93,17.56-12.712-.489-27.631,2.477-38.851.115s-9.191-13.012-24.368-10.974c-14.7,3.246-23.67,10-23.579,12.449-4.68,3.924-7.913,7.515-5.111,9.77a2.452,2.452,0,0,0,3.349,1.935c-.826,1.57,1.976,2.675,7.248,1.376s12.5-3.127,18.9-1.081,10.633,1.915,17.462-.74c20.486,5,38.157,10.21,54.949,6.463,5.732-1.52,8.221-5.526,8.55-11.475C230.343,97.908,224.661,99.629,209.406,99.658Z" transform="translate(-119.982 -61.71)" fill="#eec6ac" opacity="0.7" style="mix-blend-mode: multiply;isolation: isolate"/>
        </g>
        <path id="Path_1145" data-name="Path 1145" d="M125.624,57.8a5.849,5.849,0,0,0,2.149,6.66c3.694,3.02-.029,5.074-1.779,7.124s1.081,3.985,4.072,1.516,2.749-6.689,1.1-13.4C129.507,52.98,125.653,54.484,125.624,57.8Z" transform="translate(-66.801 91.799)" fill="none"/>
        <g id="Group_1241" data-name="Group 1241" transform="translate(22.679 128.925)">
          <g id="Group_1238" data-name="Group 1238">
            <path id="Path_1146" data-name="Path 1146" d="M124.177,85.266s-9,14.923-7.285,28.411c1.611,11.266,12.8,11.985,20.252,1.8a209,209,0,0,0,13.6-21.624s5.058,3.8,13.152-2.367c8.082-6.179,7.847-10.387,10.115-16.139s5.169-9.479,3.71-10.633-3.953.263-3.953.263A25.234,25.234,0,0,1,183,58.449c6.344-2.814,7.449-4.893,6.611-7.087-.855-2.194-11.34,1.479-21.837,8.345-2.383-.53-5.986,2-5.986,2-2.276-1.5-7.527,1.43-10.309,5.284-5.321,2.445-9.507,13.016-12.33,17.113a73.733,73.733,0,0,1-4.425,5.958A50.967,50.967,0,0,0,124.177,85.266Z" transform="translate(-116.316 -50.364)" fill="#fecfa8"/>
            <path id="Path_1147" data-name="Path 1147" d="M124.732,123.23c-4.207-.5-7.174-3.953-7.926-9.22-1.717-13.472,7.239-28.5,7.33-28.658l.144-.238.271.082a51.543,51.543,0,0,1,10.362,4.659c.509-.616,1.989-2.469,4.2-5.686.777-1.126,1.648-2.724,2.646-4.581,2.6-4.795,5.834-10.756,9.746-12.609,2.51-3.439,6.849-6.052,9.5-5.74a2.885,2.885,0,0,1,1.027.3c.785-.518,3.739-2.354,5.937-1.943,8.312-5.423,17.47-9.335,20.884-8.932a1.482,1.482,0,0,1,1.356.834c1.064,2.757-.908,4.943-6.8,7.556a27.908,27.908,0,0,0-8,5.263,3.346,3.346,0,0,1,2.81.378c1.183.937.214,2.909-1.245,5.888-.735,1.487-1.574,3.192-2.358,5.165-.46,1.179-.826,2.3-1.175,3.39-1.385,4.265-2.56,7.946-9.064,12.905-4.454,3.394-8.016,3.8-10.239,3.538a8.015,8.015,0,0,1-2.991-.941,211.921,211.921,0,0,1-13.439,21.328C134,121.045,129.153,123.752,124.732,123.23Zm-.115-37.253c-1.134,1.993-8.653,15.654-7.092,27.935.723,4.988,3.377,8.127,7.289,8.587,4.158.5,8.764-2.108,12.322-6.964a211.894,211.894,0,0,0,13.559-21.583l.2-.374.333.251a6.9,6.9,0,0,0,3.008,1.023c2.087.247,5.452-.14,9.709-3.39,6.319-4.828,7.465-8.4,8.809-12.544.353-1.1.719-2.235,1.192-3.439.789-2,1.631-3.71,2.383-5.222,1.208-2.465,2.161-4.413,1.438-4.988a1.82,1.82,0,0,0-.9-.357,5.16,5.16,0,0,0-2.642.657l-1.6.912,1.126-1.45c.119-.16,3.02-3.825,9.376-6.644,6.722-2.983,7.05-4.943,6.4-6.619-.09-.247-.464-.345-.76-.378-2.823-.337-11.467,2.971-20.527,8.9l-.123.082-.152-.029c-2.231-.5-5.678,1.9-5.707,1.939l-.205.131-.21-.131a2.093,2.093,0,0,0-.916-.316c-2.408-.279-6.562,2.293-8.891,5.522l-.053.074-.094.045c-3.727,1.705-6.919,7.605-9.483,12.334-1.019,1.874-1.886,3.488-2.687,4.643a74.552,74.552,0,0,1-4.45,5.982l-.205.234-.267-.164A51.525,51.525,0,0,0,124.617,85.977Z" transform="translate(-116.588 -50.639)" fill="#b75239"/>
          </g>
          <g id="Group_1239" data-name="Group 1239" transform="translate(6.324 9.343)">
            <path id="Path_1148" data-name="Path 1148" d="M118.127,75.75s.633-1.056,1.664-2.584c.255-.386.534-.793.83-1.237.3-.427.592-.9.957-1.352.686-.92,1.463-1.878,2.223-2.843.777-.961,1.541-1.906,2.284-2.794s1.45-1.685,2.054-2.379c1.216-1.385,2.067-2.26,2.067-2.26s-.674,1.027-1.75,2.519c-.551.735-1.163,1.615-1.874,2.523-.69.916-1.446,1.878-2.206,2.839-.768.945-1.541,1.9-2.276,2.782s-1.405,1.73-1.98,2.445C118.953,74.829,118.127,75.75,118.127,75.75Z" transform="translate(-118.127 -29.946)" fill="#b75239"/>
            <path id="Path_1149" data-name="Path 1149" d="M125.145,55.205a2.012,2.012,0,0,1,.456-.316,2.972,2.972,0,0,1,.53-.214,3.784,3.784,0,0,1,.629-.127,3.068,3.068,0,0,1,.641-.016,2.581,2.581,0,0,1,.571.119,2.8,2.8,0,0,1,.522.222,5.646,5.646,0,0,1-.542.2,2.9,2.9,0,0,1-.518.1c-.193.033-.386.078-.588.107a7.824,7.824,0,0,1-1.15.016c-.16-.012-.3-.045-.4-.045C125.2,55.226,125.145,55.205,125.145,55.205Z" transform="translate(-96.311 -47.92)" fill="#b75239"/>
            <path id="Path_1150" data-name="Path 1150" d="M132.239,55.032a16.558,16.558,0,0,1,.9,2.03c.275.694.477,1.417.723,2.124.189.719.357,1.446.526,2.169l.353,2.21c.09.752.107,1.5.168,2.239a15.9,15.9,0,0,1-.045,2.256l-.062,1.118-.012.284c-.037.177-.049.2-.074.312l-.131.542c-.049.181-.082.357-.144.538l-.251.534a4.794,4.794,0,0,1-.575,1.039,7.942,7.942,0,0,1-1.574,1.7l-.982.637L130,75.23a7.991,7.991,0,0,1-2.26.444l-.292.016a1.287,1.287,0,0,1-.316-.025,2.351,2.351,0,0,1-1.171-.423l-.263-.185-.21-.23a3.567,3.567,0,0,1-.785-2.247,5.394,5.394,0,0,1,.452-2.276,6.076,6.076,0,0,1,1.233-1.931,6.766,6.766,0,0,1,1.787-1.393l.021.267a5.267,5.267,0,0,1-.892-.477c-.14-.111-.279-.193-.407-.312l-.353-.345a4.75,4.75,0,0,1-.32-.39,2.681,2.681,0,0,1-.275-.4,5.342,5.342,0,0,1-.46-.887,6.339,6.339,0,0,0,.53.83,3.157,3.157,0,0,0,.308.378c.111.119.209.247.329.357l.374.32c.115.094.263.164.394.259a4.215,4.215,0,0,0,.859.382l.247.115-.21.152a7.774,7.774,0,0,0-1.619,1.417,6.1,6.1,0,0,0-1.085,1.841,4.782,4.782,0,0,0-.316,2.071,3.063,3.063,0,0,0,.67,1.845l.152.177.2.131a1.141,1.141,0,0,0,.4.2,1.293,1.293,0,0,0,.489.1,1.115,1.115,0,0,0,.238.016l.263-.025a7.387,7.387,0,0,0,2.05-.427l.957-.448.875-.583a7.142,7.142,0,0,0,1.446-1.52,3.922,3.922,0,0,0,.522-.9l.23-.448c.057-.173.094-.362.144-.538l.136-.538.062-.222.021-.271.078-1.1a17.8,17.8,0,0,0,.074-2.194c-.033-.735-.016-1.467-.07-2.194l-.263-2.194-.423-2.169c-.193-.711-.345-1.438-.579-2.136A21.4,21.4,0,0,0,132.239,55.032Z" transform="translate(-97.698 -46.326)" fill="#b75239"/>
            <path id="Path_1151" data-name="Path 1151" d="M129.706,53.4a1.292,1.292,0,0,1,.242.16,2.691,2.691,0,0,1,.575.579,7.313,7.313,0,0,1,.69,1.1c.2.456.423.982.612,1.57.123.6.3,1.249.423,1.939.074.7.164,1.434.222,2.2.021.764-.012,1.549-.012,2.358s-.053,1.623-.111,2.42c-.152,1.623-.341,3.238-.629,4.745a15.586,15.586,0,0,1-.555,2.145,8.855,8.855,0,0,1-.781,1.837,3.883,3.883,0,0,1-1.093,1.311,3.078,3.078,0,0,1-1.183.546,4.125,4.125,0,0,1-1.113.008s.09-.008.292-.012a4.178,4.178,0,0,0,.781-.131,2.546,2.546,0,0,0,1.048-.62,4.476,4.476,0,0,0,.916-1.294,9.98,9.98,0,0,0,.629-1.8c.173-.666.3-1.372.431-2.108.259-1.479.411-3.081.534-4.684.074-.809.144-1.6.152-2.4.025-.781.066-1.561.049-2.309-.049-.744-.066-1.471-.1-2.157-.082-.678-.205-1.311-.3-1.9-.152-.575-.316-1.1-.452-1.565a9.081,9.081,0,0,0-.559-1.118,3.594,3.594,0,0,0-.5-.641A.894.894,0,0,0,129.706,53.4Z" transform="translate(-90.563 -51.399)" fill="#b75239"/>
            <path id="Path_1152" data-name="Path 1152" d="M132.586,52.913a1.265,1.265,0,0,1,.234.148,3.349,3.349,0,0,1,.579.526l.374.427c.107.168.222.366.345.567a5.875,5.875,0,0,1,.641,1.454c.041.148.094.283.148.427.021.148.045.3.07.46.058.308.115.633.168.966.029.168.049.329.078.5v.526c0,.345,0,.711-.008,1.076a11.622,11.622,0,0,1-.242,2.227,15.344,15.344,0,0,1-.436,2.268,36.41,36.41,0,0,1-1.5,4.281,17.988,17.988,0,0,1-.924,1.869,14,14,0,0,1-1.048,1.565,5.952,5.952,0,0,1-1.1,1.155,1.977,1.977,0,0,1-1.167.452.953.953,0,0,1-.678-.415c-.082-.156-.127-.234-.127-.234s.053.074.168.214a.832.832,0,0,0,.633.288,1.723,1.723,0,0,0,.99-.509,8.188,8.188,0,0,0,.957-1.183,12.18,12.18,0,0,0,.892-1.59c.292-.575.555-1.208.813-1.861a32.593,32.593,0,0,0,1.389-4.224,15.474,15.474,0,0,0,.473-2.186,11.285,11.285,0,0,0,.275-2.153c.016-.345.029-.694.049-1.031.008-.168.021-.341.029-.509-.016-.156-.029-.325-.041-.477-.033-.316-.062-.633-.095-.929-.012-.152-.033-.3-.045-.452-.037-.14-.074-.275-.119-.407a7.151,7.151,0,0,0-.477-1.442c-.1-.205-.193-.4-.279-.579-.107-.164-.21-.312-.316-.452a4.107,4.107,0,0,0-.489-.579A1.511,1.511,0,0,0,132.586,52.913Z" transform="translate(-87.457 -52.913)" fill="#b75239"/>
            <path id="Path_1153" data-name="Path 1153" d="M129.547,59.939a6.417,6.417,0,0,1,.357-1.175,7.166,7.166,0,0,1,.534-1.146,11.48,11.48,0,0,1,.789-1.212,14.058,14.058,0,0,1,.99-1.081c.37-.283.715-.559,1.027-.756a11.244,11.244,0,0,1,1.154-.444s-.366.349-.908.789c-.234.259-.505.571-.818.875-.144.156-.271.353-.419.522-.156.185-.316.353-.456.538-.267.378-.571.74-.822,1.113s-.5.707-.707.994C129.843,59.553,129.547,59.939,129.547,59.939Z" transform="translate(-82.626 -49.145)" fill="#b75239"/>
          </g>
          <g id="Group_1240" data-name="Group 1240" transform="translate(0.359 0.366)">
            <path id="Path_1154" data-name="Path 1154" d="M125.624,57.8a5.849,5.849,0,0,0,2.149,6.66c3.694,3.02-.029,5.074-1.779,7.124s1.081,3.985,4.072,1.516,2.749-6.689,1.1-13.4C129.507,52.98,125.653,54.484,125.624,57.8Z" transform="translate(-89.839 -37.491)" fill="none"/>
            <path id="Path_1155" data-name="Path 1155" d="M189.607,51.361c-.842-2.161-11.032,1.385-21.386,8.057,2.506,3.447,1.845,7.223,1.019,11.751-.949,5.16-4.729,6.845-3.71,2.03s.3-9.158-1.113-11.348a3.278,3.278,0,0,1-.505-1.356,14.8,14.8,0,0,0-2.128,1.212c-.045-.025-.074-.041-.119-.062a9.136,9.136,0,0,1,1.849,4.133c1.1,5.736-.275,15.444-1.73,15.5s-.809-1.668-1.027-8.312-2.334-7.683-5.436-7.942a1.8,1.8,0,0,1-1.409-.674,15.722,15.722,0,0,0-2.436,2.642c-5.321,2.445-9.507,13.016-12.33,17.113a73.733,73.733,0,0,1-4.425,5.958,50.967,50.967,0,0,0-10.543-4.795,63.286,63.286,0,0,0-5.822,13.822l.021.008s3.8-11.356,8.357-10.567-.205,5.875-3.287,11.171-5.695,6.7-5.8,3.492a1.239,1.239,0,0,0-.156-.571,34.169,34.169,0,0,0-.6,11.056c1.348,9.409,9.372,11.455,16.324,5.945-.185.111-.37.226-.559.366-8.225,5.908-14.54-.09-5.571-12.314,8.969-12.207,15.473-19.228,19.853-16.237s-3.874,15.194-3.874,15.194l-.025.218c4.54-7.1,7.708-13,7.708-13s5.058,3.8,13.152-2.367c8.082-6.179,7.847-10.387,10.115-16.139s5.169-9.479,3.71-10.633a1.843,1.843,0,0,0-.485-.275c.144.805-.016,2.05-1.368,3.677-2.539,3.069-2.9,6.118-5.066,11.574s-7.367,11.188-12.067,11.3c-4.717.111-.641-3.106.152-4.187s3.16-1.138,4.655-3.821c1.282-2.375,3.427-2.116,4.787-6.5.982-3.168,2.979-8.936,6.7-12.018a6.886,6.886,0,0,0-1.261.518,15.666,15.666,0,0,1,1.693-1.734A3.351,3.351,0,0,1,173.32,61.6c-1.142-2.371,2.482-4.528,4.1-5.2,2.379-1.007,4.77-2.564,7.059-3.747,1.335-.7,3.71-1.964,5.226-.982C189.673,51.562,189.64,51.463,189.607,51.361ZM156.9,86.342c-2.991,2.469-5.83.534-4.072-1.516s5.473-4.1,1.779-7.124a5.849,5.849,0,0,1-2.149-6.66c.029-3.32,3.883-4.824,5.538,1.9C159.651,79.653,159.893,83.864,156.9,86.342Z" transform="translate(-116.675 -50.728)" fill="#eec6ac" opacity="0.7" style="mix-blend-mode: multiply;isolation: isolate"/>
          </g>
        </g>
      </g>
    </g>
    <g id="Group_1254" data-name="Group 1254" transform="translate(109.53 5.031)">
      <path id="Path_1156" data-name="Path 1156" d="M263.728,54.623S246,17.378,198.988,19.432s-76.9,19.081-82.9,38.161a79.253,79.253,0,0,1,7.067,17.2,56.058,56.058,0,0,1,8.587-17.659c-2.568,7.893.333,10.867.333,10.867s8.912-11.73,21.271-19.45a63.32,63.32,0,0,0-3.743,6.779s9.672-4.433,19.348-8.858l-5.444,4.6s16.311.3,31.111-8.76l-1.3,5.423s13.189-3.677,18.809-12.523a23.093,23.093,0,0,0,12.527,16.266l-3.25-6.307s15.74,10.625,24.648,15.514a14.15,14.15,0,0,1,5.021,7.375s2.876-2.276,3.546-5.152c2.013,6.677,2.716,14.742,2.95,20,.078-.961.136-1.528.136-1.528A145.565,145.565,0,0,1,263.728,54.623Z" transform="translate(-89.133 39.48)" fill="#eec6ac" style="mix-blend-mode: multiply;isolation: isolate"/>
      <g id="Group_1244" data-name="Group 1244">
        <path id="Path_1157" data-name="Path 1157" d="M142.3,115.475S145,99.365,160.848,87.68a52.945,52.945,0,0,0-9.249,21.6s13.957-16.085,27.1-20.769c-4.363,5.222-4.273,8.883-4.273,8.883S189.5,87.7,199.494,84.713c-5.518,5.871-13.953,9.3-13.953,9.3s23.945,1.286,38.851-18.337c-3.706,8.69-9.47,12.182-9.47,12.182s7.33,1.4,19.076-14.163c-.945,10.321,8.435,19.265,8.435,19.265s-3.213-4.561-1.75-16.907c0,0-1.524,8.431,9.265,16.755s14.171,9.257,16.246,12.112a27.135,27.135,0,0,0-.756-9.479s5.834,9.565,5.777,16.854c3.944-3.957,3.579-14.442,3.579-14.442s4.281,6.771,3.032,17.322l2.634-4.121s-2.293,11.816-3.443,24.553c8.48-5.259,24.34-6.5,22.437-20.638,1.155,5.358,4.565,3.669,4.885-8.115,2.108,3.381,7.778-23.428-6.393-42.508,7.383,4.014,12.445.436,12.445.436s-6.615-1.479-15-15c-8.4-13.53-24.262-30.371-39.41-29.048,1.664-5.017,5.612-5.239,5.612-5.239S253.7,12.82,250.3,20.413c2.112-8.8-3.238-11.866-3.238-11.866a25.789,25.789,0,0,1-1.413,8.879c-9.425-10.867-28.555-21.139-64.608-.041-24.368,12.749-37.972,19.13-55.323,29.931S106.556,73.558,113.126,84.43a38.885,38.885,0,0,1,7.363-10.95s-11.007,11.562-5.748,27.491l1.393-5.744s-5.078,15.744,5.391,29.866c-2.432-6.557-2.276-7.917-2.276-7.917s3.648,17.474,24.516,25.174C143.764,142.349,147.605,128.844,142.3,115.475Z" transform="translate(-109.269 -4.753)" fill="#fff682"/>
        <path id="Path_1158" data-name="Path 1158" d="M144.259,143.109l-.362-.14c-12.856-4.745-19.257-13.275-22.281-19.138.152.436.329.9.505,1.409l.9,2.412-1.528-2.067a34.875,34.875,0,0,1-6.594-23.456l-.246-.76a27.824,27.824,0,0,1,1.27-20.691,35.8,35.8,0,0,0-2.206,4.183l-.288.641-.349-.6c-6.5-10.744-5.07-26.53,12.712-37.611,13.012-8.11,23.847-13.69,38.818-21.406,4.889-2.5,10.415-5.362,16.517-8.554C197.2,7.926,211.456,3.879,223.478,5.313a34.657,34.657,0,0,1,22.293,11.669,26,26,0,0,0,1.191-8.139l-.037-.661.579.329c.049.025,4.68,2.777,3.8,10.12a8.981,8.981,0,0,1,8.76-3.6,9.383,9.383,0,0,1,1.906.4l1.759.592-1.857.123c-.144,0-3.468.263-5.1,4.466a20.8,20.8,0,0,1,3.669.115c13.891,1.656,27.811,16.735,35.519,29.139,8.18,13.2,14.7,14.828,14.775,14.845l.8.185-.674.472a10.935,10.935,0,0,1-7.231,1.442,14.9,14.9,0,0,1-4.273-1.208c11.455,16.6,8.747,37.734,6.635,41.395-.325.559-.661.826-1.048.793-.205,5.4-1.085,9.162-2.461,10.35a1.363,1.363,0,0,1-1.064.374,1.666,1.666,0,0,1-1.175-.855c-.111,8.879-8.1,12.125-15.2,15a51.71,51.71,0,0,0-7.56,3.538l-.625.382.062-.727c.875-9.684,2.424-18.924,3.106-22.75L277.535,117l.193-1.586a29.48,29.48,0,0,0-2.309-15.785c-.062,3.09-.547,10.054-3.69,13.209l-.637.637,0-.9c.045-5.058-2.831-11.315-4.528-14.532a26.085,26.085,0,0,1,.247,7.2l-.119.924-.547-.76c-1.048-1.454-2.531-2.428-5.206-4.211-2.477-1.643-5.871-3.895-10.954-7.819-5.925-4.569-8.2-9.15-9.031-12.441-.284,8.64,2,12.051,2.03,12.084L245.057,96l-2.617-2.49c-.086-.09-8.784-8.5-8.612-18.37C223.051,89,216,88.6,215.211,88.517l-.094-.021-.937-.173.814-.5a25.72,25.72,0,0,0,7.979-9.224c-14.914,17.034-36.966,16.069-37.192,16.057l-1.635-.09,1.52-.616a47.179,47.179,0,0,0,12.761-8.143c-9.774,3.365-23.395,12.071-23.538,12.157l-.542.357-.025-.649c0-.14-.045-3.369,3.517-8.073-12.54,5.144-25.564,20.042-25.7,20.194l-.809.941.181-1.233a53.837,53.837,0,0,1,7.905-19.775,47.86,47.86,0,0,0-16.476,25.987c5.243,13.3,1.479,26.883,1.446,27.006Zm-24.845-27.926.46,2.19c.033.168,3.809,17.158,23.9,24.767.563-2.284,3.147-14.4-1.545-26.25l-.045-.1.016-.094a48.6,48.6,0,0,1,18.7-28.029l1.968-1.446-1.454,1.96a53.516,53.516,0,0,0-8.957,20.173c3.266-3.558,15.177-15.913,26.386-19.915l1.257-.456-.867,1.039c-3.114,3.727-3.9,6.656-4.1,7.934,2.966-1.853,15.748-9.692,24.52-12.314l1.307-.39-.941.994c-4.072,4.335-9.787,7.379-12.515,8.682,5.69-.156,24.524-1.939,36.863-18.189l1.787-2.35-1.155,2.716a28.963,28.963,0,0,1-8.64,11.652c2.49-.275,8.751-2.252,17.614-14l.777-1.031-.119,1.282c-.69,7.465,4.207,14.286,6.8,17.314-.818-2.4-1.734-7.013-.879-14.606a3.317,3.317,0,0,1,.049-.448l.715.115-.049.411c-.152,1.96.049,8.969,9.179,16.007,5.054,3.911,8.447,6.159,10.917,7.8a24.432,24.432,0,0,1,4.819,3.685,27.374,27.374,0,0,0-.826-8.46l-.756-2.625,1.422,2.326c.226.382,5.407,8.953,5.8,16.106,3.164-4.228,2.876-13.382,2.872-13.476l-.045-1.348.719,1.142c.045.058,3.932,6.336,3.242,16.032l2.843-4.454-.37,1.882c-.012.119-2.206,11.5-3.357,23.8a58.835,58.835,0,0,1,7.05-3.217c7.843-3.188,15.958-6.479,14.586-16.689l.723-.127c.4,1.861,1.023,2.568,1.418,2.613a.633.633,0,0,0,.505-.2c.974-.83,2.063-4.022,2.243-10.457l.029-1.216.641,1.031c.057.082.082.119.1.123,0,0,.3-.127.719-1.261,1.935-5.2,3.751-25.367-7.823-40.955l-.982-1.331,1.459.793a15.112,15.112,0,0,0,5.329,1.779,11,11,0,0,0,6.044-.937c-2.038-.83-7.634-3.973-14.421-14.89-7.617-12.277-21.353-27.183-34.985-28.806a20.6,20.6,0,0,0-4.08-.074l-.559.053.181-.526a7.73,7.73,0,0,1,4.388-5.107c-2.354-.337-7.009-.271-9.38,5.037l-.69-.238c1.627-6.767-1.233-10-2.506-11.048a26.985,26.985,0,0,1-1.438,8.271l-.214.6-.407-.472A34.032,34.032,0,0,0,223.392,6.036c-11.858-1.409-25.967,2.609-41.912,11.94-6.114,3.209-11.648,6.052-16.533,8.567-14.972,7.708-25.782,13.279-38.765,21.365-12.342,7.691-20.987,21.747-12.835,36.008a39.6,39.6,0,0,1,7.149-10.428l.518.526c-.094.111-10.206,10.974-6.052,25.852l.518-2.161c.288-1.442.551-2.28.559-2.313a.392.392,0,0,1,.095.049l.608.181s-.185.571-.4,1.582c-.033.205-.086.423-.148.678-.838,4.248-1.96,14.771,4.289,24.907-1.409-4.187-1.339-5.255-1.327-5.378Z" transform="translate(-109.53 -5.031)" fill="#935f21"/>
      </g>
      <g id="Group_1245" data-name="Group 1245" transform="translate(10.512 24.046)">
        <path id="Path_1159" data-name="Path 1159" d="M130.677,31.612a53.813,53.813,0,0,1,4.3-4.195c1.5-1.331,3.069-2.588,4.684-3.768.809-.592,1.635-1.175,2.469-1.717.838-.563,1.689-1.089,2.552-1.606s1.75-.982,2.65-1.442c.908-.44,1.8-.883,2.74-1.265.929-.4,1.874-.731,2.823-1.076.961-.3,1.927-.616,2.917-.834a14.866,14.866,0,0,1,1.471-.316c.5-.086.994-.193,1.5-.234l1.508-.16,1.52-.058c.505-.021,1.011.021,1.516.037a11.365,11.365,0,0,1,1.508.127,24.137,24.137,0,0,1,3.008.534,23.275,23.275,0,0,1,2.864.974,27.392,27.392,0,0,1,2.716,1.352l-.382.341-.382-.826c-.127-.283-.3-.538-.436-.8a6.536,6.536,0,0,0-.522-.76,6.05,6.05,0,0,0-.559-.715c-.214-.218-.4-.464-.62-.666s-.456-.415-.694-.6a12.522,12.522,0,0,0-1.524-1.027,13.486,13.486,0,0,0-1.672-.777,17.857,17.857,0,0,0-1.758-.555,34.027,34.027,0,0,0-3.661-.69,30.762,30.762,0,0,1,3.706.505,17.127,17.127,0,0,1,1.8.5,13.165,13.165,0,0,1,1.746.727,9.968,9.968,0,0,1,1.6,1c.259.189.493.4.731.612a9.431,9.431,0,0,1,.67.674,8.916,8.916,0,0,1,.616.731,5.748,5.748,0,0,1,.542.781,6.085,6.085,0,0,1,.485.822l.423.855.349.69-.727-.345a23.989,23.989,0,0,0-2.683-1.245,24.845,24.845,0,0,0-2.8-.937,26.352,26.352,0,0,0-2.917-.493,11.687,11.687,0,0,0-1.459-.115c-.5,0-.986-.045-1.479-.012l-1.475.062-1.471.168c-.489.045-.97.164-1.459.238s-.97.181-1.446.3c-.97.205-1.911.505-2.86.793-.933.325-1.869.653-2.777,1.044-.924.357-1.82.8-2.716,1.22-.887.444-1.763.916-2.634,1.4s-1.722.978-2.56,1.516-1.672,1.081-2.494,1.648c-1.639,1.126-3.221,2.35-4.778,3.6S132.111,30.211,130.677,31.612Z" transform="translate(-54.305 -10.884)" fill="#935f21"/>
        <path id="Path_1160" data-name="Path 1160" d="M141.909,13.347a17.787,17.787,0,0,1,1.886-.542c.6-.127,1.335-.3,2.2-.427.423-.049.879-.123,1.36-.189.489-.033.99-.07,1.533-.107a15.8,15.8,0,0,1,1.672-.053c.571.008,1.171-.012,1.771.016a33.124,33.124,0,0,1,3.846.4c.653.119,1.335.21,2.013.357.662.173,1.339.345,2.013.522.345.086.694.168,1.035.271l1,.362c.666.242,1.348.481,2.013.711,1.3.575,2.593,1.224,3.846,1.845,1.2.735,2.387,1.434,3.521,2.157,1.072.809,2.1,1.6,3.069,2.334.957.777,1.758,1.619,2.552,2.321a19.218,19.218,0,0,1,2.042,2.079c.571.657,1.064,1.228,1.467,1.693.813.949,1.274,1.491,1.274,1.491l-1.376-1.393c-.431-.44-.957-.982-1.561-1.594a21.552,21.552,0,0,0-2.12-1.968c-.813-.67-1.639-1.479-2.6-2.21q-1.479-1.06-3.1-2.231c-1.109-.69-2.293-1.368-3.48-2.071-1.249-.608-2.515-1.216-3.8-1.775-.657-.238-1.319-.485-1.976-.723l-.978-.362c-.333-.1-.67-.185-1.007-.283-.666-.173-1.327-.349-1.976-.534-.661-.152-1.331-.247-1.976-.374-1.294-.267-2.564-.341-3.768-.493-.6-.041-1.183-.049-1.75-.07a14.756,14.756,0,0,0-1.648-.012c-.53.012-1.044.033-1.52.049-.477.037-.933.074-1.352.111-.867.066-1.615.2-2.219.283C142.6,13.15,141.909,13.347,141.909,13.347Z" transform="translate(-19.389 -7.332)" fill="#935f21"/>
        <path id="Path_1161" data-name="Path 1161" d="M128.72,21.119a38.939,38.939,0,0,0-5.144,4.865q-1.177,1.325-2.247,2.732c-.723.937-1.38,1.915-2,2.9a32.13,32.13,0,0,0-1.705,3.077,30.482,30.482,0,0,0-1.372,3.254c-.214.538-.374,1.105-.538,1.676l-.251.83-.189.863c-.123.571-.251,1.138-.329,1.726s-.193,1.155-.214,1.738-.09,1.167-.095,1.754l.025,1.75a24.176,24.176,0,0,0,.436,3.484,30,30,0,0,0,.814,3.41,34.484,34.484,0,0,0,1.245,3.283c.238.53.468,1.072.723,1.6l.842,1.553c.526,1.048,1.224,2,1.832,3,.653.978,1.393,1.9,2.067,2.851l2.256,2.728-.46.205c-.045-.731-.053-1.446-.029-2.178,0-.711.066-1.434.127-2.153.037-.357.045-.719.107-1.072l.16-1.068.156-1.064c.058-.362.164-.707.238-1.056l.263-1.044c.086-.349.144-.7.255-1.048l.686-2.038a8.21,8.21,0,0,1,.37-1.011l.44-.978.892-1.96-.814,1.984-.407,1a10.419,10.419,0,0,0-.32,1.015l-.592,2.058c-.111.333-.156.694-.238,1.044l-.2,1.048A19.937,19.937,0,0,0,125.166,64l-.14,1.052c-.049.353-.045.711-.078,1.068-.049.707-.095,1.413-.082,2.124-.012.711.021,1.426.074,2.124l.07.809-.526-.616-2.334-2.7c-.711-.953-1.45-1.886-2.124-2.88-.625-1.011-1.344-1.96-1.89-3.036l-.859-1.565c-.267-.534-.5-1.093-.756-1.635a35.453,35.453,0,0,1-1.294-3.349,27.714,27.714,0,0,1-.846-3.492,29.011,29.011,0,0,1-.415-3.579l-.008-1.8c.008-.6.074-1.2.111-1.8a17.05,17.05,0,0,1,.23-1.783c.074-.6.218-1.179.349-1.767l.205-.879.259-.859c.164-.571.337-1.15.559-1.705a32.9,32.9,0,0,1,3.266-6.36,32.735,32.735,0,0,1,2.087-2.9c.731-.945,1.533-1.82,2.342-2.683A39.655,39.655,0,0,1,128.72,21.119Z" transform="translate(-106.279 20.933)" fill="#935f21"/>
        <path id="Path_1162" data-name="Path 1162" d="M131.9,23.793a39.955,39.955,0,0,0-4.511,4.031A41.75,41.75,0,0,0,123.4,32.54a32.487,32.487,0,0,0-1.894,2.909,29.133,29.133,0,0,0-1.611,3.2,24.758,24.758,0,0,0-1.2,3.369c-.181.559-.283,1.134-.431,1.7-.1.579-.2,1.134-.279,1.685-.049.563-.1,1.109-.156,1.652-.012.542-.058,1.068-.066,1.582.025.522.045,1.027.053,1.512.053.489.1.953.148,1.4.107.9.255,1.722.411,2.436.177.715.3,1.352.468,1.857.316,1.007.5,1.594.5,1.594s-.234-.571-.629-1.553c-.205-.489-.37-1.118-.6-1.837a21.794,21.794,0,0,1-.555-2.432c-.066-.452-.136-.933-.2-1.422-.037-.5-.082-1.015-.111-1.537s-.008-1.064-.008-1.627.082-1.126.123-1.7c.074-.571.173-1.146.271-1.738.136-.579.238-1.171.4-1.75a25.95,25.95,0,0,1,1.2-3.476,30.513,30.513,0,0,1,1.68-3.262c.633-1.023,1.286-2.021,1.976-2.938a36.644,36.644,0,0,1,4.195-4.63A31.483,31.483,0,0,1,131.9,23.793Z" transform="translate(-96.11 29.246)" fill="#935f21"/>
        <path id="Path_1163" data-name="Path 1163" d="M151.553,20.175a15.992,15.992,0,0,1,2.835,2.1c.427.415.863.818,1.261,1.265a15.056,15.056,0,0,1,1.113,1.385,14.59,14.59,0,0,1,.994,1.483,17.711,17.711,0,0,1,.855,1.574c.238.546.505,1.085.715,1.652l.526,1.713c.16.583.23,1.179.353,1.763.045.3.123.6.148.892l.057.892c.029.6.107,1.2.082,1.8l-.095,1.8a9.109,9.109,0,0,1-.222,1.771l-.312,1.767c-.123.583-.333,1.146-.485,1.722l-.493,1.722-.592,2.013-.058-2.141c-.008-.637.033-1.274-.025-1.915s-.1-1.274-.209-1.906c-.082-.645-.247-1.261-.378-1.89-.2-.612-.349-1.241-.6-1.841-.21-.6-.481-1.183-.735-1.779-.3-.579-.579-1.155-.908-1.713a19.843,19.843,0,0,0-2.272-3.155,16.887,16.887,0,0,1,2.49,3.016q.542.814,1.015,1.68a19.01,19.01,0,0,1,.834,1.787c.259.608.448,1.241.666,1.861a17.488,17.488,0,0,1,.46,1.927c.058.333.14.649.168.982l.107.986c.066.661.029,1.327.045,1.984l-.637-.111.468-1.689c.152-.567.337-1.118.456-1.689l.279-1.726a13.584,13.584,0,0,0,.222-1.726l.119-1.738c.016-.579-.053-1.163-.066-1.742l-.049-.867c-.029-.283-.095-.571-.14-.855-.107-.575-.16-1.15-.312-1.717l-.485-1.664c-.189-.555-.427-1.089-.637-1.623a16.224,16.224,0,0,0-.777-1.561,13.655,13.655,0,0,0-.912-1.483c-.3-.505-.7-.933-1.044-1.409-.362-.456-.76-.883-1.159-1.315A18.613,18.613,0,0,0,151.553,20.175Z" transform="translate(10.591 17.998)" fill="#935f21"/>
        <path id="Path_1164" data-name="Path 1164" d="M158.064,23.583s.177.514.386,1.442c.1.456.21,1.031.333,1.676.1.653.246,1.393.312,2.2.1.809.16,1.693.2,2.63.07.929.029,1.915.012,2.942-.07,1.011-.1,2.075-.246,3.135s-.271,2.153-.518,3.209l-.366,1.6c-.152.518-.316,1.035-.473,1.553a25.735,25.735,0,0,1-1.081,2.958,18.239,18.239,0,0,1-1.278,2.654c-.218.411-.435.805-.653,1.2-.238.366-.472.719-.7,1.06-.452.678-.851,1.315-1.27,1.824s-.8.945-1.1,1.307c-.633.715-.982,1.122-.982,1.122s.3-.44.867-1.212c.279-.382.612-.842,1-1.372.366-.546.7-1.208,1.138-1.886.205-.337.427-.7.649-1.068.181-.4.378-.8.579-1.22a28.259,28.259,0,0,0,1.163-2.646,26.513,26.513,0,0,0,1.015-2.921c.144-.5.292-1.011.436-1.524l.341-1.574c.259-1.031.4-2.1.559-3.143s.2-2.083.292-3.086c.008-1.007.1-1.976.078-2.9,0-.929-.021-1.8-.07-2.6s-.14-1.549-.177-2.2c-.07-.653-.131-1.22-.21-1.693C158.171,24.113,158.064,23.583,158.064,23.583Z" transform="translate(7.777 28.593)" fill="#935f21"/>
        <path id="Path_1165" data-name="Path 1165" d="M145.707,24.049s.2.164.518.489c.3.316.768.764,1.257,1.352.518.571,1.072,1.278,1.664,2.03.288.382.571.8.842,1.208.288.423.592.842.85,1.278.5.9,1.064,1.758,1.454,2.642.21.427.394.859.567,1.265a10.4,10.4,0,0,1,.473,1.155c.472,1.467.727,2.453.727,2.453s-.477-.916-1.109-2.293a10.952,10.952,0,0,0-.563-1.081c-.21-.386-.448-.781-.666-1.2-.2-.423-.477-.834-.727-1.253-.259-.436-.518-.867-.772-1.3s-.551-.85-.813-1.265c-.279-.415-.518-.846-.789-1.228-.538-.781-1.007-1.545-1.459-2.153-.44-.629-.781-1.163-1.056-1.512C145.851,24.263,145.707,24.049,145.707,24.049Z" transform="translate(-7.583 30.041)" fill="#935f21"/>
        <path id="Path_1166" data-name="Path 1166" d="M149.412,24.322s.337.92.715,2.362c.189.711.394,1.553.583,2.453.205.9.353,1.882.522,2.856.107.982.242,1.96.308,2.888s.078,1.787.09,2.523c-.049,1.487-.136,2.473-.136,2.473s-.14-.986-.263-2.441c-.09-.74-.234-1.586-.333-2.494-.127-.9-.263-1.882-.394-2.847-.279-1.943-.567-3.883-.776-5.329-.1-.731-.177-1.348-.238-1.775S149.412,24.322,149.412,24.322Z" transform="translate(3.935 30.89)" fill="#935f21"/>
        <path id="Path_1167" data-name="Path 1167" d="M155.539,26.153s.2.164.526.489a14.918,14.918,0,0,1,1.241,1.442,20.6,20.6,0,0,1,1.483,2.252,19.608,19.608,0,0,1,1.3,2.814c.2.489.333,1.007.5,1.5a13.46,13.46,0,0,1,.349,1.487,12.034,12.034,0,0,1,.23,1.405c.07.44.086.875.111,1.265a13.15,13.15,0,0,1,0,1.911c-.029.456-.053.711-.053.711s-.025-.255-.09-.711c-.029-.222-.057-.5-.094-.814s-.119-.666-.173-1.048a9.694,9.694,0,0,0-.218-1.228c-.115-.436-.189-.887-.325-1.348s-.246-.957-.415-1.43a13.567,13.567,0,0,0-.51-1.45,25.992,25.992,0,0,0-1.171-2.765c-.44-.867-.846-1.664-1.257-2.325A24.468,24.468,0,0,0,155.539,26.153Z" transform="translate(22.982 36.582)" fill="#935f21"/>
        <path id="Path_1168" data-name="Path 1168" d="M155.075,30.076a13.04,13.04,0,0,1,.937,1.278,17.918,17.918,0,0,1,1.594,3.114,14.014,14.014,0,0,1,.563,1.8,10.24,10.24,0,0,1,.238,1.627,3.852,3.852,0,0,1-.016.666,2.659,2.659,0,0,1-.053.509c-.058.267-.09.427-.09.427s-.029-.16-.053-.436a3.049,3.049,0,0,0-.07-.485c-.053-.185-.074-.4-.14-.625a26.123,26.123,0,0,0-1.064-3.221c-.444-1.159-.92-2.313-1.274-3.184S155.075,30.076,155.075,30.076Z" transform="translate(21.539 48.777)" fill="#935f21"/>
        <path id="Path_1169" data-name="Path 1169" d="M112.089,28.337a22.386,22.386,0,0,1,1.467-1.726,34.592,34.592,0,0,1,3.677-3.353c.735-.53,1.438-1.105,2.173-1.537.731-.448,1.389-.879,2.009-1.179,1.228-.592,2.067-.929,2.067-.929s-.744.546-1.861,1.286c-.275.177-.563.419-.879.637s-.633.46-.966.715c-.69.477-1.376,1.052-2.1,1.582-.362.263-.694.563-1.044.834s-.686.538-1.011.8c-.653.53-1.257,1.031-1.783,1.454C112.788,27.778,112.089,28.337,112.089,28.337Z" transform="translate(-112.089 16.254)" fill="#935f21"/>
      </g>
      <g id="Group_1246" data-name="Group 1246" transform="translate(0.345 0.382)">
        <path id="Path_1170" data-name="Path 1170" d="M111.068,29.308c.542-2.247.546-2.256.546-2.256A21.5,21.5,0,0,0,111.068,29.308Z" transform="translate(-105.096 63.041)" fill="none"/>
        <path id="Path_1171" data-name="Path 1171" d="M141.5,22.99c.029-.205.037-.394.066-.6C141.565,22.386,141.528,22.6,141.5,22.99Z" transform="translate(-10.496 48.536)" fill="none"/>
        <path id="Path_1172" data-name="Path 1172" d="M306.976,66.058C299.21,64.55,291.219,59.271,285.29,49.5c-10.489-16.34-32.52-17.979-32.52-17.979s12.692.522,10.777-2.658-10.132-2.847-10.132-2.847c18.92-7.913,34.919,19.906,44.727,30.913,3.916,4.4,7.309,6.22,9.968,6.829-2.642-1.545-7.309-5.247-12.72-13.978-8.4-13.53-24.262-30.371-39.41-29.048,1.664-5.017,5.612-5.239,5.612-5.239S253.7,12.81,250.3,20.4c2.112-8.8-3.238-11.866-3.238-11.866a25.789,25.789,0,0,1-1.413,8.879c-7.523-8.682-21.262-16.969-44.871-9.2l.477.107S240.062.8,245.777,27.071c0,0-20.067-15.51-43.338,4.359,11.923-6.787,28.37-2.206,31.612.814-8.636-4.318-27.409,2.309-39.784,18.542,17.626-13.649,39.139-18.624,46.156-11.558-3.948.185-6.759,7.4-6.319,14.668s-.378,17.01-6.582,22.511a31.746,31.746,0,0,0,.538-23.888s-2.683,22.643-22.6,30.77c11.562-12.075,12.9-23.395,12.9-23.395s-11.64,18.292-32.565,26.628c4.951-5.97,18.111-20.478,24.319-25.975-17.692,11.348-38.946,25.215-46.3,32.208,2.477-9.873,12.01-18.575,12.01-18.575S152.659,87.5,145.9,100.468c3.147-12.753,11.307-20.962,18.76-25.979-11.927,4.158-28.547,12.018-30.408,30.5-2.814-17.729.826-29.106,18.3-41.452,0,0-24.225,8.6-31.846,26.053,1.257-18.871,14.121-28.169,23.115-32.347-17.795,6.742-20.28,8.415-23.69,12.273,2.141-12.535,3.118-18,19.853-26.829s34.135-20.543,49.953-29.808c.505-.3.974-.6,1.38-.9-3.266,1.512-6.677,3.291-10.272,5.395-24.368,12.749-37.972,19.13-55.323,29.931S106.556,73.548,113.126,84.42a38.885,38.885,0,0,1,7.363-10.95s-11.007,11.562-5.748,27.491c.374-1.537.645-2.658.846-3.488a21.5,21.5,0,0,1,.546-2.256s0,.008-.546,2.256c-.966,4.848-2.141,16.71,5.937,27.61-2.432-6.557-2.276-7.917-2.276-7.917s3.648,17.474,24.516,25.174c0,0,3.842-13.505-1.467-26.875,0,0,2.708-16.11,18.551-27.795a52.945,52.945,0,0,0-9.249,21.6S165.556,93.179,178.7,88.5c-4.363,5.222-4.273,8.883-4.273,8.883S189.5,87.69,199.494,84.7c-5.518,5.871-13.953,9.3-13.953,9.3s23.945,1.286,38.851-18.337c-3.706,8.69-9.47,12.182-9.47,12.182s7.33,1.4,19.076-14.163c-.945,10.321,8.435,19.265,8.435,19.265s-3.086-4.421-1.816-16.3c.029-.386.066-.6.066-.6-.029.21-.037.4-.066.6-.107,2.071.259,9.142,9.331,16.151,10.8,8.332,14.171,9.257,16.246,12.112a27.135,27.135,0,0,0-.756-9.479s5.834,9.565,5.777,16.854c3.944-3.957,3.579-14.442,3.579-14.442s4.281,6.771,3.032,17.322l2.634-4.121s-2.293,11.816-3.443,24.553c8.48-5.259,24.34-6.5,22.437-20.638,1.155,5.358,4.565,3.669,4.885-8.115,2.108,3.381,7.778-23.428-6.393-42.508A13.508,13.508,0,0,0,306.976,66.058Zm-16.862,20.1S288.2,77.4,280.972,72.27c2.206,6.167,3.246,11.217.045,27.232.813-17.947-9.836-27.409-9.836-27.409s2.412,12.749-1.459,23.436c-1.915-8.756-8.341-12.47-15.974-22.565.452,7.272,3.916,13.912,8.4,22.98C233.024,74.1,244.142,54.763,244.142,54.763s-6.545,2.831-6.3,17.293c-5.625-24.294,4.413-34.578,8.336-31.813s10.884,1.952,4.893-2.7c-2.8-3.948,14.019-1.664,21.739,9.138,8.986,12.552,10.5,10.765,15.633,14.335C301.832,69.5,290.114,86.153,290.114,86.153Z" transform="translate(-109.614 -5.124)" fill="#a45000" opacity="0.3" style="mix-blend-mode: multiply;isolation: isolate"/>
      </g>
      <g id="Group_1247" data-name="Group 1247" transform="translate(0.364 30.997)">
        <path id="Path_1173" data-name="Path 1173" d="M194.894,56.589c.51,1.167.929,2.235,1.3,3.242,2.662-5.239,6.274-15.785-3.5-21.973-5.132-3.57-6.648-1.783-15.633-14.335-7.72-10.8-24.541-13.086-21.739-9.138,5.99,4.647-.974,5.46-4.893,2.7S136.465,24.6,142.09,48.893c-.247-14.462,6.3-17.293,6.3-17.293S137.271,50.939,166.4,72.781c-4.487-9.068-7.95-15.707-8.4-22.98,7.634,10.095,14.06,13.809,15.974,22.565,3.87-10.687,1.459-23.436,1.459-23.436s10.65,9.462,9.836,27.409c3.2-16.016,2.161-21.065-.045-27.232,7.231,5.128,9.142,13.883,9.142,13.883s.172-.251.444-.686A21.353,21.353,0,0,0,194.894,56.589Z" transform="translate(-13.88 -12.576)" fill="none"/>
        <path id="Path_1174" data-name="Path 1174" d="M111.068,29.308c.542-2.247.546-2.256.546-2.256A21.5,21.5,0,0,0,111.068,29.308Z" transform="translate(-105.115 32.426)" fill="none"/>
        <path id="Path_1175" data-name="Path 1175" d="M153.744,23.288a21.353,21.353,0,0,1-.09,5.715c.341-.551.855-1.4,1.389-2.473C154.673,25.523,154.254,24.455,153.744,23.288Z" transform="translate(27.27 20.725)" fill="none"/>
        <path id="Path_1176" data-name="Path 1176" d="M141.5,22.99c.029-.205.037-.394.066-.6C141.565,22.386,141.528,22.6,141.5,22.99Z" transform="translate(-10.515 17.921)" fill="none"/>
        <path id="Path_1177" data-name="Path 1177" d="M170.252,29.969c2.65,9.725-3.258,15.19-3.258,15.19.583-7.215,1.2-10.756-1.705-18.579-.534,1.072-1.048,1.923-1.389,2.473a43.228,43.228,0,0,1-1.767,7.589s1.229-5.436-3.7-13.37c3.459,13.365-.629,24.763-4.766,32.08-.505,2.74-2.317,12.946-3.307,23.834,8.48-5.259,24.34-6.5,22.437-20.638,1.155,5.358,4.565,3.669,4.885-8.115.477.772,1.159-.058,1.734-2.009C178.075,32.138,168.111,22.138,170.252,29.969Z" transform="translate(17.024 20.675)" fill="#a45000" opacity="0.3" style="mix-blend-mode: multiply;isolation: isolate"/>
        <path id="Path_1178" data-name="Path 1178" d="M140.828,56.683a65.737,65.737,0,0,0-2.658,14.964c-5.366-1.824-11.484-10.769-11.484-10.769a80.929,80.929,0,0,1-.008,8.357C118.218,57.9,121.329,44,121.329,44l-3.821,7.42c-2.63-15.075,6.582-30.712,6.582-30.712s-8.2,2.962-11.422,9.462a24.7,24.7,0,0,1-3.049-5.867,23.806,23.806,0,0,0,3.492,11.656,38.885,38.885,0,0,1,7.363-10.95S109.467,36.575,114.726,52.5c.374-1.537.645-2.658.846-3.488a21.5,21.5,0,0,1,.546-2.256s0,.008-.546,2.256c-.966,4.848-2.141,16.71,5.937,27.61-2.432-6.557-2.276-7.917-2.276-7.917s3.648,17.474,24.516,25.174c0,0,3.842-13.505-1.467-26.875,0,0,.16-.9.579-2.4C141.215,62.078,140.183,59.633,140.828,56.683Z" transform="translate(-109.619 12.717)" fill="#a45000" opacity="0.3" style="mix-blend-mode: multiply;isolation: isolate"/>
      </g>
      <g id="Group_1250" data-name="Group 1250" transform="translate(22.899 128.36)">
        <g id="Group_1248" data-name="Group 1248">
          <path id="Path_1179" data-name="Path 1179" d="M126.843,50.262c.152-3.632.822-7.4.234-11a5.374,5.374,0,0,0-2.387-2.165c-3.8-1.635-8.632-1.134-9.446,6.644s6.927,14.754,11.028,13.571a1.609,1.609,0,0,0,.366-.7C126.658,54.49,126.752,52.378,126.843,50.262Z" transform="translate(-114.849 -36.078)" fill="#fecfa8"/>
          <path id="Path_1180" data-name="Path 1180" d="M127.1,50.457c.107-1.841.214-3.673.349-5.5l.041-2.753-.279-2.732.021.049a6.279,6.279,0,0,0-1.561-1.615,5.628,5.628,0,0,0-.978-.5,8.439,8.439,0,0,0-1.081-.345,7.486,7.486,0,0,0-2.21-.259,5.456,5.456,0,0,0-2.1.526A4.981,4.981,0,0,0,117.64,38.7a8.575,8.575,0,0,0-.6.916c-.148.341-.337.657-.452,1.011a12.987,12.987,0,0,0-.563,2.173l-.152,1.113-.066,1.138a7.013,7.013,0,0,0,.058,1.109,5.162,5.162,0,0,0,.144,1.105,12.738,12.738,0,0,0,.612,2.169,17.458,17.458,0,0,0,.974,2.038,9.444,9.444,0,0,0,.608.961,6.556,6.556,0,0,0,.666.912,14.515,14.515,0,0,0,1.537,1.672,13.87,13.87,0,0,0,1.8,1.389,8.45,8.45,0,0,0,2.063.933,4.371,4.371,0,0,0,2.239.111l-.012.008a.8.8,0,0,0,.2-.308c.058-.115.09-.247.152-.366l-.012.016Zm0,0-.156,6.344v.012h-.008a2.982,2.982,0,0,1-.144.378.806.806,0,0,1-.238.357v0h-.008a4.55,4.55,0,0,1-2.313-.021,9,9,0,0,1-2.165-.875,13.794,13.794,0,0,1-3.554-3.012,7.9,7.9,0,0,1-.731-.92,10.1,10.1,0,0,1-.666-.97c-.193-.337-.411-.661-.583-1.019l-.5-1.072a14.39,14.39,0,0,1-.674-2.268,7,7,0,0,1-.189-1.192,8.233,8.233,0,0,1-.057-1.183c.012-.4.008-.748.033-1.183l.164-1.163a14.279,14.279,0,0,1,.629-2.3,11.5,11.5,0,0,1,.518-1.093,7.272,7.272,0,0,1,.682-1,5.513,5.513,0,0,1,1.89-1.516,5.954,5.954,0,0,1,2.358-.5,8.273,8.273,0,0,1,2.35.362,7.682,7.682,0,0,1,1.093.407,5.963,5.963,0,0,1,1.048.583,6.236,6.236,0,0,1,1.557,1.758l.025.025.008.029.164,2.757-.1,2.765C127.369,46.788,127.233,48.616,127.1,50.457Z" transform="translate(-115.104 -36.273)" fill="#b75239"/>
        </g>
        <g id="Group_1249" data-name="Group 1249" transform="translate(3.812 0.262)" opacity="0.7" style="mix-blend-mode: multiply;isolation: isolate">
          <path id="Path_1181" data-name="Path 1181" d="M124.213,50.258c.152-3.632.822-7.4.234-11a5.374,5.374,0,0,0-2.387-2.165,6.91,6.91,0,0,0-5.99-.123,5.425,5.425,0,0,1,5.169,1.541c3.92,4.215.793,5.563-1.98,4.454s-4.787,1.13-1.6,5.559c2.264,3.164,2.86,7.35.3,6.915,1.972,1.557,4.1,2.321,5.682,1.869a1.609,1.609,0,0,0,.366-.7C124.028,54.486,124.123,52.374,124.213,50.258Z" transform="translate(-116.032 -36.337)" fill="#eec6ac" style="mix-blend-mode: multiply;isolation: isolate"/>
        </g>
        <path id="Path_1182" data-name="Path 1182" d="M122.965,44.754a11.265,11.265,0,0,0-3.3-5.842c-.9-.777-3.427-1.076-3.229.953,0,.058.086.086.1.016.32-1.38,2.034-.974,2.728-.275a12.028,12.028,0,0,1,1.812,2.243c.127.218.267.464.394.7-.095.123-.386.14-.522.2-.21.107-.353.3-.575.39a6.179,6.179,0,0,0-.694.362c-.164.086-.263.107-.341.288l.053-.115c.021-.025-.029-.066-.045-.037l-.1.119c-.033.021,0,.078.012.09a1.307,1.307,0,0,0,.974.062,2.55,2.55,0,0,0,.883-.16,1.723,1.723,0,0,0,.682-.575,25.162,25.162,0,0,1,1.113,2.506C122.932,45.375,122.948,45.054,122.965,44.754Z" transform="translate(-110.996 -29.905)" fill="#b75239"/>
      </g>
      <g id="Group_1253" data-name="Group 1253" transform="translate(166.325 125.432)">
        <g id="Group_1251" data-name="Group 1251">
          <path id="Path_1183" data-name="Path 1183" d="M150.77,49.514c.4-3.858.263-7.934,1.438-11.656a5.649,5.649,0,0,1,2.843-1.89c4.277-1.13,9.3.168,8.961,8.513s-9.561,14.458-13.706,12.564a1.578,1.578,0,0,1-.279-.793C150.322,54.009,150.544,51.765,150.77,49.514Z" transform="translate(-149.968 -35.381)" fill="#fecfa8"/>
          <path id="Path_1184" data-name="Path 1184" d="M150.813,49.693c.193-1.952.242-3.916.386-5.867l.131-1.475.173-1.459.263-1.459L152.128,38v-.025l.025-.025a6.947,6.947,0,0,1,1.923-1.6,6.432,6.432,0,0,1,1.192-.448,9.574,9.574,0,0,1,1.22-.251,8.623,8.623,0,0,1,2.519,0,6.263,6.263,0,0,1,2.408.9,6.14,6.14,0,0,1,1.763,1.886,11.56,11.56,0,0,1,.567,1.155c.111.407.284.805.362,1.224a14.025,14.025,0,0,1,.308,2.51l.008,1.257c-.037.464-.086.826-.136,1.253a10.239,10.239,0,0,1-.247,1.245,6.739,6.739,0,0,1-.378,1.216,15.115,15.115,0,0,1-1.048,2.284l-.69,1.064c-.23.353-.518.653-.772.982a11.362,11.362,0,0,1-.846.924,9.973,9.973,0,0,1-.912.855,14.6,14.6,0,0,1-2,1.491,14.341,14.341,0,0,1-2.215,1.118,8.869,8.869,0,0,1-2.424.592,4.883,4.883,0,0,1-2.436-.345h-.008v0a.876.876,0,0,1-.193-.411c-.041-.14-.066-.288-.107-.415l.012-.008v-.016Zm0,0-.694,6.738v-.016a2.327,2.327,0,0,0,.107.411.871.871,0,0,0,.152.353l-.012-.008a4.653,4.653,0,0,0,2.375.247,8.6,8.6,0,0,0,2.326-.657,13.973,13.973,0,0,0,2.132-1.175,15.11,15.11,0,0,0,1.878-1.52,8.882,8.882,0,0,0,.85-.863,8.345,8.345,0,0,0,.789-.92,19.764,19.764,0,0,0,1.348-2,15.006,15.006,0,0,0,.978-2.2,5.305,5.305,0,0,0,.316-1.142,5.731,5.731,0,0,0,.226-1.171c.037-.4.094-.846.115-1.2V43.357a13.1,13.1,0,0,0-.271-2.379c-.07-.39-.21-.76-.316-1.138a9.711,9.711,0,0,0-.5-1.068,5.436,5.436,0,0,0-1.545-1.705,5.621,5.621,0,0,0-2.145-.887,7.829,7.829,0,0,0-2.379-.086,9.643,9.643,0,0,0-1.187.193,6.779,6.779,0,0,0-1.122.374,6.681,6.681,0,0,0-1.886,1.463l.021-.041-.4,1.4-.3,1.434c-.177.974-.283,1.939-.378,2.917C151.113,45.777,151.031,47.741,150.813,49.693Z" transform="translate(-150.012 -35.56)" fill="#b75239"/>
        </g>
        <g id="Group_1252" data-name="Group 1252" transform="translate(0.058 0.242)" opacity="0.7" style="mix-blend-mode: multiply;isolation: isolate">
          <path id="Path_1185" data-name="Path 1185" d="M150.77,49.51c.4-3.858.263-7.934,1.438-11.656a5.649,5.649,0,0,1,2.843-1.89,7.4,7.4,0,0,1,6.352.818,5.759,5.759,0,0,0-5.69.805c-4.778,3.825-1.7,5.74,1.405,5.013s4.873,1.956.846,6.13c-2.884,2.975-4.15,7.3-1.372,7.239-2.33,1.335-4.688,1.808-6.286,1.072a1.578,1.578,0,0,1-.279-.793C150.322,54,150.544,51.762,150.77,49.51Z" transform="translate(-150.026 -35.619)" fill="#eec6ac" style="mix-blend-mode: multiply;isolation: isolate"/>
        </g>
        <path id="Path_1186" data-name="Path 1186" d="M150.269,43.721a11.791,11.791,0,0,1,4.376-5.629c1.06-.686,3.768-.6,3.258,1.508-.016.066-.1.086-.107.008-.131-1.5-2.009-1.364-2.843-.74a12.5,12.5,0,0,0-2.247,2.087c-.189.222-.353.448-.534.682.09.148.394.21.522.3.214.148.325.37.555.489a7.282,7.282,0,0,1,.67.5c.168.119.255.156.32.357a.657.657,0,0,1-.041-.127.032.032,0,0,1,.053-.033,1,1,0,0,0,.1.144.086.086,0,0,1-.045.09,1.4,1.4,0,0,1-1.035-.09c-.284-.1-.657-.1-.9-.312a1.844,1.844,0,0,1-.641-.711c-.555.789-1.085,1.623-1.561,2.469C150.2,44.382,150.236,44.045,150.269,43.721Z" transform="translate(-149.533 -28.881)" fill="#b75239"/>
      </g>
      <path id="Path_1187" data-name="Path 1187" d="M210.385,8.095c-20.49-4.663-32.668.271-48.33,10.489-6.726,4.4-14.647,11.927-22.039,15.206-4.528,2-16.373,7-12.963,8.965,3.5,2,9.2-1.113,13-1.68,4.483-.67,5.937-.033,1.742,3.5-4.971,4.2-11.467,6.3-16.595,10.354-4.261,3.373-7.515,7.659-10.67,12.047C126.548,54.473,144.905,55,158.3,44.629a29.76,29.76,0,0,1-9.59,13.559c-7.991,6.336-19.138,11.981-24.389,26.225,8.9-15.913,22.889-15.309,39.3-39.094,6.327-9.175,12.823-19.216,22.511-24.422-5.428.924-10.547,4.988-14.914,8.2-4.347,3.213-9.343,9.343-15.025,9.635.571-8.382,22.08-23.37,41.912-27.138-21.78,1.45-34.2,15.37-40.955,16.357,4.54-8.024,15.707-12.675,23.978-15.744,10.161-3.755,25.835-7.778,39.92,2.617C221.03,14.829,216.346,9.459,210.385,8.095Z" transform="translate(-93.976 -1.001)" fill="#fff" opacity="0.6"/>
      <path id="Path_1188" data-name="Path 1188" d="M173.982,13.139s-.727,6.147,3.957,2.441,5.062-1.368,2.514.957c-2.576,2.313-3.521,4.828-1.635,10.954s-.107,14.754-1.779,17.827c2.227-10.555-3.328-24.34-3.328-24.34s-.99,16.611-11.032,26.9c7.178-10.958,5.271-19.713,5.271-19.713s-6.081,12.729-18.32,19.471c10.646-9.881,13.563-20.683,13.563-20.683s-26.727,13.209-36.263,21.92C131.137,38.214,153.266,16.911,173.982,13.139Z" transform="translate(-55.441 20.172)" fill="#fff" opacity="0.6"/>
      <path id="Path_1189" data-name="Path 1189" d="M144.9,18.066s3.985,5.062,7.133.53c3.151-4.552,4.129-1.808,7.49.23s4.3-.472,1.06-3.48S165,13.9,167.67,21.764s18.666,10.752,19.323,24.611A31.549,31.549,0,0,0,170.18,30.926a40.226,40.226,0,0,1,7.1,22.819c-4.7-12.7-16.636-27.9-16.636-27.9a59.839,59.839,0,0,1,3.842,28.346c-.226-9.212-11.882-26.665-11.882-26.665s-8.739,13.057-2.436,28.892c-6.1-9.253-6.644-18.5-5.276-24.57S139.649,15.47,144.9,18.066Z" transform="translate(-5.98 22.591)" fill="#fff" opacity="0.6"/>
      <path id="Path_1190" data-name="Path 1190" d="M149.3,12.283a57.452,57.452,0,0,1,16.287,17.034C171.856,39.905,165.283,18.125,149.3,12.283Z" transform="translate(14.112 17.511)" fill="#fff" opacity="0.6"/>
    </g>
  </g>
</svg>
