<?xml version="1.0" encoding="iso-8859-1"?>
<!-- Generator: Adobe Illustrator 19.0.0, SVG Export Plug-In . SVG Version: 6.00 Build 0)  -->
<svg version="1.1" id="Capa_1" xmlns="http://www.w3.org/2000/svg" xmlns:xlink="http://www.w3.org/1999/xlink" x="0px" y="0px"
	 viewBox="0 0 496.485 496.485" style="enable-background:new 0 0 496.485 496.485;" xml:space="preserve">
<circle style="fill:#E1E6E9;" cx="248.242" cy="248.242" r="248.242"/>
<rect x="56.63" y="188.509" style="fill:#FFFFFF;" width="383.224" height="245.139"/>
<path style="fill:#193651;" d="M439.855,441.406H56.63c-4.655,0-7.758-3.103-7.758-7.758V188.509c0-4.655,3.103-7.758,7.758-7.758
	h383.224c4.655,0,7.758,3.103,7.758,7.758v245.139C447.612,438.303,444.509,441.406,439.855,441.406z M64.388,425.891h367.709
	V196.267H64.388V425.891z"/>
<rect x="85.411" y="218.081" style="fill:#2EA2DB;" width="325.042" height="186.958"/>
<rect x="241.261" y="263.758" style="fill:#193651;" width="14.739" height="15.515"/>
<g>
	<rect x="241.261" y="303.321" style="fill:#193651;" width="14.739" height="15.515"/>
	<rect x="241.261" y="342.885" style="fill:#193651;" width="14.739" height="15.515"/>
</g>
<path style="fill:#FFFFFF;" d="M128,139.636v185.406c0,22.497,17.842,40.339,40.339,40.339s40.339-17.842,40.339-40.339V139.636H128
	z"/>
<path style="fill:#193651;" d="M168.339,372.364c-26.376,0-48.097-21.721-48.097-48.097v-184.63c0-4.655,3.103-7.758,7.758-7.758
	h80.679c4.655,0,7.758,3.103,7.758,7.758v185.406C216.436,350.642,194.715,372.364,168.339,372.364z M135.758,147.394v177.648
	c0,17.842,14.739,32.582,32.582,32.582s32.582-14.739,32.582-32.582V147.394H135.758z"/>
<rect x="115.588" y="100.073" style="fill:#FFFFFF;" width="105.503" height="39.564"/>
<path style="fill:#193651;" d="M221.091,147.394H115.588c-4.655,0-7.758-3.103-7.758-7.758v-39.564c0-4.655,3.103-7.758,7.758-7.758
	h105.503c4.655,0,7.758,3.103,7.758,7.758v39.564C228.848,143.515,224.97,147.394,221.091,147.394z M123.345,131.879h89.988V107.83
	h-89.988V131.879z"/>
<path style="fill:#FFFFFF;" d="M287.806,139.636v185.406c0,22.497,17.842,40.339,40.339,40.339s40.339-17.842,40.339-40.339V139.636
	H287.806z"/>
<path style="fill:#193651;" d="M328.145,372.364c-26.376,0-48.097-21.721-48.097-48.097v-184.63c0-4.655,3.103-7.758,7.758-7.758
	h80.679c4.655,0,7.758,3.103,7.758,7.758v185.406C376.242,350.642,354.521,372.364,328.145,372.364z M295.564,147.394v177.648
	c0,17.842,14.739,32.582,32.582,32.582c17.842,0,32.582-14.739,32.582-32.582V147.394H295.564z"/>
<path style="fill:#F16051;" d="M128,238.933v85.333c0,22.497,17.842,40.339,40.339,40.339s40.339-17.842,40.339-40.339v-85.333H128z
	"/>
<path style="fill:#193651;" d="M168.339,372.364c-26.376,0-48.097-21.721-48.097-48.097v-85.333c0-4.655,3.103-7.758,7.758-7.758
	c4.655,0,7.758,3.103,7.758,7.758v85.333c0,17.842,14.739,32.582,32.582,32.582s32.582-14.739,32.582-32.582v-85.333
	c0-4.655,3.103-7.758,7.758-7.758c4.655,0,7.758,3.103,7.758,7.758v85.333C216.436,350.642,194.715,372.364,168.339,372.364z"/>
<path style="fill:#FDBF5E;" d="M287.806,238.933v85.333c0,22.497,17.842,40.339,40.339,40.339s40.339-17.842,40.339-40.339v-85.333
	H287.806z"/>
<path style="fill:#193651;" d="M328.145,372.364c-26.376,0-48.097-21.721-48.097-48.097v-85.333c0-4.655,3.103-7.758,7.758-7.758
	s7.758,3.103,7.758,7.758v85.333c0,17.842,14.739,32.582,32.582,32.582c17.842,0,32.582-14.739,32.582-32.582v-85.333
	c0-4.655,3.103-7.758,7.758-7.758s7.758,3.103,7.758,7.758v85.333C376.242,350.642,354.521,372.364,328.145,372.364z"/>
<rect x="275.394" y="100.073" style="fill:#FFFFFF;" width="105.503" height="39.564"/>
<path style="fill:#193651;" d="M380.897,147.394H275.394c-4.655,0-7.758-3.103-7.758-7.758v-39.564c0-4.655,3.103-7.758,7.758-7.758
	h105.503c4.655,0,7.758,3.103,7.758,7.758v39.564C388.655,143.515,385.552,147.394,380.897,147.394z M283.152,131.879h89.988V107.83
	h-89.988V131.879z"/>
<rect x="21.721" y="433.648" style="fill:#FFFFFF;" width="453.042" height="41.115"/>
<path style="fill:#193651;" d="M474.764,482.521H21.721c-4.655,0-7.758-3.103-7.758-7.758v-41.115c0-4.655,3.103-7.758,7.758-7.758
	h453.042c4.655,0,7.758,3.103,7.758,7.758v41.115C482.521,479.418,479.418,482.521,474.764,482.521z M29.479,467.006h437.527v-25.6
	H29.479V467.006z"/>
<circle style="fill:#FDBF5E;" cx="328.145" cy="41.115" r="19.394"/>
<path style="fill:#193651;" d="M328.145,67.491c-14.739,0-27.151-12.412-27.151-27.152s12.412-27.152,27.151-27.152
	c14.739,0,27.152,12.412,27.152,27.152C355.297,55.855,342.885,67.491,328.145,67.491z M328.145,29.479
	c-6.206,0-11.636,5.43-11.636,11.636s5.43,11.636,11.636,11.636s11.636-5.43,11.636-11.636S334.352,29.479,328.145,29.479z"/>
<circle style="fill:#FDBF5E;" cx="425.115" cy="71.37" r="23.273"/>
<path style="fill:#193651;" d="M425.115,101.624c-17.067,0-31.03-13.964-31.03-31.03s13.964-31.03,31.03-31.03
	c17.067,0,31.03,13.964,31.03,31.03S442.182,101.624,425.115,101.624z M425.115,55.855c-8.533,0-15.515,6.982-15.515,15.515
	s6.982,15.515,15.515,15.515c8.533,0,15.515-6.982,15.515-15.515S433.648,55.855,425.115,55.855z"/>
<circle style="fill:#F16051;" cx="166.012" cy="41.115" r="19.394"/>
<path style="fill:#193651;" d="M166.012,67.491c-14.739,0-27.152-12.412-27.152-27.152s12.412-27.152,27.152-27.152
	c14.739,0,27.152,12.412,27.152,27.152C192.388,55.855,180.752,67.491,166.012,67.491z M166.012,29.479
	c-6.206,0-11.636,5.43-11.636,11.636s5.43,11.636,11.636,11.636c6.206,0,11.636-5.43,11.636-11.636S172.218,29.479,166.012,29.479z"
	/>
<circle style="fill:#F16051;" cx="69.042" cy="71.37" r="23.273"/>
<path style="fill:#193651;" d="M69.042,101.624c-17.067,0-31.03-13.964-31.03-31.03s13.964-31.03,31.03-31.03
	s31.03,13.964,31.03,31.03S86.109,101.624,69.042,101.624z M69.042,55.855c-8.533,0-15.515,6.982-15.515,15.515
	s6.982,15.515,15.515,15.515s15.515-6.982,15.515-15.515C83.782,62.836,77.576,55.855,69.042,55.855z"/>
<g>
</g>
<g>
</g>
<g>
</g>
<g>
</g>
<g>
</g>
<g>
</g>
<g>
</g>
<g>
</g>
<g>
</g>
<g>
</g>
<g>
</g>
<g>
</g>
<g>
</g>
<g>
</g>
<g>
</g>
</svg>
