<svg xmlns="http://www.w3.org/2000/svg" xmlns:xlink="http://www.w3.org/1999/xlink" width="643.32" height="98.583" viewBox="0 0 643.32 98.583">
  <defs>
    <clipPath id="clip-path">
      <circle id="Ellipse_209" data-name="Ellipse 209" cx="37.075" cy="37.075" r="37.075" fill="none"/>
    </clipPath>
    <radialGradient id="radial-gradient" cx="-3.679" cy="5.008" r="0.001" gradientTransform="translate(-0.097) scale(1.195 1)" gradientUnits="objectBoundingBox">
      <stop offset="0" stop-color="#fff"/>
      <stop offset="1" stop-color="#6a6868"/>
    </radialGradient>
  </defs>
  <g id="Group_1061" data-name="Group 1061" transform="translate(-2632.02 -7038.881)">
    <g id="Group_1022" data-name="Group 1022" transform="translate(2740.972 7046.317)">
      <text id="DEHRI_DESTINY_SCHOOL" data-name="DEHRI DESTINY SCHOOL" transform="translate(0.369 35.925)" fill="#f73c3c" font-size="37" font-family="Merriweather-Regular, Merriweather" letter-spacing="0.093em"><tspan x="0" y="0">DEHRI DESTINY SCHOOL</tspan></text>
      <text id="Nurturing_the_future" data-name="Nurturing the future" transform="translate(5.369 78.925)" font-size="37" font-family="Staccato222BT-Regular, Staccato222 BT" letter-spacing="0.093em"><tspan x="0" y="0">Nurturing the future</tspan></text>
    </g>
    <g id="Group_1060" data-name="Group 1060" transform="translate(2633 7040)">
      <circle id="Ellipse_207" data-name="Ellipse 207" cx="48" cy="48" r="48" transform="translate(0.341 0.243)" fill="#c4c4c4"/>
      <g id="Path_243" data-name="Path 243" transform="translate(10.895 10.756)">
        <path id="Path_796" data-name="Path 796" d="M467.93,390.965a37.632,37.632,0,0,1-3.787-.191,37.149,37.149,0,0,1-3.677-.561c-1.193-.244-2.387-.551-3.549-.913s-2.293-.776-3.4-1.245-2.188-.989-3.237-1.56-2.069-1.19-3.053-1.855a37.247,37.247,0,0,1-10-10c-.665-.984-1.289-2.011-1.855-3.053s-1.1-2.139-1.56-3.237-.888-2.253-1.245-3.4-.668-2.356-.913-3.549a37.145,37.145,0,0,1-.561-3.677,37.646,37.646,0,0,1,0-7.574,37.145,37.145,0,0,1,.561-3.677c.244-1.193.551-2.387.913-3.549s.776-2.293,1.245-3.4.989-2.188,1.56-3.237,1.19-2.069,1.855-3.053a37.246,37.246,0,0,1,10-10c.984-.665,2.011-1.289,3.053-1.855s2.139-1.1,3.237-1.56,2.253-.888,3.4-1.245,2.356-.668,3.549-.913a37.167,37.167,0,0,1,3.677-.561,37.652,37.652,0,0,1,7.574,0,37.163,37.163,0,0,1,3.677.561c1.193.244,2.387.551,3.549.913s2.293.776,3.4,1.245,2.188.989,3.238,1.56,2.069,1.19,3.053,1.855a37.247,37.247,0,0,1,10,10c.665.984,1.289,2.011,1.855,3.053s1.1,2.139,1.56,3.237.888,2.253,1.245,3.4.668,2.356.913,3.549a37.145,37.145,0,0,1,.561,3.677,37.646,37.646,0,0,1,0,7.574,37.145,37.145,0,0,1-.561,3.677c-.244,1.193-.551,2.387-.913,3.549s-.776,2.293-1.245,3.4-.989,2.188-1.56,3.237-1.19,2.069-1.855,3.053a37.248,37.248,0,0,1-10,10c-.984.665-2.011,1.289-3.053,1.855s-2.139,1.1-3.238,1.56-2.253.888-3.4,1.245-2.356.668-3.549.913a37.145,37.145,0,0,1-3.677.561A37.632,37.632,0,0,1,467.93,390.965Z" transform="translate(-430.512 -316.512)" fill="#c90202"/>
        <path id="Path_797" data-name="Path 797" d="M467.424,316.77a36.654,36.654,0,1,0,36.654,36.654,36.7,36.7,0,0,0-36.654-36.654m0-.763a37.417,37.417,0,1,1-37.417,37.417A37.417,37.417,0,0,1,467.424,316.007Z" transform="translate(-430.007 -316.007)" fill="#c90202"/>
      </g>
      <circle id="Ellipse_208" data-name="Ellipse 208" cx="47.792" cy="47.792" r="47.792" transform="translate(0.521 0.381)" fill="none" stroke="#000" stroke-width="3"/>
      <g id="Group_1024" data-name="Group 1024" transform="translate(10.755 11.098)">
        <g id="Group_1023" data-name="Group 1023" transform="translate(0 0)" clip-path="url(#clip-path)">
          <path id="Path_242" data-name="Path 242" d="M454.333,343.2c.238.34,31.876,3.942,52.809,0-.238.1,4.282,40.78-25.453,63.379C481.451,406.814,452.191,383.773,454.333,343.2Z" transform="translate(-443.666 -331.845)" stroke="#000" stroke-miterlimit="10" stroke-width="3" fill="url(#radial-gradient)"/>
        </g>
      </g>
      <circle id="Ellipse_210" data-name="Ellipse 210" cx="37.417" cy="37.417" r="37.417" transform="translate(10.895 10.756)" fill="none" stroke="#000" stroke-miterlimit="10" stroke-width="3"/>
      <g id="Group_765" data-name="Group 765" transform="translate(36.047 34.283)">
        <path id="Subtraction_1" data-name="Subtraction 1" d="M500.9,397.407c-1.277,0-2.722-.034-4-.063-1.087-.025-2.113-.049-2.884-.049-2.322,0-3.727.056-4.566.09-.323.013-.557.022-.707.022a.223.223,0,0,1-.262-.262v-.972c0-.145.106-.224.3-.224h2.505c.72,0,1.122-.3,1.2-.9.026-.179.054-.762.086-1.73h3.708a3.507,3.507,0,0,0,.619,1.693,2.845,2.845,0,0,0,1.5.893,8.936,8.936,0,0,0,2.459.3,10.983,10.983,0,0,0,8.788-4.039,13.753,13.753,0,0,0,2.73-8.414,13.334,13.334,0,0,0-3.066-8.265c-2.081-2.281-5.5-3.59-9.386-3.59a7.751,7.751,0,0,0-2.991.374,2.036,2.036,0,0,0-.711,1.757c0,.043,0,.089,0,.136h-3.61c-.019-.509-.036-.831-.051-.959a1.033,1.033,0,0,0-.468-.86,2.444,2.444,0,0,0-1.141-.187H488.9c-.194,0-.3-.042-.3-.262v-1.009c0-.129.081-.187.262-.187.134,0,.35.009.677.021.832.032,2.382.091,4.82.091.5,0,1.739-.03,2.935-.059,1.142-.027,2.22-.054,2.637-.054,1.319,0,2.454.043,3.471.132a21.237,21.237,0,0,1,3.18.5,14.108,14.108,0,0,1,2.893,1.026,12.313,12.313,0,0,1,2.609,1.709A11.629,11.629,0,0,1,515.068,378a12.183,12.183,0,0,1,.857,2.583,14.541,14.541,0,0,1,.307,3.026A17.731,17.731,0,0,1,516,386.58a12.809,12.809,0,0,1-.694,2.548,12.189,12.189,0,0,1-1.157,2.247,15.735,15.735,0,0,1-1.619,2.068,10.911,10.911,0,0,1-2.927,2.292,12.044,12.044,0,0,1-1.572.7,13.978,13.978,0,0,1-1.583.472A23.59,23.59,0,0,1,500.9,397.407Z" transform="translate(-488.483 -370.706)" fill="#c90202" stroke="#fff" stroke-miterlimit="10" stroke-width="1"/>
        <g id="S" transform="translate(1.085 5.801)" style="isolation: isolate">
          <text id="S-2" data-name="S" transform="translate(0 13)" fill="#c90202" font-size="18" font-family="ACaslonPro-Regular, Adobe Caslon Pro" letter-spacing="0.093em" style="isolation: isolate"><tspan x="0" y="0">S</tspan></text>
          <text id="S-3" data-name="S" stroke-width="1" stroke="#fff" transform="translate(0 13)" font-size="18" font-family="ACaslonPro-Regular, Adobe Caslon Pro" letter-spacing="0.093em" fill="none" style="isolation: isolate"><tspan x="0" y="0">S</tspan></text>
        </g>
        <path id="Subtraction_2" data-name="Subtraction 2" d="M501.223,397.834c-.922,0-1.966-.025-2.887-.045-.785-.018-1.526-.036-2.083-.036-1.677,0-2.692.041-3.3.065-.234.009-.4.016-.511.016-.134,0-.189-.055-.189-.189v-.7c0-.1.077-.162.216-.162h1.809c.52,0,.81-.218.864-.648.018-.121.037-.5.058-1.119h2.7a2.593,2.593,0,0,0,.433,1.092,3.7,3.7,0,0,0,2.863.865,7.931,7.931,0,0,0,6.347-2.917,9.932,9.932,0,0,0,1.972-6.077,9.628,9.628,0,0,0-2.215-5.969,9.1,9.1,0,0,0-6.779-2.592,5.6,5.6,0,0,0-2.16.27,1.47,1.47,0,0,0-.513,1.27c0,.028,0,.059,0,.09h-2.608c-.014-.363-.026-.593-.037-.684a.746.746,0,0,0-.338-.621,1.765,1.765,0,0,0-.824-.135h-1.486c-.14,0-.216-.03-.216-.189v-.73c0-.093.058-.135.189-.135.1,0,.253.006.489.015.6.023,1.72.066,3.481.066.362,0,1.255-.022,2.12-.042.825-.02,1.6-.039,1.9-.039a20.15,20.15,0,0,1,4.8.456,10.176,10.176,0,0,1,2.09.741,8.838,8.838,0,0,1,1.884,1.234,8.4,8.4,0,0,1,2.157,2.836,8.783,8.783,0,0,1,.619,1.866,10.532,10.532,0,0,1,.222,2.185,12.769,12.769,0,0,1-.167,2.147,9.267,9.267,0,0,1-.5,1.84,8.844,8.844,0,0,1-.836,1.622,11.338,11.338,0,0,1-1.17,1.494,7.873,7.873,0,0,1-2.114,1.655,8.75,8.75,0,0,1-1.135.509,10.174,10.174,0,0,1-1.144.341A17.04,17.04,0,0,1,501.223,397.834Z" transform="translate(-490.634 -375.176)" fill="#c90202" stroke="#fff" stroke-miterlimit="10" stroke-width="1"/>
      </g>
      <g id="DESTINY" transform="translate(39.692 16.992)" style="isolation: isolate">
        <text id="DESTINY-2" data-name="DESTINY" transform="translate(0 3)" fill="#fff" font-size="3" font-family="Roboto-Bold, Roboto" font-weight="700" letter-spacing="0.1em" style="isolation: isolate"><tspan x="0" y="0">DESTINY</tspan></text>
      </g>
      <g id="DEHRI" transform="translate(17.363 54.134)" style="isolation: isolate">
        <text id="DEHRI-2" data-name="DEHRI" transform="matrix(-0.358, -0.934, 0.934, -0.358, 6.917, 11.295)" fill="#fff" font-size="3" font-family="Roboto-Bold, Roboto" font-weight="700" letter-spacing="0.1em" style="isolation: isolate"><tspan x="0" y="0">DEHRI</tspan></text>
      </g>
      <g id="SCHOOL" transform="translate(73.389 48.222)" style="isolation: isolate">
        <text id="SCHOOL-2" data-name="SCHOOL" transform="translate(5.407 0.413) rotate(105.009)" fill="#fff" font-size="3" font-family="Roboto-Bold, Roboto" font-weight="700" letter-spacing="0.1em" style="isolation: isolate"><tspan x="0" y="0">SCHOOL</tspan></text>
      </g>
      <g id="Group_1026" data-name="Group 1026" transform="translate(17.743 2.578)">
        <g id="Group_1025" data-name="Group 1025" transform="translate(0 0)">
          <path id="Path_798" data-name="Path 798" d="M445.927,318.958c.617-.617.932-.917,1.573-1.5a29.937,29.937,0,0,1,6.339.574l-1.987-2.771a1.64,1.64,0,0,0-.321-.354.515.515,0,0,0-.284-.116.534.534,0,0,0-.274.067,2.37,2.37,0,0,0-.3.191l-.22.166-.1-.129c.872-.662,1.317-.977,2.219-1.576l.09.136-.234.156a2.111,2.111,0,0,0-.282.223.5.5,0,0,0-.144.242.547.547,0,0,0,.023.3,1.658,1.658,0,0,0,.223.408l2.856,4.084-.145.1a29.05,29.05,0,0,0-6.68-.732l2.447,2.7a1.8,1.8,0,0,0,.358.32.552.552,0,0,0,.277.1.417.417,0,0,0,.24-.074,2.319,2.319,0,0,0,.246-.191l.183-.159.106.123c-.721.621-1.074.945-1.763,1.62l-.114-.116.176-.171a1.868,1.868,0,0,0,.214-.241.474.474,0,0,0,.092-.243.536.536,0,0,0-.072-.285,1.847,1.847,0,0,0-.28-.37l-2.8-3.013c-.155,0-.282.009-.381.018a1.744,1.744,0,0,0-.265.044,1.214,1.214,0,0,0-.232.087c-.077.038-.172.088-.28.153a2.34,2.34,0,0,0-.4.339Z" transform="translate(-445.927 -306.409)" fill="#c90202"/>
          <path id="Path_799" data-name="Path 799" d="M466.662,305.639l-.071-.146c.971-.471,1.462-.689,2.455-1.1l.061.151-.262.108a.832.832,0,0,0-.511.536,1.08,1.08,0,0,0,.148.624l.963,2.193a3.844,3.844,0,0,1,.367,1.353,1.708,1.708,0,0,1-.08.542,1.867,1.867,0,0,1-.28.542,2.979,2.979,0,0,1-.5.523,4.2,4.2,0,0,1-.748.486,5.419,5.419,0,0,1-.877.378,2.655,2.655,0,0,1-.732.133,1.8,1.8,0,0,1-.618-.088,2.029,2.029,0,0,1-.535-.277,4.332,4.332,0,0,1-.907-1.154l-1.213-1.966a1.773,1.773,0,0,0-.274-.355.559.559,0,0,0-.268-.151.526.526,0,0,0-.289.024,1.638,1.638,0,0,0-.33.169l-.249.163-.089-.136c1.123-.736,1.7-1.08,2.86-1.718l.078.142-.258.143a1.64,1.64,0,0,0-.292.2.519.519,0,0,0-.156.236.6.6,0,0,0,0,.308,1.582,1.582,0,0,0,.184.424l1.3,2.227a4.707,4.707,0,0,0,.436.627,1.739,1.739,0,0,0,.545.448,1.353,1.353,0,0,0,.689.142,2.145,2.145,0,0,0,.88-.277,3.035,3.035,0,0,0,.523-.344,2.8,2.8,0,0,0,.407-.407,1.856,1.856,0,0,0,.268-.44,1.126,1.126,0,0,0,.1-.443,3.289,3.289,0,0,0-.377-1.3l-.989-2.181q-.226-.5-.429-.563a.908.908,0,0,0-.664.095Z" transform="translate(-454.985 -301.213)" fill="#c90202"/>
          <path id="Path_800" data-name="Path 800" d="M487.684,306c-.674.141-1.011.219-1.68.391a30.873,30.873,0,0,0-2.963-2.02l-.22.082c-.065.024-.124.045-.178.063s-.09.029-.14.043-.1.029-.156.043l.558,1.625a1.984,1.984,0,0,0,.2.449.568.568,0,0,0,.216.209.4.4,0,0,0,.24.034,1.993,1.993,0,0,0,.276-.07l.247-.078.049.155c-1.065.335-1.593.523-2.635.94l-.06-.151.235-.093a.718.718,0,0,0,.468-.437,1.3,1.3,0,0,0-.129-.639l-1.33-3.581c-.127-.342-.255-.539-.387-.592a.9.9,0,0,0-.665.046l-.271.108-.06-.151c1.026-.411,1.545-.6,2.59-.941a10.027,10.027,0,0,1,1.008-.278,4.013,4.013,0,0,1,.721-.1,2.37,2.37,0,0,1,.561.052,1.726,1.726,0,0,1,.493.186,1.362,1.362,0,0,1,.378.317,1.091,1.091,0,0,1,.216.436,1.279,1.279,0,0,1-.179,1.025,2.757,2.757,0,0,1-1.111.894c.744.487,1.106.739,1.807,1.259.205.149.382.271.532.363a1.962,1.962,0,0,0,.428.206,1.481,1.481,0,0,0,.415.073,3.469,3.469,0,0,0,.489-.025Zm-5.426-1.658c.064-.021.119-.039.166-.053l.115-.035a3.911,3.911,0,0,0,.811-.364,2.1,2.1,0,0,0,.532-.446,1.224,1.224,0,0,0,.259-.5,1.068,1.068,0,0,0-.014-.533,1.1,1.1,0,0,0-.666-.747,1.515,1.515,0,0,0-.56-.1,2.1,2.1,0,0,0-.648.106,5.056,5.056,0,0,0-.794.352Z" transform="translate(-464.947 -299.31)" fill="#c90202"/>
          <path id="Path_801" data-name="Path 801" d="M501.131,297.252c.04.555.06.833.1,1.388l-.119.009a1.13,1.13,0,0,0-.467-.757,1.565,1.565,0,0,0-.966-.14c-.415.044-.623.069-1.038.123l.591,4.483a1.864,1.864,0,0,0,.108.462.563.563,0,0,0,.164.238.4.4,0,0,0,.226.08,1.81,1.81,0,0,0,.3-.012l.219-.024.018.162c-1.087.115-1.629.193-2.707.388l-.029-.16.225-.04a1.619,1.619,0,0,0,.291-.076.412.412,0,0,0,.194-.147.59.59,0,0,0,.091-.275,1.792,1.792,0,0,0-.025-.464l-.7-4.467c-.352.055-.528.084-.879.146a3.419,3.419,0,0,0-.575.149,1.2,1.2,0,0,0-.406.239.8.8,0,0,0-.227.366,1.251,1.251,0,0,0-.024.527l-.2.042-.3-1.36A35.87,35.87,0,0,1,501.131,297.252Z" transform="translate(-473.893 -297.141)" fill="#c90202"/>
          <path id="Path_802" data-name="Path 802" d="M515.543,297.243l.01-.162c1.055.066,1.581.115,2.631.246l-.02.161-.277-.034a.816.816,0,0,0-.7.218,1.1,1.1,0,0,0-.176.617c-.1.953-.143,1.429-.238,2.382a3.9,3.9,0,0,1-.342,1.359,1.709,1.709,0,0,1-.331.434,1.823,1.823,0,0,1-.5.335,2.883,2.883,0,0,1-.68.21,4,4,0,0,1-.87.056,5.093,5.093,0,0,1-.924-.1,2.516,2.516,0,0,1-.683-.246,1.744,1.744,0,0,1-.48-.382,2.033,2.033,0,0,1-.319-.5,4.462,4.462,0,0,1-.213-1.451l-.084-2.308a1.816,1.816,0,0,0-.061-.443.57.57,0,0,0-.153-.264.5.5,0,0,0-.255-.123,1.507,1.507,0,0,0-.358-.018l-.286.017-.01-.162c1.291-.079,1.939-.095,3.231-.077l0,.163-.287,0a1.521,1.521,0,0,0-.344.031.5.5,0,0,0-.245.128.6.6,0,0,0-.148.268,1.628,1.628,0,0,0-.047.459c.012,1.031.018,1.546.03,2.576a4.89,4.89,0,0,0,.068.76,1.768,1.768,0,0,0,.246.659,1.325,1.325,0,0,0,.514.464,2.031,2.031,0,0,0,.879.192,2.886,2.886,0,0,0,.61-.043,2.7,2.7,0,0,0,.544-.155,1.818,1.818,0,0,0,.441-.253,1.133,1.133,0,0,0,.3-.339,3.348,3.348,0,0,0,.307-1.319c.084-.954.126-1.431.21-2.385a1,1,0,0,0-.094-.7.884.884,0,0,0-.613-.243Z" transform="translate(-482.57 -296.994)" fill="#c90202"/>
          <path id="Path_803" data-name="Path 803" d="M533.922,305.115c-.661-.208-.993-.3-1.661-.481a31.854,31.854,0,0,0-1.588-3.208l-.231-.036q-.1-.016-.184-.032c-.045-.009-.093-.018-.142-.03s-.1-.024-.156-.039c-.124.676-.186,1.014-.31,1.69a2,2,0,0,0-.043.491.567.567,0,0,0,.085.287.389.389,0,0,0,.191.146,1.906,1.906,0,0,0,.273.074l.253.052-.034.159c-1.087-.227-1.635-.32-2.733-.465l.021-.161.248.034a.708.708,0,0,0,.616-.153,1.31,1.31,0,0,0,.2-.62c.239-1.509.358-2.263.6-3.772a1,1,0,0,0-.046-.7.885.885,0,0,0-.6-.285l-.285-.038.021-.161c1.082.143,1.621.231,2.693.443a10.048,10.048,0,0,1,1.01.249,4.034,4.034,0,0,1,.675.266,2.389,2.389,0,0,1,.463.319,1.731,1.731,0,0,1,.339.4,1.37,1.37,0,0,1,.175.461,1.094,1.094,0,0,1-.025.486,1.282,1.282,0,0,1-.659.807,2.768,2.768,0,0,1-1.406.237c.409.788.6,1.184.957,1.979.106.23.2.423.286.577a1.949,1.949,0,0,0,.274.389,1.5,1.5,0,0,0,.327.266,3.459,3.459,0,0,0,.441.218Zm-3.913-4.095c.066.012.122.024.17.035l.117.025a3.87,3.87,0,0,0,.881.078,2.1,2.1,0,0,0,.68-.129,1.23,1.23,0,0,0,.472-.314,1.069,1.069,0,0,0,.249-.472,1.129,1.129,0,0,0,.01-.516,1.112,1.112,0,0,0-.224-.461,1.5,1.5,0,0,0-.437-.362,2.072,2.072,0,0,0-.614-.223,4.951,4.951,0,0,0-.859-.08C530.276,299.569,530.187,300.053,530.009,301.02Z" transform="translate(-492.495 -297.488)" fill="#c90202"/>
          <path id="Path_804" data-name="Path 804" d="M545.276,308.176l-.061.151c-1.038-.422-1.563-.612-2.624-.951l.05-.155.219.071a1.911,1.911,0,0,0,.3.074.4.4,0,0,0,.244-.034.59.59,0,0,0,.214-.209,1.954,1.954,0,0,0,.2-.442l1.259-3.606q.066-.191.1-.32a.95.95,0,0,0,.033-.219.3.3,0,0,0-.038-.154.7.7,0,0,0-.118-.14,1.282,1.282,0,0,0-.453-.261l-.252-.081.05-.155c1.231.394,1.84.615,3.044,1.1l-.061.151-.247-.1a2.063,2.063,0,0,0-.338-.1.493.493,0,0,0-.277.015.561.561,0,0,0-.237.2,1.691,1.691,0,0,0-.219.428l-1.349,3.574c-.049.13-.086.237-.112.319a.808.808,0,0,0-.042.214.31.31,0,0,0,.031.154.688.688,0,0,0,.1.138.973.973,0,0,0,.373.258Z" transform="translate(-501.014 -299.701)" fill="#c90202"/>
          <path id="Path_805" data-name="Path 805" d="M551.625,304.426c.76.312,1.138.477,1.886.827a33.156,33.156,0,0,1,1.826,6.009l1.773-2.913a1.661,1.661,0,0,0,.2-.434.515.515,0,0,0,0-.305.522.522,0,0,0-.166-.225,2.253,2.253,0,0,0-.287-.2l-.234-.135.081-.141c.931.536,1.39.819,2.293,1.417l-.09.136-.235-.154a2.056,2.056,0,0,0-.314-.172.492.492,0,0,0-.277-.038.545.545,0,0,0-.267.139,1.673,1.673,0,0,0-.288.365l-2.641,4.227-.149-.093a32.216,32.216,0,0,0-1.813-6.383l-1.538,3.3a1.887,1.887,0,0,0-.159.454.562.562,0,0,0,.013.29.39.39,0,0,0,.153.188,2.214,2.214,0,0,0,.26.147l.209.1-.072.145c-.821-.407-1.236-.6-2.076-.951l.063-.15.213.091a1.668,1.668,0,0,0,.289.1.442.442,0,0,0,.249-.015.539.539,0,0,0,.228-.179,1.944,1.944,0,0,0,.231-.4l1.693-3.748c-.057-.14-.108-.253-.151-.339a1.643,1.643,0,0,0-.133-.222,1.125,1.125,0,0,0-.159-.176c-.061-.055-.139-.121-.234-.192a2.114,2.114,0,0,0-.438-.225Z" transform="translate(-505.073 -301.229)" fill="#c90202"/>
          <path id="Path_806" data-name="Path 806" d="M574.957,320.238c-.45.6-.677.9-1.133,1.491l-.147-.14a2.274,2.274,0,0,0,.074-1.55,3,3,0,0,0-.958-1.323,3.208,3.208,0,0,0-1.086-.621,2.479,2.479,0,0,0-1.066-.109,2.283,2.283,0,0,0-.957.349,2.9,2.9,0,0,0-.779.748,3.166,3.166,0,0,0-.589,1.481,2.756,2.756,0,0,0,0,.754,2.718,2.718,0,0,0,.179.669,2.557,2.557,0,0,0,.328.575,2.9,2.9,0,0,0,.447.471,3.542,3.542,0,0,0,1.29.7l1.15-1.267a2.647,2.647,0,0,0,.228-.281.676.676,0,0,0,.1-.208.33.33,0,0,0,0-.165,1,1,0,0,0-.061-.164,1.788,1.788,0,0,0-.419-.464l.111-.128c.871.755,1.3,1.151,2.126,1.979l-.12.12-.1-.1a1.329,1.329,0,0,0-.252-.2.434.434,0,0,0-.243-.064.533.533,0,0,0-.269.1,2.143,2.143,0,0,0-.333.294l-1.252,1.305q-.311-.108-.589-.229a4.9,4.9,0,0,1-.53-.269,6.887,6.887,0,0,1-1.032-.728,5.642,5.642,0,0,1-1.058-1.147,4.074,4.074,0,0,1-.576-1.219,3.074,3.074,0,0,1-.088-1.226,2.622,2.622,0,0,1,1.677-2.107,3.36,3.36,0,0,1,2.041-.131,4.505,4.505,0,0,1,1.834.976q.181.151.314.278a3.737,3.737,0,0,1,.263.278c.086.1.176.216.268.346s.2.292.323.486a2,2,0,0,0,.268.369.273.273,0,0,0,.185.071.47.47,0,0,0,.273-.15Z" transform="translate(-515.109 -308.585)" fill="#c90202"/>
        </g>
      </g>
      <g id="Group_1028" data-name="Group 1028" transform="translate(19.151 77.701)">
        <g id="Group_1027" data-name="Group 1027" transform="translate(0 0)">
          <path id="Path_807" data-name="Path 807" d="M456.333,475.272l-.862.912-.085-.068a.956.956,0,0,0,.211-.742,1.344,1.344,0,0,0-.487-.678c-.276-.236-.412-.357-.682-.6l-3.015,2.779a1.339,1.339,0,0,0-.275.325.427.427,0,0,0-.059.26.459.459,0,0,0,.112.23,2.3,2.3,0,0,0,.243.24l.191.166-.1.1a31.14,31.14,0,0,1-2.32-2.167l.114-.094.186.188a2.144,2.144,0,0,0,.264.229.516.516,0,0,0,.541.057,1.385,1.385,0,0,0,.355-.239l3.1-2.7c-.225-.216-.336-.325-.556-.547a3.616,3.616,0,0,0-.394-.348,1.215,1.215,0,0,0-.383-.2.874.874,0,0,0-.406-.019,1.259,1.259,0,0,0-.453.194l-.125-.137,1.017-.767A26.773,26.773,0,0,0,456.333,475.272Z" transform="translate(-449.201 -471.652)" fill="#c90202"/>
          <path id="Path_808" data-name="Path 808" d="M461.772,483.7a29.76,29.76,0,0,0,2.674,1.659l.839-1.247q.1-.154.163-.255a.648.648,0,0,0,.078-.178.247.247,0,0,0,0-.138.616.616,0,0,0-.071-.136.958.958,0,0,0-.314-.289l-.191-.113.084-.118c.923.551,1.394.807,2.354,1.28l-.073.124-.2-.1a1.233,1.233,0,0,0-.179-.071,1.034,1.034,0,0,0-.194-.041.752.752,0,0,0-.185,0,.314.314,0,0,0-.151.057,1.716,1.716,0,0,0-.317.411l-1.806,2.858q-.1.156-.15.259a.746.746,0,0,0-.067.18.231.231,0,0,0,.012.139.587.587,0,0,0,.09.141,1.2,1.2,0,0,0,.394.3l.229.114-.073.124c-1.123-.554-1.674-.853-2.754-1.5l.084-.118.221.131a2.366,2.366,0,0,0,.3.149.569.569,0,0,0,.271.042.514.514,0,0,0,.268-.12,1.474,1.474,0,0,0,.286-.332l.894-1.329a29.928,29.928,0,0,1-2.7-1.674l-1.022,1.25q-.118.144-.185.239a.575.575,0,0,0-.089.172.247.247,0,0,0,0,.145.709.709,0,0,0,.077.154,1.191,1.191,0,0,0,.352.345l.224.145-.089.115c-1.062-.683-1.581-1.048-2.59-1.823l.1-.108.213.163a.992.992,0,0,0,.654.246q.181-.012.5-.379l2.241-2.588c.084-.1.15-.177.2-.24a.622.622,0,0,0,.1-.167.263.263,0,0,0,.014-.134.532.532,0,0,0-.052-.142.961.961,0,0,0-.28-.326l-.184-.14.1-.108c.863.662,1.307.974,2.215,1.559l-.089.115-.193-.125a1.23,1.23,0,0,0-.165-.088,1.03,1.03,0,0,0-.189-.063.79.79,0,0,0-.185-.02.325.325,0,0,0-.158.04,1.675,1.675,0,0,0-.375.37Z" transform="translate(-454.37 -476.829)" fill="#c90202"/>
          <path id="Path_809" data-name="Path 809" d="M478.311,490.078l-.921,1.838c.543.226.817.334,1.368.538a2.318,2.318,0,0,0,.51.137.809.809,0,0,0,.348-.023.506.506,0,0,0,.238-.165,1.6,1.6,0,0,0,.182-.292l.171.058-.672,1.669-.18-.061a2.582,2.582,0,0,0,.058-.37.464.464,0,0,0-.058-.27.644.644,0,0,0-.237-.216,3.1,3.1,0,0,0-.475-.212c-.555-.206-.831-.315-1.379-.543l-.769,1.536c-.058.116-.1.209-.132.28a.261.261,0,0,0-.019.181.265.265,0,0,0,.128.136,2.449,2.449,0,0,0,.317.147c.456.182.685.269,1.145.437q.292.106.5.166a2.207,2.207,0,0,0,.367.078,1.185,1.185,0,0,0,.295,0,2.346,2.346,0,0,0,.3-.061,3.063,3.063,0,0,0,.886-.465l.2.061c-.411.417-.62.623-1.047,1.031a33.666,33.666,0,0,1-5.22-2.066l.072-.125.231.11a1.39,1.39,0,0,0,.2.077,1.449,1.449,0,0,0,.216.046.768.768,0,0,0,.2,0,.318.318,0,0,0,.159-.06,1.334,1.334,0,0,0,.3-.419l1.6-2.982c.158-.293.219-.491.183-.589a.782.782,0,0,0-.434-.37l-.2-.1.071-.125a28.81,28.81,0,0,0,4.464,1.767l-.406,1.057-.108-.035a2.427,2.427,0,0,0,.018-.463.6.6,0,0,0-.107-.308.724.724,0,0,0-.274-.216,4.932,4.932,0,0,0-.483-.2C479.27,490.468,478.948,490.343,478.311,490.078Z" transform="translate(-463.452 -481.592)" fill="#c90202"/>
          <path id="Path_810" data-name="Path 810" d="M497.891,495.774l-.4,1.975c.48.08.72.117,1.2.183a1.768,1.768,0,0,0,.366.017.622.622,0,0,0,.268-.078.546.546,0,0,0,.19-.193,1.566,1.566,0,0,0,.141-.33l.179.02-.226,1.715-.189-.021a1.186,1.186,0,0,0-.008-.329.483.483,0,0,0-.114-.237.612.612,0,0,0-.248-.158,1.983,1.983,0,0,0-.411-.093c-.486-.066-.729-.1-1.213-.185l-.321,1.577c-.024.118-.041.214-.051.289a.56.56,0,0,0,0,.189.258.258,0,0,0,.068.129.732.732,0,0,0,.137.1,1.213,1.213,0,0,0,.463.163l.26.038-.024.139c-1.237-.176-1.853-.288-3.073-.555l.037-.137.249.054a2.447,2.447,0,0,0,.337.05.451.451,0,0,0,.458-.243,1.392,1.392,0,0,0,.147-.4l.757-3.231q.04-.17.056-.285a.851.851,0,0,0,.009-.191.264.264,0,0,0-.044-.13.445.445,0,0,0-.111-.1,1.148,1.148,0,0,0-.186-.107,1.035,1.035,0,0,0-.21-.067l-.215-.047.036-.136a30.183,30.183,0,0,0,4.573.7c-.048.448-.072.672-.12,1.12l-.106-.009a1.759,1.759,0,0,0-.157-.459.815.815,0,0,0-.246-.282,1.074,1.074,0,0,0-.366-.159,4.816,4.816,0,0,0-.524-.092C498.71,495.906,498.436,495.865,497.891,495.774Z" transform="translate(-475.237 -485.049)" fill="#c90202"/>
          <path id="Path_811" data-name="Path 811" d="M514.152,496.94l-.008-.141c.878-.041,1.317-.075,2.191-.169l.018.14-.233.024a.691.691,0,0,0-.536.3.952.952,0,0,0-.043.552l.206,2.062a2.693,2.693,0,0,1-.1,1.211,1.347,1.347,0,0,1-.277.421,1.8,1.8,0,0,1-.5.356,3.293,3.293,0,0,1-.733.255,4.717,4.717,0,0,1-.98.11,5.715,5.715,0,0,1-1.052-.068,2.94,2.94,0,0,1-.763-.226,1.707,1.707,0,0,1-.511-.354,1.55,1.55,0,0,1-.306-.458,3.108,3.108,0,0,1-.1-1.267l.12-1.994a1.6,1.6,0,0,0-.015-.387.5.5,0,0,0-.106-.24.432.432,0,0,0-.2-.127,1.334,1.334,0,0,0-.3-.05l-.24-.017.013-.14c1.073.08,1.612.1,2.688.1v.141h-.241a1.354,1.354,0,0,0-.289.025.428.428,0,0,0-.209.106.539.539,0,0,0-.135.228,1.4,1.4,0,0,0-.058.4c-.028.891-.042,1.336-.07,2.227a3.453,3.453,0,0,0,.041.66,1.221,1.221,0,0,0,.8.982,2.508,2.508,0,0,0,.982.142,3.5,3.5,0,0,0,.674-.077,3.068,3.068,0,0,0,.582-.185,1.87,1.87,0,0,0,.445-.269.957.957,0,0,0,.265-.329,2.345,2.345,0,0,0,.1-1.169c-.071-.826-.107-1.239-.178-2.065a.9.9,0,0,0-.182-.585.769.769,0,0,0-.542-.136Z" transform="translate(-483.677 -485.887)" fill="#c90202"/>
          <path id="Path_812" data-name="Path 812" d="M531.085,494.284c.149.462.223.693.372,1.155l-.1.028a1.085,1.085,0,0,0-.55-.569,1.465,1.465,0,0,0-.843,0c-.345.08-.518.117-.865.188l.942,3.816a1.328,1.328,0,0,0,.148.388.485.485,0,0,0,.2.187.511.511,0,0,0,.257.041,2.338,2.338,0,0,0,.332-.052l.241-.055.038.136c-1.2.276-1.809.392-3.028.579l-.026-.138.252-.04a2.071,2.071,0,0,0,.326-.076.476.476,0,0,0,.216-.137.451.451,0,0,0,.1-.243,1.246,1.246,0,0,0-.034-.4l-.83-3.837c-.3.053-.446.078-.744.125a3.269,3.269,0,0,0-.49.111,1.041,1.041,0,0,0-.353.185.7.7,0,0,0-.211.3,1.075,1.075,0,0,0-.05.452l-.177.021c-.068-.478-.1-.717-.171-1.194A30.062,30.062,0,0,0,531.085,494.284Z" transform="translate(-492.985 -484.55)" fill="#c90202"/>
          <path id="Path_813" data-name="Path 813" d="M542.826,489.6l-.065-.128c.813-.342,1.214-.526,2.005-.92l.074.123-.211.1a.649.649,0,0,0-.384.47.955.955,0,0,0,.184.528l1.034,1.845a2.71,2.71,0,0,1,.4,1.16,1.258,1.258,0,0,1-.091.488,1.656,1.656,0,0,1-.326.5,3.089,3.089,0,0,1-.589.491,4.575,4.575,0,0,1-.88.439,5.736,5.736,0,0,1-1.018.3,3.064,3.064,0,0,1-.81.05,1.856,1.856,0,0,1-.623-.156,1.719,1.719,0,0,1-.474-.321,3.262,3.262,0,0,1-.6-1.145l-.7-1.894a1.645,1.645,0,0,0-.171-.354.55.55,0,0,0-.2-.187.466.466,0,0,0-.241-.049,1.339,1.339,0,0,0-.3.054l-.232.065-.045-.135c1.038-.288,1.552-.451,2.566-.819l.057.131-.227.081a1.351,1.351,0,0,0-.262.122.392.392,0,0,0-.154.17.506.506,0,0,0-.034.258,1.4,1.4,0,0,0,.107.387l.84,2.093a3.582,3.582,0,0,0,.307.6,1.344,1.344,0,0,0,1.151.64,2.559,2.559,0,0,0,.983-.2,3.372,3.372,0,0,0,.6-.3,2.875,2.875,0,0,0,.475-.372,1.727,1.727,0,0,0,.311-.4.887.887,0,0,0,.117-.4,2.358,2.358,0,0,0-.378-1.123l-1.007-1.856q-.23-.424-.41-.481a.808.808,0,0,0-.568.061Z" transform="translate(-500.129 -481.28)" fill="#c90202"/>
          <path id="Path_814" data-name="Path 814" d="M562.426,486.3c-.624.484-.941.717-1.586,1.167a30.479,30.479,0,0,1-3.536-.638l-.192.125c-.057.036-.11.069-.157.1s-.08.046-.125.07l-.141.072.869,1.257a1.526,1.526,0,0,0,.293.333.526.526,0,0,0,.267.118.511.511,0,0,0,.263-.044,2.367,2.367,0,0,0,.283-.149l.248-.151.086.117c-1.074.66-1.625.968-2.744,1.537l-.075-.123.25-.128a.809.809,0,0,0,.466-.487.913.913,0,0,0-.214-.532l-1.849-2.841q-.264-.406-.45-.45a.814.814,0,0,0-.565.1l-.215.111-.075-.123c.813-.413,1.212-.634,2-1.1.289-.172.542-.317.761-.431a4.172,4.172,0,0,1,.566-.252,2.441,2.441,0,0,1,.483-.11,1.849,1.849,0,0,1,.478,0,1.489,1.489,0,0,1,.437.13,1.055,1.055,0,0,1,.352.271.987.987,0,0,1,.224.88,2.213,2.213,0,0,1-.735,1.1c.842.175,1.271.251,2.144.378.255.034.474.054.658.061a2.147,2.147,0,0,0,.508-.038,1.889,1.889,0,0,0,.447-.151,4.067,4.067,0,0,0,.482-.281Zm-5.877.692c.056-.032.1-.059.147-.082l.1-.056a3.292,3.292,0,0,0,.678-.511,1.725,1.725,0,0,0,.368-.521.93.93,0,0,0,.079-.491.861.861,0,0,0-.187-.429,1.092,1.092,0,0,0-.364-.3,1.184,1.184,0,0,0-.456-.124,1.553,1.553,0,0,0-.507.053,1.961,1.961,0,0,0-.518.225,5.183,5.183,0,0,0-.587.435Z" transform="translate(-508.654 -478.592)" fill="#c90202"/>
          <path id="Path_815" data-name="Path 815" d="M567.612,474.984l1.53,1.46c.452-.4.675-.6,1.112-1.019a2.239,2.239,0,0,0,.351-.407.707.707,0,0,0,.12-.319.428.428,0,0,0-.073-.271,1.53,1.53,0,0,0-.228-.265l.13-.134,1.457,1.18-.138.141a3.124,3.124,0,0,0-.361-.181.6.6,0,0,0-.3-.041.783.783,0,0,0-.321.137,3.335,3.335,0,0,0-.415.35c-.441.422-.666.628-1.122,1.028l1.278,1.22q.145.138.236.214a.31.31,0,0,0,.179.081.32.32,0,0,0,.192-.064,2.57,2.57,0,0,0,.28-.228c.373-.338.557-.51.92-.862.153-.148.278-.278.377-.388a2.144,2.144,0,0,0,.233-.3,1.1,1.1,0,0,0,.122-.265,2.052,2.052,0,0,0,.059-.288,2.582,2.582,0,0,0-.115-.96l.146-.161c.262.516.39.776.636,1.3a31.356,31.356,0,0,1-4.254,3.885l-.1-.107.2-.161a1.324,1.324,0,0,0,.16-.15,1.274,1.274,0,0,0,.133-.171.666.666,0,0,0,.082-.176.26.26,0,0,0,0-.16,1.3,1.3,0,0,0-.314-.409l-2.438-2.464c-.24-.242-.419-.366-.535-.37a.9.9,0,0,0-.554.244l-.176.139-.1-.107a26.767,26.767,0,0,0,3.638-3.323l.931.729-.081.086a2.909,2.909,0,0,0-.474-.176.775.775,0,0,0-.363-.009.859.859,0,0,0-.338.172,5.346,5.346,0,0,0-.4.364C568.4,474.279,568.144,474.519,567.612,474.984Z" transform="translate(-515.765 -472.201)" fill="#c90202"/>
        </g>
      </g>
    </g>
  </g>
</svg>
