<svg id="Capa_1" enable-background="new 0 0 511.924 511.924" height="512" viewBox="0 0 511.924 511.924" width="512" xmlns="http://www.w3.org/2000/svg"><g><g><path clip-rule="evenodd" d="m41.313 278.616c-47.603 47.62-42.991 129.402 10.311 182.692s135.104 57.9 182.707 10.309c20.536-20.531 33.053-47.391 32.738-75.625-.115-13.172 1.375-22.879 15.581-27.862 9.767-3.408 18.302-9.965 25.921-17.582 29.243-29.236 32.48-75.482 11.113-113.452l-43.794-43.783c-37.979-21.362-84.236-18.126-113.479 11.11-7.619 7.617-14.178 16.122-17.615 25.886-4.955 14.203-14.665 15.721-27.84 15.577-28.241-.286-55.107 12.228-75.643 32.73z" fill="#ce9875" fill-rule="evenodd"/></g><g><path clip-rule="evenodd" d="m73.85 346.997c-7.218 7.216-7.218 19.014 0 26.23l65.876 65.861c7.218 7.216 19.018 7.216 26.236 0s7.218-19.014 0-26.23l-65.877-65.861c-7.216-7.216-19.017-7.216-26.235 0z" fill="#eff6ff" fill-rule="evenodd"/></g><g><path clip-rule="evenodd" d="m243.239 225.957-46.257 46.246c7.533 19.271 26.494 36.882 43.794 43.783l46.257-46.246z" fill="#fde588" fill-rule="evenodd"/></g><g><path clip-rule="evenodd" d="m275.891 193.313-32.652 32.644 8.793 34.992 35 8.791 32.652-32.644 9.509-9.507-14.149-37.14-29.644-6.643z" fill="#fde588" fill-rule="evenodd"/></g><g><path clip-rule="evenodd" d="m298.568 153.659h59.617v61.926h-59.617z" fill="#fde588" fill-rule="evenodd" transform="matrix(.707 -.707 .707 .707 -34.38 286.228)"/></g><g><path clip-rule="evenodd" d="m369.693 99.504-42.132 42.151 6.272 29.294 37.521 14.489 42.133-42.122-12.116-38.342z" fill="#fde588" fill-rule="evenodd"/></g><g><path clip-rule="evenodd" d="m272.54 255.222-39.297 39.259c4.239 6.615 6.76 13.974 7.533 21.505l46.257-46.246z" fill="#fdd76f" fill-rule="evenodd"/></g><g><path clip-rule="evenodd" d="m305.191 222.578-32.651 32.644 14.492 14.518 32.652-32.644 9.509-9.507-14.521-14.518-6.846 6.872z" fill="#fdd76f" fill-rule="evenodd"/></g><g><path clip-rule="evenodd" d="m398.994 128.798-42.161 42.151 14.521 14.489 42.133-42.122z" fill="#fdd76f" fill-rule="evenodd"/></g><g><path clip-rule="evenodd" d="m356.833 170.949-42.161 42.122 14.521 14.518 42.161-42.151z" fill="#fdd76f" fill-rule="evenodd"/></g><g><path clip-rule="evenodd" d="m239.372 385.196c.286 28.234-12.23 55.094-32.738 75.625-30.561 30.525-75.185 39.574-117.317 28.062 49.178 25.285 107.636 20.102 145.014-17.267 20.536-20.531 33.053-47.391 32.738-75.625-.115-13.172 1.375-22.879 15.581-27.862 9.767-3.408 18.302-9.965 25.921-17.582 29.243-29.236 32.48-75.482 11.113-113.452l-16.813 16.78c7.533 31.04.401 63.455-22.026 85.876-7.619 7.617-16.125 14.174-25.892 17.582-14.206 4.983-15.724 14.691-15.581 27.863z" fill="#c6865c" fill-rule="evenodd"/></g><g><path clip-rule="evenodd" d="m157.256 286.319c-19.133 19.157-19.133 50.197 0 69.354 19.161 19.157 50.238 19.157 69.399 0 10.855-10.853 15.553-25.514 14.12-39.688-1.117-10.824-5.814-21.362-14.12-29.666s-18.846-13-29.673-14.117c-14.178-1.432-28.871 3.264-39.726 14.117z" fill="#7e707d" fill-rule="evenodd"/></g><g><path clip-rule="evenodd" d="m217.404 311.489c1.002 9.908-1.002 20.073-6.015 29.007-2.148 3.837-4.869 7.416-8.106 10.681-8.908 8.905-20.393 13.659-32.05 14.289 18.159 8.476 40.442 5.212 55.422-9.793 10.855-10.853 15.553-25.514 14.12-39.688-1.117-10.824-5.814-21.362-14.12-29.666s-18.846-13-29.673-14.117c-2.549-.258-5.127-.315-7.676-.172 1.747.802 3.437 1.718 5.098 2.749 3.151 1.947 6.129 4.295 8.879 7.044 8.306 8.305 13.004 18.842 14.121 29.666z" fill="#6a5c6b" fill-rule="evenodd"/></g><g><path clip-rule="evenodd" d="m145.455 418.613c-7.189 7.187-19.018 7.187-26.207 0l20.479 20.474c7.218 7.216 19.018 7.216 26.236 0s7.218-19.014 0-26.23l-20.45-20.417h.029c7.131 7.217 7.131 18.957-.087 26.173z" fill="#d9eeff" fill-rule="evenodd"/></g><g><path clip-rule="evenodd" d="m380.176 59.444c-4.124 4.123-4.239 4.295-6.645 9.593l-3.838 30.468 43.794 43.812 30.504-3.837c5.299-2.434 5.471-2.52 9.595-6.643l3.408-3.408 44.968-44.957c1.948-1.947 1.948-5.126 0-7.073l-33.167-33.159-33.196-33.159c-1.919-1.947-5.098-1.947-7.046 0l-42.877 42.838z" fill="#ffbc85" fill-rule="evenodd"/></g><g><path clip-rule="evenodd" d="m439.064 118.318c-4.124 4.123-4.268 4.238-9.595 6.672l-30.475 3.808 14.493 14.518 30.504-3.837c5.299-2.434 5.471-2.52 9.595-6.643l3.408-3.408 30.303-30.296 14.665-14.661c1.948-1.947 1.948-5.126 0-7.073l-14.522-14.489c1.948 1.947 1.948 5.126 0 7.073l-44.968 44.928z" fill="#f5a96c" fill-rule="evenodd"/></g><g><path d="m145.03 433.783c-.025-.025-.051-.05-.076-.075l-21.511-20.903c-2.971-2.888-7.719-2.818-10.605.152s-2.818 7.719.152 10.605l21.476 20.869c5.073 5.05 11.727 7.575 18.38 7.575 6.671 0 13.343-2.539 18.421-7.616 4.907-4.906 7.61-11.447 7.61-18.418 0-6.972-2.703-13.513-7.61-18.419l-65.877-65.86c-10.157-10.155-26.685-10.155-36.842 0-4.908 4.906-7.61 11.447-7.61 18.418s2.702 13.512 7.61 18.419l19.936 19.93c2.93 2.93 7.679 2.927 10.606-.001 2.929-2.93 2.928-7.679-.001-10.606l-19.936-19.93c-2.074-2.073-3.216-4.848-3.216-7.812 0-2.963 1.142-5.737 3.216-7.811 4.311-4.309 11.322-4.309 15.631 0l65.877 65.86c2.073 2.073 3.216 4.848 3.216 7.812 0 2.963-1.143 5.737-3.216 7.811-4.309 4.309-11.323 4.309-15.631 0z"/><path d="m497.905 99.132 9.358-9.356c2.36-2.358 3.659-5.498 3.659-8.841s-1.299-6.482-3.659-8.841l-33.168-33.162-33.155-33.117c-2.337-2.371-5.465-3.684-8.809-3.695-.016 0-.031 0-.047 0-3.34 0-6.477 1.297-8.835 3.656l-7.261 7.259-10.865-10.843c-2.932-2.926-7.681-2.922-10.606.011s-2.921 7.681.011 10.606l10.854 10.831-19.692 19.687-9.807-9.803c-2.932-2.932-7.681-2.929-10.606.001-2.929 2.93-2.928 7.679.001 10.606l9.804 9.801-.208.208c-4.77 4.767-5.38 5.648-8.172 11.795-.312.687-.519 1.416-.613 2.164l-3.517 27.919-88.089 88.068c-22.19-11.126-46.77-14.747-69.828-10.155-4.062.808-6.7 4.756-5.892 8.819.808 4.062 4.758 6.699 8.819 5.892 18.232-3.624 37.662-1.241 55.641 6.701l-69.199 69.183c-15.169-.55-30.518 4.939-42.072 16.49-10.684 10.682-16.568 24.88-16.568 39.98s5.885 29.299 16.568 39.98c11.03 11.027 25.515 16.541 40.003 16.539 14.485-.001 28.975-5.514 40.002-16.539 10.685-10.681 16.569-24.88 16.569-39.98 0-.704-.026-1.404-.051-2.104l8.453-8.451 60.72-60.705c15.079 33.989 9.761 71.371-14.381 95.507-8.011 8.01-15.562 13.179-23.101 15.809-19.229 6.744-20.715 21.604-20.599 35.023.283 25.32-10.563 50.265-30.54 70.237-44.606 44.596-121.811 39.97-172.102-10.309-50.284-50.272-54.909-127.47-10.315-172.08 19.751-19.719 44.358-30.542 69.382-30.542.294 0 .588.001.882.005 13.391.128 28.272-1.316 34.995-20.588 2.645-7.51 7.827-15.058 15.845-23.072 3.041-3.042 6.397-5.87 9.975-8.406 3.379-2.396 4.176-7.076 1.78-10.456-2.395-3.378-7.073-4.176-10.456-1.78-4.263 3.022-8.269 6.398-11.905 10.035-9.64 9.637-15.98 19.024-19.394 28.719-3.203 9.181-7.958 10.698-20.683 10.549-29.355-.267-58.163 12.104-81.024 34.927-50.446 50.466-45.819 137.179 10.313 193.298 30.036 30.029 68.817 45.315 106.123 45.312 32.421-.002 63.729-11.551 87.189-35.004 22.855-22.851 35.263-51.621 34.935-80.994-.11-12.728 1.4-17.506 10.552-20.716 9.705-3.385 19.11-9.718 28.753-19.359 15.442-15.438 24.676-35.522 26.703-58.083 1.805-20.092-2.237-40.467-11.678-59.279l5.592-5.591c.002-.002.004-.004.006-.006s.004-.004.006-.006l82.469-82.449 27.954-3.516c.76-.096 1.499-.307 2.194-.626 5.239-2.406 6.677-3.22 9.858-6.276l9.835 9.833c1.465 1.465 3.384 2.196 5.303 2.196 1.92 0 3.84-.732 5.304-2.197 2.929-2.93 2.928-7.678-.001-10.606l-9.818-9.815 19.696-19.691 8.704 8.702c1.465 1.464 3.384 2.196 5.303 2.196 1.92 0 3.84-.732 5.304-2.197 2.929-2.93 2.929-7.678-.001-10.606zm-276.553 251.237c-16.209 16.206-42.585 16.205-58.794 0-7.851-7.849-12.174-18.28-12.174-29.373s4.323-21.524 12.174-29.373c8.105-8.104 18.75-12.154 29.397-12.154 10.645 0 21.293 4.053 29.396 12.154 7.851 7.849 12.175 18.28 12.175 29.373s-4.323 21.525-12.174 29.373zm23.609-49.174c-2.796-7.488-7.181-14.359-13.004-20.18-5.856-5.855-12.693-10.137-19.981-12.883-.08-.032-.157-.073-.238-.103l31.495-31.476 33.193 33.185zm69.423-69.405s-.002.001-.002.002l-27.349 27.342-33.191-33.182 27.351-27.334c.083-.083.153-.174.232-.26l3.961-3.96 33.2 33.192zm14.81-14.806-33.2-33.192 31.553-31.546 33.2 33.192zm42.16-42.151-33.2-33.192 31.537-31.529 33.189 33.202zm76.928-47.302c-2.899 2.9-3.16 3.16-6.376 4.65l-25.71 3.234-38.603-38.619 3.236-25.69c1.447-3.157 1.712-3.423 4.649-6.358l46.597-46.587 62.814 62.773z"/><path d="m427.233 110.279c1.464 1.463 3.382 2.194 5.301 2.194 1.92 0 3.841-.733 5.306-2.199l27.64-27.661c2.928-2.93 2.926-7.679-.005-10.606-2.929-2.928-7.678-2.927-10.606.005l-27.64 27.661c-2.929 2.93-2.927 7.679.004 10.606z"/><path d="m402.745 75.184c-2.931 2.927-2.934 7.676-.007 10.606 1.465 1.467 3.386 2.2 5.307 2.2 1.918 0 3.836-.731 5.3-2.193l27.668-27.633c2.931-2.927 2.934-7.676.007-10.606-2.927-2.932-7.676-2.933-10.606-.007z"/></g></g></svg>